<svg width="216" height="40" viewBox="0 0 216 40" fill="none" xmlns="http://www.w3.org/2000/svg">
<path fill-rule="evenodd" clip-rule="evenodd" d="M42.9308 39.6211H31.9559L16.4125 0H27.3874L42.9308 39.6211Z" fill="#3D3E3C"/>
<path fill-rule="evenodd" clip-rule="evenodd" d="M10.9749 39.6211H0L16.4124 0H27.3874L10.9749 39.6211Z" fill="#1B1C1A"/>
<path d="M62.0544 24.3089L57.5944 24.7954C57.4682 24.3449 57.2475 23.9214 56.9321 23.525C56.6258 23.1285 56.2113 22.8087 55.6887 22.5654C55.1661 22.3221 54.5264 22.2005 53.7696 22.2005C52.7514 22.2005 51.8955 22.4213 51.2017 22.8628C50.5169 23.3042 50.1791 23.8764 50.1881 24.5792C50.1791 25.1829 50.3998 25.6739 50.8503 26.0523C51.3098 26.4307 52.0667 26.7416 53.1209 26.9849L56.6618 27.7417C58.626 28.1652 60.0857 28.8364 61.0407 29.7555C62.0048 30.6745 62.4914 31.8774 62.5004 33.364C62.4914 34.6705 62.1084 35.8238 61.3516 36.8239C60.6037 37.815 59.5631 38.5899 58.2296 39.1485C56.8961 39.7071 55.3644 39.9864 53.6344 39.9864C51.0936 39.9864 49.0483 39.4548 47.4985 38.3917C45.9488 37.3195 45.0253 35.8283 44.7279 33.9181L49.4988 33.4586C49.715 34.3957 50.1745 35.103 50.8773 35.5805C51.5801 36.058 52.4946 36.2968 53.6209 36.2968C54.7832 36.2968 55.7158 36.058 56.4185 35.5805C57.1303 35.103 57.4862 34.5128 57.4862 33.81C57.4862 33.2154 57.2565 32.7243 56.797 32.3369C56.3465 31.9494 55.6437 31.6521 54.6886 31.4449L51.1476 30.7015C49.1564 30.2871 47.6833 29.5888 46.7282 28.6067C45.7731 27.6156 45.3001 26.3632 45.3091 24.8495C45.3001 23.57 45.647 22.4618 46.3498 21.5248C47.0616 20.5787 48.0482 19.8489 49.3096 19.3353C50.58 18.8127 52.0441 18.5514 53.702 18.5514C56.1347 18.5514 58.0494 19.0695 59.4459 20.1057C60.8515 21.1418 61.721 22.5429 62.0544 24.3089Z" fill="#3D3E3C"/>
<path d="M66.5346 39.581V18.8217H71.4271V39.581H66.5346ZM68.9944 15.8754C68.2195 15.8754 67.5528 15.6186 66.9942 15.1051C66.4355 14.5825 66.1562 13.9563 66.1562 13.2264C66.1562 12.4876 66.4355 11.8614 66.9942 11.3478C67.5528 10.8253 68.2195 10.564 68.9944 10.564C69.7783 10.564 70.445 10.8253 70.9946 11.3478C71.5533 11.8614 71.8326 12.4876 71.8326 13.2264C71.8326 13.9563 71.5533 14.5825 70.9946 15.1051C70.445 15.6186 69.7783 15.8754 68.9944 15.8754Z" fill="#3D3E3C"/>
<path d="M82.4318 40C81.1164 40 79.9315 39.7657 78.8773 39.2972C77.8322 38.8196 77.0032 38.1168 76.3906 37.1888C75.7869 36.2608 75.485 35.1165 75.485 33.756C75.485 32.5846 75.7013 31.6161 76.1338 30.8502C76.5663 30.0843 77.1564 29.4717 77.9043 29.0121C78.6521 28.5526 79.4945 28.2057 80.4316 27.9715C81.3776 27.7282 82.3552 27.5525 83.3644 27.4444C84.5807 27.3182 85.5673 27.2056 86.3242 27.1065C87.081 26.9984 87.6307 26.8362 87.973 26.62C88.3244 26.3947 88.5001 26.0478 88.5001 25.5793V25.4982C88.5001 24.4801 88.1983 23.6917 87.5946 23.1331C86.9909 22.5744 86.1215 22.2951 84.9862 22.2951C83.7878 22.2951 82.8373 22.5564 82.1345 23.079C81.4407 23.6016 80.9722 24.2188 80.7289 24.9306L76.1608 24.2818C76.5212 23.0204 77.1159 21.9662 77.9448 21.1193C78.7737 20.2633 79.7874 19.6236 80.9857 19.2001C82.1841 18.7677 83.5085 18.5514 84.9592 18.5514C85.9593 18.5514 86.9549 18.6685 87.946 18.9028C88.9371 19.1371 89.8426 19.5245 90.6626 20.0651C91.4825 20.5967 92.1402 21.322 92.6358 22.2411C93.1403 23.1601 93.3926 24.3089 93.3926 25.6874V39.581H88.6893V36.7293H88.5272C88.2298 37.3059 87.8109 37.8465 87.2703 38.3511C86.7387 38.8467 86.0674 39.2476 85.2565 39.554C84.4546 39.8513 83.513 40 82.4318 40ZM83.7023 36.4049C84.6844 36.4049 85.5358 36.2112 86.2566 35.8238C86.9774 35.4273 87.5315 34.9047 87.919 34.256C88.3154 33.6073 88.5136 32.9 88.5136 32.1341V29.6879C88.3605 29.814 88.0992 29.9312 87.7298 30.0393C87.3694 30.1474 86.9639 30.242 86.5134 30.3231C86.0629 30.4042 85.6169 30.4763 85.1754 30.5394C84.7339 30.6024 84.351 30.6565 84.0266 30.7015C83.2968 30.8006 82.6436 30.9628 82.0669 31.1881C81.4903 31.4133 81.0353 31.7287 80.7019 32.1341C80.3685 32.5306 80.2018 33.0442 80.2018 33.6749C80.2018 34.5759 80.5307 35.2561 81.1884 35.7157C81.8462 36.1752 82.6841 36.4049 83.7023 36.4049Z" fill="#3D3E3C"/>
<path d="M117.348 39.581H107.969V11.902H117.537C120.286 11.902 122.646 12.4561 124.619 13.5643C126.602 14.6636 128.124 16.2448 129.187 18.3081C130.251 20.3715 130.782 22.8402 130.782 25.7144C130.782 28.5977 130.246 31.0755 129.174 33.1478C128.111 35.2201 126.575 36.8104 124.565 37.9186C122.565 39.0269 120.159 39.581 117.348 39.581ZM112.983 35.2426H117.105C119.033 35.2426 120.641 34.8912 121.93 34.1884C123.218 33.4766 124.187 32.418 124.836 31.0124C125.484 29.5978 125.809 27.8318 125.809 25.7144C125.809 23.5971 125.484 21.8401 124.836 20.4435C124.187 19.038 123.227 17.9883 121.957 17.2945C120.695 16.5917 119.128 16.2403 117.254 16.2403H112.983V35.2426Z" fill="#3D3E3C"/>
<path d="M144.52 39.9864C142.439 39.9864 140.642 39.554 139.128 38.689C137.623 37.815 136.465 36.5806 135.654 34.9858C134.844 33.382 134.438 31.4944 134.438 29.323C134.438 27.1876 134.844 25.3135 135.654 23.7007C136.474 22.0789 137.619 20.8175 139.087 19.9164C140.556 19.0064 142.281 18.5514 144.264 18.5514C145.543 18.5514 146.75 18.7587 147.886 19.1731C149.03 19.5786 150.039 20.2093 150.913 21.0652C151.796 21.9212 152.49 23.0114 152.994 24.3359C153.499 25.6514 153.751 27.2191 153.751 29.0392V30.5394H136.736V27.2417H149.062C149.053 26.3046 148.85 25.4712 148.453 24.7414C148.057 24.0025 147.503 23.4214 146.791 22.9979C146.088 22.5744 145.268 22.3627 144.331 22.3627C143.331 22.3627 142.453 22.606 141.696 23.0925C140.939 23.57 140.349 24.2008 139.925 24.9846C139.511 25.7595 139.299 26.611 139.29 27.539V30.4177C139.29 31.6251 139.511 32.6612 139.952 33.5262C140.394 34.3822 141.011 35.0399 141.804 35.4994C142.597 35.9499 143.525 36.1752 144.588 36.1752C145.3 36.1752 145.944 36.0761 146.521 35.8778C147.097 35.6706 147.597 35.3688 148.021 34.9723C148.444 34.5759 148.764 34.0848 148.98 33.4992L153.549 34.0127C153.26 35.2201 152.711 36.2743 151.9 37.1753C151.098 38.0673 150.071 38.7611 148.818 39.2566C147.566 39.7432 146.133 39.9864 144.52 39.9864Z" fill="#3D3E3C"/>
<path d="M158.107 39.581V11.902H162.999V22.2546H163.202C163.454 21.75 163.81 21.2139 164.269 20.6463C164.729 20.0696 165.351 19.5786 166.135 19.1731C166.918 18.7587 167.919 18.5514 169.135 18.5514C170.739 18.5514 172.185 18.9614 173.473 19.7813C174.771 20.5922 175.798 21.7951 176.555 23.3898C177.321 24.9756 177.703 26.9218 177.703 29.2284C177.703 31.5079 177.33 33.4451 176.582 35.0399C175.834 36.6347 174.816 37.8511 173.527 38.689C172.239 39.5269 170.779 39.9459 169.148 39.9459C167.959 39.9459 166.972 39.7477 166.189 39.3512C165.405 38.9548 164.774 38.4773 164.296 37.9186C163.828 37.351 163.463 36.8149 163.202 36.3103H162.918V39.581H158.107ZM162.904 29.2014C162.904 30.5439 163.094 31.7197 163.472 32.7288C163.859 33.7379 164.414 34.5263 165.134 35.094C165.864 35.6526 166.747 35.9319 167.783 35.9319C168.865 35.9319 169.77 35.6436 170.5 35.0669C171.23 34.4813 171.779 33.6839 172.149 32.6747C172.527 31.6566 172.716 30.4988 172.716 29.2014C172.716 27.9129 172.532 26.7686 172.162 25.7685C171.793 24.7684 171.243 23.9845 170.513 23.4169C169.784 22.8492 168.874 22.5654 167.783 22.5654C166.738 22.5654 165.851 22.8402 165.121 23.3898C164.391 23.9395 163.837 24.7098 163.459 25.7009C163.089 26.692 162.904 27.8589 162.904 29.2014Z" fill="#3D3E3C"/>
<path d="M195.094 30.8502V18.8217H199.987V39.581H195.243V35.8914H195.027C194.558 37.0537 193.788 38.0042 192.715 38.7431C191.652 39.4819 190.341 39.8513 188.783 39.8513C187.422 39.8513 186.219 39.5495 185.174 38.9458C184.138 38.3331 183.327 37.4456 182.741 36.2833C182.156 35.112 181.863 33.6974 181.863 32.0395V18.8217H186.755V31.2827C186.755 32.5982 187.116 33.6433 187.836 34.4182C188.557 35.1931 189.503 35.5805 190.675 35.5805C191.395 35.5805 192.094 35.4048 192.77 35.0534C193.445 34.702 193.999 34.1794 194.432 33.4857C194.873 32.7829 195.094 31.9044 195.094 30.8502Z" fill="#3D3E3C"/>
<path d="M215.384 18.8217V22.606H203.45V18.8217H215.384ZM206.396 13.8481H211.289V33.337C211.289 33.9947 211.388 34.4993 211.586 34.8507C211.793 35.1931 212.064 35.4273 212.397 35.5535C212.73 35.6796 213.1 35.7427 213.505 35.7427C213.811 35.7427 214.091 35.7202 214.343 35.6751C214.604 35.6301 214.803 35.5895 214.938 35.5535L215.762 39.3783C215.501 39.4684 215.127 39.5675 214.64 39.6756C214.163 39.7837 213.577 39.8468 212.883 39.8648C211.658 39.9008 210.554 39.7161 209.572 39.3107C208.59 38.8962 207.811 38.2565 207.234 37.3915C206.666 36.5266 206.387 35.4454 206.396 34.1479V13.8481Z" fill="#3D3E3C"/>
</svg>
