<svg xmlns="http://www.w3.org/2000/svg" xmlns:xlink="http://www.w3.org/1999/xlink" viewBox="0 0 512 512" width="128px" height="128px"><path fill="#EBE3CB" d="M7.9,256C7.9,119,119,7.9,256,7.9C393,7.9,504.1,119,504.1,256c0,137-111.1,248.1-248.1,248.1C119,504.1,7.9,393,7.9,256z"/><g opacity=".22"><defs><path id="ALXI5TybpjI66CNMw0t1xa" d="M159,325.6l0.2,47.2c-32.5-22-53.1-55.6-53.6-93.3l-0.2-47.2C105.9,270,126.5,303.5,159,325.6z"/></defs><path d="M250.8 230.8L251 278 159.2 372.8 159 325.6z"/><defs><path id="ALXI5TybpjI66CNMw0t1xb" d="M159,325.6l0.2,47.2c-32.5-22-53.1-55.6-53.6-93.3l-0.2-47.2C105.9,270,126.5,303.5,159,325.6z"/></defs><path d="M105.3,232.2c-1-67.4,63.2-122.9,143.7-123.9l1.8,122.5L159,325.6C126.5,303.5,105.9,270,105.3,232.2z"/><defs><path id="ALXI5TybpjI66CNMw0t1xc" d="M159,325.6l0.2,47.2c-32.5-22-53.1-55.6-53.6-93.3l-0.2-47.2C105.9,270,126.5,303.5,159,325.6z"/></defs></g><defs><path id="ALXI5TybpjI66CNMw0t1xd" d="M159,321.6l0.2,47.2c-32.5-22-53.1-55.6-53.6-93.3l-0.2-47.2C105.9,266.1,126.5,299.6,159,321.6z"/></defs><path fill="#8E2803" d="M250.8 226.9L251 274.1 159.2 368.8 159 321.6z"/><defs><path id="ALXI5TybpjI66CNMw0t1xe" d="M159,321.6l0.2,47.2c-32.5-22-53.1-55.6-53.6-93.3l-0.2-47.2C105.9,266.1,126.5,299.6,159,321.6z"/></defs><clipPath id="ALXI5TybpjI66CNMw0t1xf"><use overflow="visible" xlink:href="#ALXI5TybpjI66CNMw0t1xe"/></clipPath><g clip-path="url(#ALXI5TybpjI66CNMw0t1xf)"><path fill="#732003" d="M159,321.6l0.2,47.2c-32.5-22-53.1-55.6-53.6-93.3l-0.2-47.2C105.9,266.1,126.5,299.6,159,321.6"/></g><g><path fill="#CC3905" d="M105.3,228.3c-1-67.4,63.2-122.9,143.7-123.9l1.8,122.5L159,321.6C126.5,299.6,105.9,266.1,105.3,228.3z"/></g><g><defs><path id="ALXI5TybpjI66CNMw0t1xg" d="M159,321.6l0.2,47.2c-32.5-22-53.1-55.6-53.6-93.3l-0.2-47.2C105.9,266.1,126.5,299.6,159,321.6z"/></defs></g><g><g opacity=".22"><defs><path id="ALXI5TybpjI66CNMw0t1xh" d="M396.6,228.5l0.2,47.2c0.6,37.6-19,71.5-50.6,94.2l-0.2-47.2C377.6,299.9,397.1,266.1,396.6,228.5z"/></defs><path d="M250.8 230.4L251 277.6 249.4 155.3 249.2 108.1z"/><path d="M346 322.7L346.2 369.9 251 277.6 250.8 230.4z"/><defs><path id="ALXI5TybpjI66CNMw0t1xi" d="M396.6,228.5l0.2,47.2c0.6,37.6-19,71.5-50.6,94.2l-0.2-47.2C377.6,299.9,397.1,266.1,396.6,228.5z"/></defs><clipPath id="ALXI5TybpjI66CNMw0t1xj"><use overflow="visible" xlink:href="#ALXI5TybpjI66CNMw0t1xi"/></clipPath><path d="M396.6,228.5l0.2,47.2c0,1.5,0,3.1,0,4.6l-0.2-47.2C396.6,231.6,396.6,230,396.6,228.5" clip-path="url(#ALXI5TybpjI66CNMw0t1xj)"/><path d="M249.2,108.1c81.2-0.8,146.4,53,147.4,120.4c0.6,37.6-19,71.5-50.6,94.2l-95.2-92.3L249.2,108.1z"/><g><defs><path id="ALXI5TybpjI66CNMw0t1xk" d="M396.6,228.5l0.2,47.2c0.6,37.6-19,71.5-50.6,94.2l-0.2-47.2C377.6,299.9,397.1,266.1,396.6,228.5z"/></defs></g></g><defs><path id="ALXI5TybpjI66CNMw0t1xl" d="M396.6,224.5l0.2,47.2c0.6,37.6-19,71.5-50.6,94.2l-0.2-47.2C377.6,296,397.1,262.1,396.6,224.5z"/></defs><path fill="#5F1E0E" d="M250.8 226.5L251 273.7 249.4 151.4 249.2 104.2z"/><path fill="#5F1E0E" d="M346 318.8L346.2 366 251 273.7 250.8 226.5z"/><defs><path id="ALXI5TybpjI66CNMw0t1xm" d="M396.6,224.5l0.2,47.2c0.6,37.6-19,71.5-50.6,94.2l-0.2-47.2C377.6,296,397.1,262.1,396.6,224.5z"/></defs><clipPath id="ALXI5TybpjI66CNMw0t1xn"><use overflow="visible" xlink:href="#ALXI5TybpjI66CNMw0t1xm"/></clipPath><g clip-path="url(#ALXI5TybpjI66CNMw0t1xn)"><path fill="#6E2210" d="M396.6,224.5l0.2,47.2c0,1.5,0,3.1,0,4.6l-0.2-47.2C396.6,227.6,396.6,226.1,396.6,224.5"/><path fill="#712311" d="M396.5,229.2l0.2,47.2c-1,35.7-20.3,67.8-50.5,89.6l-0.2-47.2C376.3,297,395.5,264.9,396.5,229.2"/></g><g><path fill="#AE361A" d="M249.2,104.2c81.2-0.8,146.4,53,147.4,120.4c0.6,37.6-19,71.5-50.6,94.2l-95.2-92.3L249.2,104.2z"/></g><g><defs><path id="ALXI5TybpjI66CNMw0t1xo" d="M396.6,224.5l0.2,47.2c0.6,37.6-19,71.5-50.6,94.2l-0.2-47.2C377.6,296,397.1,262.1,396.6,224.5z"/></defs></g></g><g><g opacity=".22"><defs><path id="ALXI5TybpjI66CNMw0t1xp" d="M345.4,338.5l0.2,47.2c-25.1,18.1-57.6,29.2-93.2,29.7c-35.5,0.4-68.1-9.8-93.6-27.2l-0.2-47.2c25.5,17.3,58.2,27.6,93.7,27.2C287.8,367.8,320.3,356.6,345.4,338.5z"/></defs><path d="M250.7,246.3l94.6,92.3c-25.1,18.1-57.6,29.2-93.2,29.6c-35.5,0.4-68.1-9.8-93.7-27.2L250.7,246.3z"/></g><defs><path id="ALXI5TybpjI66CNMw0t1xq" d="M345.4,334.6l0.2,47.2c-25.1,18.1-57.6,29.2-93.2,29.7c-35.5,0.4-68.1-9.8-93.6-27.2l-0.2-47.2c25.5,17.3,58.2,27.6,93.7,27.2C287.8,363.8,320.3,352.7,345.4,334.6z"/></defs><defs><path id="ALXI5TybpjI66CNMw0t1xr" d="M345.4,334.6l0.2,47.2c-25.1,18.1-57.6,29.2-93.2,29.7c-35.5,0.4-68.1-9.8-93.6-27.2l-0.2-47.2c25.5,17.3,58.2,27.6,93.7,27.2C287.8,363.8,320.3,352.7,345.4,334.6z"/></defs><clipPath id="ALXI5TybpjI66CNMw0t1xs"><use overflow="visible" xlink:href="#ALXI5TybpjI66CNMw0t1xr"/></clipPath><path fill="#999" d="M345.4,334.6c-0.3,0.2-0.6,0.4-0.9,0.6c-8.8,6.3-18.6,11.7-29,16.1c-9,3.8-18.5,6.8-28.4,9c-10.5,2.3-21.5,3.7-32.8,3.9c-0.7,0-1.5,0-2.2,0c-35.5,0.4-68.1-9.8-93.7-27.2l0.2,47.2c25.5,17.3,58.2,27.6,93.6,27.2c0.7,0,1.5,0,2.2,0c11.3-0.3,22.3-1.6,32.8-3.9c9.9-2.2,19.4-5.2,28.4-9c10.4-4.4,20.2-9.8,29-16.1c0.3-0.2,0.6-0.4,0.8-0.6L345.4,334.6z" clip-path="url(#ALXI5TybpjI66CNMw0t1xs)"/><g><path fill="#D7D7D7" d="M250.7,242.3l94.6,92.3c-25.1,18.1-57.6,29.2-93.2,29.6c-35.5,0.4-68.1-9.8-93.7-27.2L250.7,242.3z"/></g><g><defs><path id="ALXI5TybpjI66CNMw0t1xt" d="M345.4,334.6l0.2,47.2c-25.1,18.1-57.6,29.2-93.2,29.7c-35.5,0.4-68.1-9.8-93.6-27.2l-0.2-47.2c25.5,17.3,58.2,27.6,93.7,27.2C287.8,363.8,320.3,352.7,345.4,334.6z"/></defs></g></g></svg>