<svg xmlns="http://www.w3.org/2000/svg" width="37.506" height="36.416" viewBox="0 0 37.506 36.416">
  <g id="bx-pen" transform="translate(-0.884 -0.774)">
    <path id="Shape" d="M5.067,32.54a1.707,1.707,0,0,1-1.193-.477L.494,28.81A1.592,1.592,0,0,1,.1,27.1l6.759-17.9A1.687,1.687,0,0,1,8.445,8.135H16.2l3.727-3.589L24.13.478A1.762,1.762,0,0,1,25.326,0a1.712,1.712,0,0,1,1.193.475l6.775,6.5a1.579,1.579,0,0,1,0,2.3l-4.224,4.078-3.731,3.592v7.462a1.632,1.632,0,0,1-1.111,1.527L5.646,32.441A1.736,1.736,0,0,1,5.067,32.54Zm9.162-11.4-7.892,7.6,15.627-5.471v-7a1.581,1.581,0,0,1,.5-1.15L25.488,12.2,21.119,8l-3.03,2.917a1.7,1.7,0,0,1-1.194.477H9.63L3.947,26.438l7.892-7.6c0-.018,0-.036-.006-.055a.465.465,0,0,1-.008-.072,2.536,2.536,0,1,1,2.534,2.44.493.493,0,0,1-.059,0l-.013,0c-.02,0-.04-.005-.059-.006Zm11.1-17.211h0L23.506,5.693,27.876,9.9l1.835-1.771-4.379-4.2Z" transform="translate(4.849 0.774) rotate(7)" fill="#f5b803"/>
  </g>
</svg>
