<svg version="1.1" id="Layer_1" xmlns="http://www.w3.org/2000/svg" xmlns:xlink="http://www.w3.org/1999/xlink" x="0px" y="0px"
	 width="100%" viewBox="0 0 6000 4000" enable-background="new 0 0 6000 4000" xml:space="preserve">
<path fill="#8C8C8E" opacity="1.000000" stroke="none" 
	d="
M3013.036621,4003.017090 
	C2009.670776,4004.000000 1007.341492,4004.000000 4.000000,4004.000000 
	C4.000000,3275.916748 4.000000,2547.833008 4.000000,1817.874634 
	C11.566721,1803.726196 22.963669,1796.017944 35.277634,1789.194824 
	C213.577881,1690.398560 392.133453,1592.063354 570.411743,1493.228638 
	C761.506775,1387.288574 952.602722,1281.348877 1143.716064,1175.442261 
	C1271.902100,1104.407227 1400.195679,1033.562988 1528.413208,962.583069 
	C1533.550171,959.739319 1539.440186,957.791565 1542.382080,952.069519 
	C1540.098877,944.648926 1533.904785,946.319458 1529.033081,945.954834 
	C1477.937378,942.130615 1427.502930,932.482605 1376.431274,928.581604 
	C1338.616211,925.693176 1301.082886,920.071472 1263.220459,917.582031 
	C1249.028687,916.648926 1231.758667,918.404663 1225.047241,901.992371 
	C1218.017822,884.802673 1232.553711,874.770081 1243.225220,865.444641 
	C1303.895264,812.427551 1363.567017,758.289307 1424.073486,705.089905 
	C1469.068359,665.528931 1513.734985,625.590881 1558.471191,585.734497 
	C1602.213135,546.763977 1645.749268,507.556274 1690.594849,469.840759 
	C1697.995117,463.617188 1705.392822,457.701263 1715.559692,463.633698 
	C1726.322388,469.913971 1725.945801,480.332184 1723.483154,490.204529 
	C1711.712280,537.392700 1698.784912,584.282776 1686.256714,631.275330 
	C1662.227905,721.406189 1638.032104,811.493042 1614.238525,901.685791 
	C1606.688110,930.306519 1608.938477,935.156616 1634.798950,950.166199 
	C1770.196899,1028.751831 1904.865723,1108.581665 2040.154419,1187.356445 
	C2178.325439,1267.809692 2316.018066,1349.087891 2454.035889,1429.807495 
	C2650.140137,1544.499146 2846.165039,1659.325439 3042.263428,1774.026978 
	C3119.322998,1819.100220 3196.651367,1863.717163 3273.315918,1909.460571 
	C3290.930908,1919.970825 3306.048828,1934.364746 3325.053467,1942.885132 
	C3331.112061,1945.601562 3336.606201,1949.523438 3344.963379,1950.192261 
	C3371.606445,1967.804199 3398.269775,1982.862549 3424.594971,1998.438843 
	C3443.883545,2009.851685 3452.397461,2008.629272 3469.692627,1994.247559 
	C3610.489258,1877.169312 3751.318359,1760.126465 3891.884033,1642.776245 
	C3979.733154,1569.435547 4068.222168,1496.836304 4155.095703,1422.321533 
	C4159.091309,1418.894287 4162.987793,1415.121582 4169.532227,1412.813477 
	C4184.160156,1411.303589 4186.444336,1397.876831 4194.787598,1391.086670 
	C4231.989258,1360.810303 4267.729980,1328.692993 4305.767090,1299.497437 
	C4328.003906,1282.429321 4341.221191,1262.260132 4348.444336,1234.773926 
	C4386.891602,1088.463135 4431.054199,943.741089 4472.035645,798.126404 
	C4536.666992,568.480408 4602.386719,339.141235 4666.269531,109.283165 
	C4673.761230,82.326981 4681.442871,55.405449 4689.264160,28.532372 
	C4691.748047,19.997993 4695.041504,12.240546 4702.884766,5.120846 
	C4737.416992,4.000000 4770.833984,4.000000 4806.125488,4.000000 
	C4866.042480,39.980328 4913.889160,88.703186 4966.559082,131.376389 
	C5054.261719,202.432419 5139.496582,276.484711 5226.295898,348.651978 
	C5242.194336,361.870697 5262.336426,371.799896 5270.584473,394.335449 
	C5268.346191,408.562042 5259.283203,416.678589 5250.652344,424.994263 
	C5168.137207,504.491760 5086.040527,584.422058 5003.835449,664.237244 
	C4920.193848,745.447021 4836.632812,826.760925 4751.894043,906.798462 
	C4712.634766,943.880066 4675.275391,982.818481 4635.900879,1019.699097 
	C4599.443848,1053.846802 4562.648438,1087.688843 4527.269043,1122.901001 
	C4482.430664,1167.527100 4435.883301,1210.362427 4391.203125,1255.116943 
	C4373.379395,1272.970703 4374.399902,1281.348755 4395.142090,1296.503052 
	C4495.208984,1369.611694 4597.201172,1440.118530 4696.005371,1514.902954 
	C4797.476074,1591.706665 4901.061523,1665.546753 5004.043945,1740.236572 
	C5179.327637,1867.364868 5353.836914,1995.562012 5530.002930,2121.476807 
	C5556.999512,2140.773193 5583.588379,2160.338623 5607.478027,2184.137695 
	C5635.247559,2211.802002 5670.327148,2231.148193 5701.978027,2254.454346 
	C5707.873535,2258.795410 5714.045898,2262.725586 5719.333008,2267.908203 
	C5735.485840,2283.742432 5736.911621,2291.263672 5724.107910,2309.380615 
	C5689.494629,2358.359619 5656.185547,2408.239502 5621.643555,2457.261475 
	C5557.932129,2547.680176 5495.503418,2638.988525 5432.335938,2729.783691 
	C5302.195801,2916.842773 5172.767578,3104.396973 5042.193359,3291.154297 
	C5034.937012,3301.532471 5028.670898,3312.655029 5020.869141,3322.578613 
	C5004.152344,3343.843018 4996.622070,3365.709717 5006.689941,3393.041260 
	C5011.153320,3405.158936 5010.380371,3420.435791 4991.170410,3423.272461 
	C4990.473145,3423.375488 4990.367676,3423.659424 4991.505859,3424.642822 
	C5002.094238,3433.789062 5000.315918,3443.370361 4994.345703,3454.701416 
	C4948.071777,3542.538818 4897.378418,3627.907715 4849.551270,3714.875977 
	C4807.178223,3791.927002 4765.042480,3869.112305 4722.010742,3945.796143 
	C4710.759766,3965.845215 4702.952148,3988.693115 4681.031250,4003.017090 
	C4395.916504,4004.000000 4111.833008,4004.000000 3825.874512,4004.000000 
	C3816.004639,3998.078369 3809.132080,3992.007568 3805.121094,3981.846680 
	C3745.968262,3831.998047 3686.508057,3682.270264 3627.073975,3532.532227 
	C3612.584717,3496.028564 3598.563477,3459.330566 3583.753174,3422.953857 
	C3574.925293,3401.271240 3566.640625,3399.937256 3551.172607,3417.238281 
	C3461.614746,3517.406738 3370.903809,3616.527588 3280.523438,3715.950928 
	C3216.094971,3786.825195 3151.829102,3857.850098 3087.596680,3928.901123 
	C3070.651367,3947.645508 3052.304443,3965.200439 3036.844971,3985.222412 
	C3030.643799,3993.254150 3021.774658,3996.611572 3013.036621,4003.017090 
z"/>
<path fill="#949297" opacity="1.000000" stroke="none" 
	d="
M3345.129883,1958.784424 
	C3328.205078,1955.853516 3315.383545,1945.841431 3301.575928,1937.984741 
	C3267.429932,1918.555298 3233.922119,1898.006958 3200.063721,1878.068359 
	C3140.371094,1842.916870 3080.636963,1807.835815 3020.867432,1772.815186 
	C2950.180176,1731.397583 2879.432861,1690.082275 2808.719482,1648.708862 
	C2754.103027,1616.753662 2699.497559,1584.779541 2644.889404,1552.810303 
	C2590.281494,1520.841187 2535.678223,1488.864746 2481.069580,1456.897095 
	C2426.460938,1424.929443 2371.830811,1392.997925 2317.241455,1360.997437 
	C2255.754883,1324.953857 2194.342285,1288.784058 2132.825439,1252.792603 
	C2069.019775,1215.462036 2005.110352,1178.308472 1941.278320,1141.022705 
	C1885.496826,1108.439453 1829.758545,1075.781738 1774.003296,1043.153442 
	C1721.123413,1012.207825 1668.163330,981.397766 1615.408447,950.240601 
	C1594.502197,937.893250 1594.349609,937.445679 1600.654175,913.412354 
	C1615.361450,857.346313 1630.442627,801.378357 1645.389038,745.375183 
	C1651.402100,722.845032 1657.477539,700.331482 1663.492432,677.801819 
	C1679.302979,618.581482 1695.134766,559.366699 1710.840698,500.118561 
	C1712.540161,493.707764 1713.762085,487.131714 1714.634521,480.556580 
	C1715.076904,477.222900 1713.716675,473.930450 1710.425903,472.127075 
	C1707.037476,470.270142 1703.856079,471.411865 1701.205322,473.612396 
	C1690.965332,482.113159 1680.707153,490.601379 1670.714478,499.388550 
	C1655.225342,513.009094 1640.397583,527.423218 1624.414673,540.425598 
	C1614.557617,548.444519 1605.514038,557.206238 1596.152710,565.703003 
	C1578.423950,581.794434 1560.274780,597.422974 1542.281250,613.222107 
	C1539.280518,615.856995 1536.016479,618.210571 1533.158569,620.987000 
	C1513.094727,640.479065 1491.865601,658.637390 1470.256714,676.373901 
	C1466.660889,679.325195 1463.200195,682.522888 1460.106567,685.989990 
	C1445.835327,701.984802 1428.713501,714.817200 1412.372314,728.428040 
	C1402.621704,736.549438 1393.498535,745.235596 1384.132324,753.726440 
	C1364.423462,771.593323 1344.473633,789.203247 1324.315430,806.561768 
	C1313.725220,815.681274 1304.004395,825.690918 1293.070312,834.518616 
	C1275.494385,848.708740 1259.123779,864.408386 1242.484131,879.731018 
	C1237.645630,884.186462 1232.092407,889.216003 1234.224609,896.776917 
	C1236.421265,904.565918 1244.194946,904.712524 1250.486938,906.293213 
	C1254.328491,907.258240 1258.397339,907.792480 1262.354736,907.744507 
	C1285.787476,907.460754 1308.744995,911.712585 1331.837280,914.697754 
	C1335.138794,915.124573 1338.479126,915.864380 1341.764404,915.703064 
	C1363.854980,914.618835 1385.409790,921.011780 1407.465332,920.285583 
	C1409.445068,920.220398 1411.513062,920.377014 1413.418579,920.885681 
	C1447.735352,930.045410 1483.402832,929.140320 1518.184204,934.909119 
	C1526.657349,936.314514 1535.457031,935.753296 1544.106812,936.090759 
	C1551.467529,936.377991 1558.746948,936.964172 1565.322021,940.831482 
	C1569.063232,943.031921 1569.979858,947.864380 1567.197266,951.059937 
	C1563.171021,955.683838 1557.931030,958.609741 1552.667480,961.491089 
	C1508.854614,985.475342 1464.959229,1009.309937 1421.235474,1033.455688 
	C1376.931641,1057.921875 1332.833618,1082.760498 1288.571777,1107.303345 
	C1258.867188,1123.774536 1228.992188,1139.938354 1199.270264,1156.378662 
	C1166.637939,1174.428711 1134.122803,1192.690918 1101.502441,1210.763184 
	C1072.374634,1226.900757 1043.150513,1242.864624 1014.010010,1258.979370 
	C980.792664,1277.348877 947.635742,1295.827515 914.425049,1314.208862 
	C885.290405,1330.334106 856.087280,1346.335815 826.970032,1362.492310 
	C796.689880,1379.293945 766.476746,1396.216187 736.233704,1413.084717 
	C720.529663,1421.843872 704.847473,1430.642578 689.114746,1439.349854 
	C652.990662,1459.342896 616.879028,1479.359009 580.691650,1499.236938 
	C548.587219,1516.871948 516.315247,1534.202515 484.250641,1551.909180 
	C454.519958,1568.327026 425.000916,1585.127686 395.324249,1601.643921 
	C366.227600,1617.837158 337.043762,1633.873779 307.909149,1649.998901 
	C274.115936,1668.702515 240.352554,1687.460205 206.541061,1706.130737 
	C188.467438,1716.110840 170.291336,1725.905518 152.211960,1735.875488 
	C120.720932,1753.240845 89.380959,1770.884155 57.755238,1788.000122 
	C40.806232,1797.172852 25.227871,1808.931396 5.383842,1815.637695 
	C4.000000,1703.916382 4.000000,1591.832886 4.000000,1477.874634 
	C92.137840,1313.344360 195.081879,1159.542236 288.537506,1000.069397 
	C317.843536,950.061523 352.114685,903.257690 381.913940,853.598877 
	C396.422821,829.420654 396.433472,826.141785 378.249634,804.044800 
	C290.278107,697.141846 202.422577,590.144775 115.121422,482.693542 
	C83.643166,443.949799 51.812458,405.497437 19.963972,367.059570 
	C13.728190,359.533630 11.844554,349.676361 4.967200,341.015106 
	C4.000000,228.048904 4.000000,116.097809 4.000000,4.000000 
	C1226.750244,4.000000 2449.500488,4.000000 3674.125488,4.000000 
	C3685.190918,11.049844 3685.578369,20.725359 3684.418457,31.092098 
	C3669.608887,163.451691 3654.326416,295.757874 3639.364014,428.099152 
	C3625.523682,550.516479 3611.713867,672.939270 3597.804443,795.348816 
	C3581.113037,942.242981 3565.193359,1089.223389 3547.515869,1236.010254 
	C3538.520264,1310.706299 3532.824951,1385.864014 3521.531250,1460.232788 
	C3510.023926,1536.006226 3503.311035,1612.284546 3493.323242,1688.193115 
	C3490.824951,1707.177734 3482.502686,1723.418945 3469.928467,1738.056152 
	C3424.774414,1790.616699 3376.080811,1839.977905 3331.014893,1892.621704 
	C3312.406982,1914.358643 3312.322266,1919.946411 3334.607910,1937.000244 
	C3341.302490,1942.123169 3350.091064,1946.307007 3345.129883,1958.784424 
z"/>
<path fill="#949297" opacity="1.000000" stroke="none" 
	d="
M4681.875000,4004.000000 
	C4682.471191,3997.835938 4684.289551,3991.304199 4687.519531,3985.567627 
	C4707.125488,3950.746338 4727.321777,3916.256592 4746.797363,3881.363770 
	C4765.301270,3848.211670 4783.027344,3814.626709 4801.347656,3781.371094 
	C4816.772949,3753.370850 4832.589844,3725.586914 4848.176270,3697.675537 
	C4857.917480,3680.230957 4867.488770,3662.691650 4877.247559,3645.256836 
	C4897.413086,3609.231201 4917.792480,3573.325439 4937.818359,3537.222656 
	C4953.972656,3508.099365 4969.736328,3478.759277 4985.673828,3449.515869 
	C4986.630371,3447.760742 4987.723633,3446.066650 4988.527344,3444.244385 
	C4992.037109,3436.287598 4989.095215,3431.205078 4980.527344,3430.497803 
	C4976.557617,3430.169922 4972.494629,3430.515137 4968.603516,3429.824463 
	C4964.801758,3429.149902 4958.626953,3428.964600 4958.483887,3425.030762 
	C4958.232422,3418.107910 4965.143555,3420.795410 4969.170898,3419.946289 
	C4975.666992,3418.577393 4982.399414,3418.115479 4988.738770,3416.266357 
	C4997.565918,3413.691895 5000.326172,3408.732910 4998.444336,3399.475342 
	C4997.121094,3392.965088 4995.287598,3386.496582 4993.011230,3380.253906 
	C4986.975586,3363.699707 4990.394531,3349.122803 5000.455078,3335.080078 
	C5010.929688,3320.458740 5020.320312,3305.065918 5030.571777,3290.278564 
	C5073.467285,3228.405762 5116.517578,3166.640625 5159.491211,3104.822021 
	C5192.576660,3057.226807 5225.672852,3009.638672 5258.690430,2961.996338 
	C5306.889648,2892.448242 5354.998535,2822.837402 5403.194824,2753.287109 
	C5436.590820,2705.095947 5470.066406,2656.960205 5503.511230,2608.803223 
	C5536.575684,2561.193359 5569.585938,2513.545654 5602.730957,2465.991943 
	C5639.684570,2412.974854 5676.765137,2360.045898 5713.781738,2307.072754 
	C5715.308594,2304.888184 5716.855469,2302.706543 5718.208984,2300.414551 
	C5724.025391,2290.566406 5723.633789,2285.824463 5715.112305,2277.493896 
	C5710.384766,2272.872314 5704.892578,2268.985107 5699.516602,2265.081055 
	C5668.790527,2242.766113 5638.040039,2220.483887 5607.188477,2198.342773 
	C5600.611328,2193.622314 5594.843750,2188.319824 5590.213379,2181.629395 
	C5584.843750,2173.869873 5577.570801,2168.076416 5569.924805,2162.579834 
	C5524.486328,2129.912598 5479.211914,2097.017334 5433.812988,2064.295410 
	C5380.306152,2025.730103 5326.566406,1987.485718 5273.239258,1948.674805 
	C5238.236816,1923.200439 5202.590820,1898.616821 5168.612305,1871.705811 
	C5148.790039,1856.006470 5127.492188,1842.178101 5106.977539,1827.342163 
	C5066.500000,1798.068604 5026.146484,1768.622925 4985.664551,1739.355103 
	C4946.791992,1711.251099 4907.788574,1683.328491 4868.905273,1655.238647 
	C4835.421875,1631.049683 4802.366211,1606.251831 4768.463379,1582.668335 
	C4749.259277,1569.309692 4732.479004,1553.064575 4713.637207,1539.386597 
	C4674.281250,1510.816528 4634.683594,1482.579712 4595.254883,1454.109375 
	C4572.568359,1437.728271 4550.074707,1421.080322 4527.394043,1404.691162 
	C4487.435059,1375.815918 4447.371582,1347.085693 4407.412598,1318.210083 
	C4395.532227,1309.625366 4383.842773,1300.775879 4372.099121,1292.003296 
	C4369.971191,1290.413330 4367.833984,1288.772095 4365.997559,1286.868286 
	C4361.143555,1281.836426 4360.285156,1275.985107 4364.547852,1270.624512 
	C4371.995605,1261.258301 4378.878418,1250.939453 4388.035645,1243.541626 
	C4406.805664,1228.377563 4422.735840,1210.442261 4440.065430,1193.893677 
	C4455.467773,1179.185425 4469.358887,1162.865234 4486.971191,1150.518799 
	C4490.207031,1148.250488 4493.058105,1145.282837 4495.642578,1142.258301 
	C4522.506836,1110.819458 4553.291504,1083.140015 4583.582520,1055.354492 
	C4631.754395,1011.167480 4675.852539,962.909180 4723.948730,918.821716 
	C4749.997070,894.944397 4773.979980,868.895264 4800.688477,845.935791 
	C4840.717285,811.526489 4875.033203,771.346985 4914.226562,736.297913 
	C4957.993652,697.157715 4997.075684,653.237366 5040.664062,614.135071 
	C5083.893066,575.355286 5122.893555,532.425049 5165.344727,493.003418 
	C5193.165039,467.168274 5221.183105,441.580017 5247.629883,414.327698 
	C5252.726074,409.076202 5257.561523,403.571716 5263.268555,397.086548 
	C5272.890625,387.956207 5279.801270,393.484039 5286.647949,399.282593 
	C5343.921387,447.791138 5402.022949,495.318604 5459.220215,543.909180 
	C5529.590332,603.690430 5600.713379,662.564575 5671.399902,721.962830 
	C5695.237793,741.994080 5718.227051,763.079468 5744.845703,781.724121 
	C5745.770508,785.183105 5746.134766,787.219482 5746.233398,790.833069 
	C5741.182129,802.900757 5745.369629,813.553894 5746.145508,823.921387 
	C5751.556152,896.239197 5756.102539,968.624451 5760.732910,1040.982910 
	C5763.918945,1090.775635 5766.838379,1140.620972 5770.230469,1190.402100 
	C5773.893555,1244.162354 5776.584961,1297.983398 5780.580078,1351.733032 
	C5784.080566,1398.823853 5786.416016,1446.039917 5789.912598,1493.156982 
	C5795.525879,1568.794800 5798.634277,1644.584473 5804.732910,1720.208862 
	C5808.687988,1769.258057 5810.159180,1818.532104 5813.808105,1867.647827 
	C5819.575684,1945.275024 5823.421387,2023.028564 5828.669922,2100.694824 
	C5832.078125,2151.129883 5836.366211,2201.567383 5837.844727,2252.132324 
	C5838.604004,2278.086182 5842.302246,2303.794922 5842.409668,2329.874268 
	C5842.497070,2351.140137 5836.447266,2368.205322 5823.430664,2384.738770 
	C5753.359375,2473.746094 5684.451660,2563.663086 5614.920410,2653.094971 
	C5439.047852,2879.305420 5263.780762,3105.985596 5087.764160,3332.084473 
	C5070.165527,3354.690186 5053.632324,3378.234375 5034.962891,3399.882324 
	C5018.821777,3418.598145 5017.104492,3436.269043 5026.887207,3458.456787 
	C5063.984863,3542.599121 5100.406738,3627.042480 5137.054199,3711.384766 
	C5176.090332,3801.225342 5215.012207,3891.114502 5253.513184,3981.185303 
	C5256.334473,3987.784912 5260.489746,3994.597412 5253.094727,4002.807129 
	C5062.583008,4004.000000 4873.166016,4004.000000 4681.875000,4004.000000 
z"/>
<path fill="#9A989D" opacity="1.000000" stroke="none" 
	d="
M5253.874512,4004.000000 
	C5245.856934,3989.258545 5239.882812,3974.444092 5233.542969,3959.787842 
	C5206.298340,3896.804688 5178.889160,3833.892578 5151.651855,3770.906250 
	C5132.347168,3726.265137 5113.345215,3681.492920 5093.983887,3636.876709 
	C5074.357910,3591.649902 5054.421875,3546.557861 5034.689941,3501.376953 
	C5025.889648,3481.227295 5017.531738,3460.879639 5008.432617,3440.867432 
	C5003.722168,3430.507812 5005.018555,3421.967041 5012.126953,3413.177246 
	C5024.271484,3398.160400 5035.682617,3382.553467 5047.526855,3367.291504 
	C5076.933105,3329.399902 5106.385254,3291.543701 5135.864746,3253.709473 
	C5178.444336,3199.062500 5221.140625,3144.506348 5263.640625,3089.797852 
	C5290.206543,3055.601074 5316.381348,3021.100098 5342.950195,2986.905762 
	C5385.864258,2931.675049 5429.014648,2876.628174 5471.947754,2821.411865 
	C5488.714355,2799.848389 5505.017578,2777.923828 5521.786621,2756.361816 
	C5565.134766,2700.624023 5608.703613,2645.058105 5652.026855,2589.301514 
	C5677.778320,2556.159668 5703.153809,2522.726318 5728.840332,2489.533691 
	C5756.970703,2453.183105 5785.268066,2416.961914 5813.478516,2380.673340 
	C5815.932129,2377.517090 5818.025879,2374.043945 5820.722656,2371.120361 
	C5829.929199,2361.140381 5832.579102,2349.328613 5832.121582,2336.076416 
	C5831.432617,2316.127686 5833.005859,2296.115723 5828.893555,2276.292236 
	C5827.560059,2269.862061 5828.087891,2263.012939 5828.047363,2256.353760 
	C5827.961914,2242.356689 5828.354492,2228.346680 5825.096680,2214.564697 
	C5824.488770,2211.993896 5824.287598,2209.274170 5824.281250,2206.622314 
	C5824.233887,2186.623291 5822.407227,2166.780029 5820.690918,2146.857422 
	C5818.810059,2125.026367 5818.627441,2103.052246 5816.582520,2081.131104 
	C5814.794922,2061.972900 5815.757324,2042.556641 5812.414551,2023.417358 
	C5811.508789,2018.227905 5812.032715,2012.776367 5812.024414,2007.444946 
	C5812.000000,1992.118408 5812.534668,1976.760376 5808.932129,1961.673340 
	C5808.624512,1960.386353 5808.418945,1959.020020 5808.484863,1957.706787 
	C5809.937012,1928.978882 5804.896484,1900.604614 5803.763184,1872.000610 
	C5802.473633,1839.458496 5799.359863,1806.988525 5797.026367,1774.488037 
	C5796.931152,1773.160645 5796.519531,1771.835449 5796.568359,1770.520874 
	C5797.634277,1741.811157 5792.641602,1713.429810 5791.923828,1684.812012 
	C5791.707031,1676.184082 5790.598145,1667.574951 5789.790527,1658.967285 
	C5789.479004,1655.654785 5788.482910,1652.373657 5788.456543,1649.072754 
	C5788.251465,1623.757202 5785.442871,1598.529785 5784.707520,1573.336304 
	C5783.831543,1543.347900 5778.351074,1513.679443 5779.676270,1483.636597 
	C5773.567383,1456.135498 5778.052734,1427.746216 5772.572754,1400.119751 
	C5770.915039,1391.762451 5772.029785,1382.839233 5772.021484,1374.175049 
	C5772.012695,1364.826050 5771.789062,1355.512085 5769.711914,1346.336670 
	C5769.271484,1344.390137 5768.713867,1342.383057 5768.777344,1340.422241 
	C5769.708496,1311.711426 5763.984375,1283.373413 5764.027832,1254.720093 
	C5764.048340,1241.381348 5764.253418,1228.041260 5761.119141,1214.934204 
	C5760.811035,1213.645142 5760.561035,1212.287720 5760.612793,1210.974976 
	C5761.711914,1182.925293 5755.863770,1155.258667 5756.018555,1127.265869 
	C5756.073730,1117.247925 5755.814941,1107.269409 5753.550293,1097.442627 
	C5753.102539,1095.500488 5752.622070,1093.482910 5752.688477,1091.518066 
	C5753.679688,1062.143555 5748.202148,1033.115112 5748.043945,1003.811401 
	C5747.979004,991.801819 5747.795898,979.863831 5745.398438,967.990662 
	C5744.222168,962.167664 5744.139648,956.063904 5744.099609,950.083496 
	C5744.009277,936.741699 5742.424316,923.545227 5741.352539,910.282104 
	C5738.675293,877.139038 5737.669922,843.859497 5736.101074,810.629700 
	C5735.849609,805.293030 5736.360352,799.963562 5739.281250,793.478638 
	C5752.223145,786.452087 5760.158691,795.543823 5767.604492,801.684387 
	C5814.253418,840.156250 5861.795898,877.530640 5908.147461,916.365112 
	C5931.066895,935.568054 5954.214355,954.509094 5977.608398,973.122864 
	C5987.807129,981.237976 5996.526367,990.092102 6003.018555,1002.967346 
	C6004.000000,2003.533569 6004.000000,3003.067139 6004.000000,4004.000000 
	C5754.584961,4004.000000 5505.166992,4004.000000 5253.874512,4004.000000 
z"/>
<path fill="#9A989D" opacity="1.000000" stroke="none" 
	d="
M3344.961426,1960.949463 
	C3340.248779,1950.530029 3331.608154,1946.548706 3323.580566,1941.833374 
	C3316.706543,1937.795654 3309.530762,1934.121338 3303.208740,1929.334717 
	C3296.069824,1923.929565 3295.685547,1917.448608 3300.836182,1910.084106 
	C3301.976318,1908.453979 3303.214355,1906.822144 3304.688965,1905.506958 
	C3322.649414,1889.486206 3338.084961,1870.949463 3352.929443,1852.317627 
	C3372.922119,1827.224243 3397.358643,1806.477539 3417.573730,1781.606567 
	C3431.340820,1764.668701 3446.601318,1748.699341 3461.536621,1732.620483 
	C3474.807373,1718.333130 3481.844238,1701.741089 3483.869141,1682.552368 
	C3486.731689,1655.427856 3489.965820,1628.342407 3493.040283,1601.240234 
	C3495.363525,1580.757568 3497.224854,1560.209106 3500.133057,1539.809814 
	C3503.415039,1516.786621 3504.228760,1493.484375 3509.858398,1470.683960 
	C3513.502197,1455.925537 3514.150146,1440.418091 3516.003418,1425.229614 
	C3517.534180,1412.683350 3518.802979,1400.105103 3520.295410,1387.553955 
	C3523.829346,1357.833984 3527.607910,1328.141846 3530.933350,1298.398804 
	C3533.001953,1279.894775 3534.126465,1261.284790 3536.208496,1242.782471 
	C3539.109863,1216.997192 3542.677490,1191.287354 3545.654785,1165.510010 
	C3549.317627,1133.799072 3552.598145,1102.044189 3556.172607,1070.322876 
	C3559.152344,1043.879150 3562.350342,1017.460022 3565.391113,991.023132 
	C3567.671143,971.202881 3569.877441,951.374146 3572.073975,931.544495 
	C3573.831787,915.675964 3575.389160,899.784058 3577.274170,883.930847 
	C3581.986816,844.299072 3587.108887,804.714050 3591.539551,765.051392 
	C3594.935547,734.650574 3597.110352,704.112305 3600.581787,673.721313 
	C3604.960449,635.387512 3610.352051,597.170105 3614.840576,558.847900 
	C3618.322510,529.122070 3620.924805,499.294312 3624.219971,469.545288 
	C3627.514648,439.797821 3631.268066,410.101379 3634.666260,380.364960 
	C3637.913818,351.946381 3640.917725,323.500031 3644.129150,295.077240 
	C3644.950684,287.807465 3646.329346,280.600616 3647.147705,273.330566 
	C3650.125000,246.891937 3652.892578,220.429611 3655.890381,193.993378 
	C3659.487793,162.271164 3663.440430,130.588135 3666.868652,98.848129 
	C3670.153320,68.437241 3672.964355,37.975170 3675.991699,5.767798 
	C3732.083496,4.000000 3788.167236,4.000000 3846.125488,4.000000 
	C3857.685303,10.825223 3862.633301,20.807610 3866.798828,31.484186 
	C3923.445801,176.677261 3980.053711,321.885895 4037.586670,466.731293 
	C4090.934814,601.041321 4145.232422,735.034973 4195.547852,870.460083 
	C4224.980469,949.679016 4252.990234,1029.446045 4284.520020,1107.894287 
	C4290.727539,1123.338501 4288.251953,1138.081787 4282.535645,1152.590576 
	C4252.018555,1230.049683 4223.213379,1308.162109 4193.249512,1385.831299 
	C4188.717285,1397.579346 4181.067871,1407.473999 4173.012207,1418.856079 
	C4157.101074,1436.269287 4139.007324,1448.911377 4122.478027,1463.327881 
	C4103.931641,1479.503662 4084.788086,1494.996460 4065.843262,1510.712769 
	C4030.503906,1540.029541 3995.107910,1569.278076 3959.760254,1598.584595 
	C3943.389893,1612.157104 3927.069336,1625.789429 3910.740479,1639.411255 
	C3889.278076,1657.315674 3867.826416,1675.232910 3846.375488,1693.150757 
	C3818.792725,1716.191040 3791.220947,1739.244385 3763.633057,1762.278687 
	C3736.045166,1785.313354 3708.452637,1808.342896 3680.844727,1831.353760 
	C3660.395264,1848.398315 3639.909912,1865.399780 3619.455811,1882.438721 
	C3591.843262,1905.440552 3564.247070,1928.462524 3536.639648,1951.470581 
	C3516.189209,1968.513794 3495.498291,1985.277588 3475.340088,2002.659424 
	C3452.552002,2022.308472 3447.626221,2023.675781 3422.568604,2008.847534 
	C3396.793213,1993.594604 3370.425049,1979.255249 3344.961426,1960.949463 
z"/>
<path fill="#9A989D" opacity="1.000000" stroke="none" 
	d="
M5741.543945,785.323853 
	C5729.523438,783.377747 5721.333984,777.551086 5713.664551,771.079956 
	C5685.178223,747.043518 5656.997070,722.644348 5628.424316,698.711609 
	C5600.359375,675.204224 5571.874512,652.199890 5543.734863,628.781250 
	C5524.294922,612.602722 5505.179688,596.034424 5485.828125,579.748657 
	C5454.767090,553.608459 5423.576660,527.620911 5392.540039,501.451477 
	C5363.535156,476.995422 5334.958496,452.021027 5305.589355,428.013977 
	C5292.750977,417.519470 5281.361328,405.077545 5265.228516,396.598877 
	C5260.489746,392.031677 5257.391113,387.556641 5253.360352,384.200287 
	C5226.302734,361.667206 5198.947266,339.490692 5171.886230,316.960632 
	C5151.973633,300.382050 5132.426758,283.364410 5112.601074,266.680573 
	C5082.101562,241.014450 5051.492188,215.479141 5020.948730,189.865219 
	C4993.455566,166.808746 4966.008789,143.695496 4938.501953,120.654831 
	C4908.961914,95.910675 4879.383789,71.212425 4849.805176,46.514454 
	C4840.113281,38.421898 4830.291992,30.482073 4820.677246,22.298565 
	C4815.600098,17.977041 4810.851074,13.273895 4808.365234,5.317759 
	C5206.309570,4.000000 5604.619629,4.000000 6004.000000,4.000000 
	C6004.000000,256.082581 6004.000000,508.166656 6004.000000,762.125366 
	C5989.892090,778.664551 5970.590332,775.488525 5953.448242,777.192139 
	C5897.365723,782.765686 5841.178711,787.342529 5785.078125,792.826660 
	C5770.625488,794.239441 5755.974609,795.509644 5741.543945,785.323853 
z"/>
<path fill="#949297" opacity="1.000000" stroke="none" 
	d="
M4173.301270,1419.586304 
	C4173.629395,1401.679565 4182.451172,1385.622559 4188.694336,1368.872925 
	C4212.187988,1305.847778 4236.538574,1243.141846 4260.621094,1180.337036 
	C4264.913574,1169.142822 4269.607910,1158.101685 4273.854980,1146.890869 
	C4279.004883,1133.297974 4278.889648,1120.210693 4273.177734,1106.223999 
	C4252.028320,1054.430786 4231.679688,1002.307739 4211.335449,950.189636 
	C4207.475586,940.301514 4204.629883,929.967102 4201.982422,919.667297 
	C4197.827148,903.504883 4192.656250,887.743286 4186.470215,872.232544 
	C4160.808105,807.890381 4135.315430,743.480164 4109.953613,679.019043 
	C4088.255127,623.869812 4066.984131,568.552185 4045.229980,513.425049 
	C4012.471924,430.412048 3979.276855,347.571320 3946.604492,264.524719 
	C3915.637939,185.812698 3885.059326,106.947975 3854.463135,28.090939 
	C3851.830811,21.306492 3850.349854,14.075352 3848.166992,5.525854 
	C4132.083496,4.000000 4416.167480,4.000000 4702.125488,4.000000 
	C4703.921875,14.803994 4700.892090,25.065437 4698.007812,35.314152 
	C4690.070312,63.521740 4681.848633,91.649513 4673.917969,119.858910 
	C4658.595703,174.360718 4643.465332,228.916275 4628.128418,283.413879 
	C4611.710449,341.755310 4595.077637,400.036438 4578.660645,458.378174 
	C4553.404297,548.132751 4528.291504,637.927612 4503.042480,727.684265 
	C4485.367676,790.516174 4468.569824,853.618286 4449.553711,916.043152 
	C4428.779297,984.238892 4409.780762,1052.912598 4390.545410,1121.533691 
	C4379.760254,1160.009644 4368.688965,1198.405640 4357.974609,1236.901123 
	C4355.480469,1245.864380 4353.581055,1255.030029 4352.034668,1264.208252 
	C4350.862305,1271.163696 4347.906738,1276.504150 4342.443359,1281.037354 
	C4319.399902,1300.157349 4296.599121,1319.569336 4273.639160,1338.790283 
	C4252.721680,1356.300659 4231.926270,1373.967163 4210.661621,1391.046997 
	C4198.783691,1400.587402 4188.298340,1411.959839 4173.301270,1419.586304 
z"/>
<path fill="#9A989D" opacity="1.000000" stroke="none" 
	d="
M3013.874512,4004.000000 
	C3017.011475,3989.704590 3027.905762,3979.510742 3037.578613,3968.711426 
	C3057.563721,3946.399414 3078.603516,3925.035645 3098.756592,3902.869629 
	C3115.315918,3884.656250 3131.220459,3865.847412 3147.414062,3847.302002 
	C3148.729004,3845.796143 3149.991455,3844.241943 3151.354980,3842.781738 
	C3171.802734,3820.883545 3192.489746,3799.203369 3212.655273,3777.048584 
	C3231.466064,3756.382324 3249.725830,3735.214844 3268.231445,3714.270996 
	C3269.555664,3712.772705 3270.885010,3711.278320 3272.247803,3709.815674 
	C3291.761963,3688.868408 3312.430176,3668.861816 3330.471680,3646.715576 
	C3347.763428,3625.490234 3369.051514,3607.960205 3384.884521,3585.547363 
	C3385.648438,3584.466064 3386.635254,3583.538574 3387.545166,3582.564697 
	C3408.001709,3560.674561 3428.688965,3538.994629 3448.851807,3516.837158 
	C3465.867920,3498.137939 3482.276123,3478.885742 3498.949951,3459.875244 
	C3499.388672,3459.374512 3499.752441,3458.806396 3500.203369,3458.318115 
	C3518.720703,3438.263428 3537.179932,3418.154541 3555.820801,3398.215576 
	C3559.432861,3394.352295 3563.537109,3390.852051 3567.817139,3387.737793 
	C3571.899414,3384.766846 3577.338867,3385.818604 3580.100098,3390.153320 
	C3582.939697,3394.611572 3585.406250,3399.401367 3587.362549,3404.314209 
	C3625.827393,3500.909424 3664.213623,3597.535889 3702.574951,3694.172607 
	C3737.489746,3782.127197 3772.395020,3870.086182 3807.204834,3958.082764 
	C3812.840576,3972.329346 3817.957520,3986.781250 3823.657227,4002.569336 
	C3554.583008,4004.000000 3285.166260,4004.000000 3013.874512,4004.000000 
z"/>
<path fill="#9A989D" opacity="1.000000" stroke="none" 
	d="
M4.000000,341.874634 
	C10.784462,341.628143 15.930017,345.659088 20.248259,350.966003 
	C40.822880,376.251282 61.359787,401.567596 82.022842,426.780457 
	C102.687965,451.995819 123.622536,476.991180 144.192551,502.283386 
	C170.223953,534.290649 195.832306,566.642700 221.949234,598.579346 
	C244.269363,625.873108 267.094910,652.753113 289.609680,679.888489 
	C302.780487,695.762268 315.802948,711.759521 328.851837,727.734131 
	C351.158752,755.042542 373.435913,782.375305 395.719360,809.702820 
	C397.821228,812.280518 400.020630,814.794556 401.928925,817.510925 
	C406.100769,823.449463 406.789154,829.825073 403.517914,836.383728 
	C401.440796,840.548340 399.228333,844.660461 396.827972,848.646423 
	C383.092255,871.455872 368.781189,893.856873 353.835846,915.936707 
	C331.456146,948.999756 310.835236,983.270691 289.955200,1017.327637 
	C253.063461,1077.500610 216.491333,1137.869751 179.877869,1198.212891 
	C150.517303,1246.602417 121.318474,1295.089966 92.001251,1343.505737 
	C68.897545,1381.660400 45.785278,1419.810425 22.521185,1457.867188 
	C18.401430,1464.606689 14.741817,1472.018188 5.282403,1475.556763 
	C4.000000,1098.583130 4.000000,721.166199 4.000000,341.874634 
z"/>
<path fill="#8C8C8E" opacity="1.000000" stroke="none" 
	d="
M5740.091797,785.428528 
	C5772.782715,784.701782 5805.084473,780.366638 5837.476562,777.063782 
	C5857.963379,774.974670 5878.526367,773.639648 5899.052734,771.933899 
	C5918.916504,770.283325 5938.891602,769.406494 5958.600098,766.640259 
	C5972.535645,764.684387 5986.373047,763.896423 6002.175781,763.983459 
	C6004.000000,842.750244 6004.000000,921.500488 6004.000000,1002.125366 
	C5990.873535,999.805420 5981.894531,989.516052 5971.679199,981.292542 
	C5922.072266,941.360535 5872.811035,900.997131 5823.525879,860.666565 
	C5796.316895,838.401001 5769.301270,815.899170 5741.099121,792.752014 
	C5740.023438,790.247314 5740.046875,788.494690 5740.091797,785.428528 
z"/>
<path fill="#949297" opacity="1.000000" stroke="none" 
	d="
M4509.714844,2982.350098 
	C4514.978516,2986.555908 4519.436523,2989.592285 4523.157715,2993.356201 
	C4545.652832,3016.109619 4570.335938,3036.375977 4594.537109,3057.222168 
	C4613.683594,3073.714111 4631.733887,3091.470947 4650.486328,3108.427979 
	C4672.189453,3128.053711 4694.159668,3147.383789 4715.954102,3166.908936 
	C4732.801270,3182.002441 4749.540039,3197.217529 4766.356445,3212.345703 
	C4789.594727,3233.250977 4812.858887,3254.127441 4836.119629,3275.007568 
	C4837.605957,3276.341553 4839.204590,3277.552002 4840.677246,3278.900391 
	C4864.724121,3300.917480 4888.770508,3322.934814 4912.786133,3344.986328 
	C4917.418457,3349.239746 4917.229004,3353.173828 4911.331543,3355.710449 
	C4903.074707,3359.260986 4896.964844,3365.192627 4890.791504,3371.279297 
	C4881.313477,3380.623779 4872.362305,3390.517334 4861.351562,3398.241211 
	C4858.163086,3400.478027 4855.012695,3403.523682 4853.269531,3406.927979 
	C4847.296875,3418.589844 4836.666016,3421.894531 4825.125977,3423.079102 
	C4809.201660,3424.713623 4793.117676,3425.136719 4777.275391,3422.754883 
	C4765.357910,3420.962646 4753.417480,3420.785400 4741.503906,3419.760010 
	C4719.612793,3417.876221 4697.839844,3416.129395 4676.000000,3419.904785 
	C4674.060059,3420.240234 4671.955078,3420.238037 4670.019531,3419.883789 
	C4644.361816,3415.191406 4618.207031,3417.293213 4592.440918,3414.149170 
	C4589.799805,3413.826904 4586.977051,3412.791992 4584.538086,3413.364990 
	C4566.536621,3417.592773 4548.821777,3413.083740 4530.962402,3412.303467 
	C4510.344727,3411.402344 4489.660156,3412.014404 4469.004395,3412.006348 
	C4453.020020,3412.000000 4437.104004,3412.030518 4421.222168,3409.069580 
	C4412.811523,3407.501709 4403.964355,3408.106689 4395.311523,3408.039307 
	C4378.654785,3407.909424 4361.996094,3407.968262 4345.338379,3408.008789 
	C4334.666504,3408.034912 4324.011230,3408.003662 4313.527832,3405.557373 
	C4311.588379,3405.104248 4309.591309,3404.788574 4307.604492,3404.660645 
	C4283.050293,3403.075928 4258.371582,3402.570801 4233.966797,3399.720703 
	C4204.807129,3396.315918 4175.461426,3397.303955 4146.363770,3394.249756 
	C4136.416992,3393.205566 4126.545410,3391.974121 4116.534180,3392.000244 
	C4098.543945,3392.047607 4080.552979,3391.963135 4062.562744,3392.018555 
	C4049.228271,3392.059814 4035.968750,3391.851074 4022.768799,3389.238770 
	C4016.305908,3387.959961 4009.510254,3388.109375 4002.862305,3388.064941 
	C3982.207275,3387.926514 3961.551270,3387.991211 3940.895508,3388.004639 
	C3924.909668,3388.014893 3908.950684,3388.282227 3893.124756,3384.973633 
	C3887.335205,3383.763184 3881.185303,3384.088135 3875.197998,3384.054199 
	C3865.186279,3383.997314 3855.263672,3383.526367 3845.373779,3381.623291 
	C3839.528320,3380.498535 3833.468262,3380.411133 3827.492432,3380.068115 
	C3822.839844,3379.801514 3818.058350,3380.481445 3813.523193,3379.677246 
	C3779.114746,3373.574463 3744.400391,3376.879639 3709.827637,3375.944824 
	C3701.856445,3375.729736 3693.764893,3375.644531 3685.969971,3374.199219 
	C3673.386230,3371.865723 3660.775146,3372.060303 3648.127441,3372.009277 
	C3632.802490,3371.947510 3617.477539,3371.938721 3602.152588,3371.925781 
	C3587.894043,3371.913818 3580.993652,3368.538086 3579.576904,3352.918213 
	C3579.217529,3348.955322 3578.223389,3345.042969 3577.418701,3341.128418 
	C3574.103027,3325.004395 3579.525879,3312.119629 3592.554199,3302.654053 
	C3601.786377,3295.946533 3609.761230,3287.985107 3617.924072,3280.135498 
	C3643.820068,3255.233887 3670.848877,3231.575195 3697.487549,3207.485107 
	C3715.738281,3190.980469 3734.805420,3175.406738 3752.399170,3158.081299 
	C3772.747070,3138.042969 3794.965088,3119.909668 3816.264648,3100.830322 
	C3833.608398,3085.294189 3850.770996,3069.555664 3868.056885,3053.954590 
	C3892.248535,3032.121338 3916.402832,3010.245605 3940.727539,2988.561035 
	C3953.139160,2977.496582 3964.889160,2965.770264 3977.801514,2955.161377 
	C3997.306152,2939.135498 4015.615234,2921.590332 4033.784912,2904.021240 
	C4053.422119,2885.033447 4074.263916,2867.470459 4095.045166,2849.809814 
	C4096.567383,2848.515869 4098.326172,2847.450684 4099.659668,2845.991211 
	C4119.919434,2823.809326 4143.969727,2805.705078 4165.427734,2784.792725 
	C4179.708984,2770.875000 4194.948242,2757.931152 4209.952637,2744.773682 
	C4212.893555,2742.194824 4216.567871,2740.270508 4220.186035,2738.687500 
	C4226.059570,2736.117188 4231.916016,2736.691895 4237.281738,2740.385498 
	C4238.921875,2741.514648 4240.469238,2742.803223 4241.939453,2744.150146 
	C4259.106445,2759.881592 4276.106934,2775.798584 4293.438965,2791.345947 
	C4312.744141,2808.663086 4332.379883,2825.611084 4351.795410,2842.805420 
	C4357.275879,2847.658691 4362.641602,2852.662842 4367.793945,2857.861572 
	C4376.258301,2866.401855 4384.743164,2874.833496 4395.726074,2880.243652 
	C4398.083984,2881.405029 4400.269043,2883.076660 4402.237305,2884.843750 
	C4418.076172,2899.069092 4433.879883,2913.334717 4449.625000,2927.664307 
	C4469.308105,2945.577148 4488.923828,2963.562988 4509.714844,2982.350098 
z"/>
<path fill="#949297" opacity="1.000000" stroke="none" 
	d="
M4897.803711,3419.862793 
	C4900.885254,3415.604980 4904.562012,3416.042236 4908.201172,3417.378906 
	C4909.083496,3417.702637 4910.100098,3419.173584 4910.060547,3420.073242 
	C4910.020020,3420.989746 4908.913574,3422.359619 4907.995605,3422.648926 
	C4904.348145,3423.799072 4900.629395,3424.402344 4897.803711,3419.862793 
z"/>
</svg>