<svg xmlns="http://www.w3.org/2000/svg"  viewBox="0 0 4335 4335" width="135px" height="135px" fill-rule="evenodd" clip-rule="evenodd" image-rendering="optimizeQuality" shape-rendering="geometricPrecision" text-rendering="geometricPrecision"><path fill="#6161b2" d="M2186 93c1157,0 2094,938 2094,2094 0,1157 -938,2094 -2094,2094 -1157,0 -2094,-938 -2094,-2094 0,-1157 938,-2094 2094,-2094z"/><path fill="#6161db" d="M789 627l0 3120c-140,-126 -264,-270 -366,-429l0 -2262c102,-159 226,-303 366,-429zm1397 -534c62,0 123,3 183,8l0 4172c-60,5 -121,8 -183,8 -62,0 -123,-3 -183,-8l0 -4172c60,-5 121,-8 183,-8zm607 89c128,39 250,89 366,150l0 3709c-116,61 -238,111 -366,150l0 -4009zm790 444c140,126 264,270 366,429l0 2262c-102,159 -226,303 -366,429l0 -3120zm-2003 3565c-128,-39 -250,-89 -366,-150l0 -3709c116,-61 238,-111 366,-150l0 4009z"/><path fill="#666" d="M2232 3621l0 0c-59,0 -106,48 -106,106l0 553c20,1 40,1 60,1 51,0 102,-2 153,-6l0 -548c0,-59 -48,-106 -106,-106z"/><path fill="gray" d="M2218 3622c-52,7 -92,52 -92,105l0 553c20,1 40,1 60,1 11,0 21,0 32,0l0 -659z"/><path fill="#333" d="M3034 916c699,470 885,1418 415,2118 -470,699 -1418,885 -2118,415 -1,-1 -3,-2 -4,-3l57 -85c1,1 3,2 4,3 652,438 1537,265 1975,-387 438,-652 265,-1537 -387,-1975 -1,-1 -3,-2 -4,-3l57 -85c1,1 3,2 4,3z"/><path fill="gray" d="M3196 740l0 0c-53,-35 -125,-21 -160,31l-1838 2734c-35,53 -21,125 31,160l0 0c53,35 125,21 160,-31l1838 -2734c35,-53 21,-125 -31,-160z"/><path fill="#69f" d="M2927 1067c612,412 775,1242 364,1854 -412,612 -1242,775 -1854,364 -612,-412 -775,-1242 -364,-1854 412,-612 1242,-775 1854,-364z"/><path fill="#82b8ff" d="M2845 1050c553,372 701,1122 329,1676 -372,553 -1122,701 -1676,329 -553,-372 -701,-1122 -329,-1676 372,-553 1122,-701 1676,-329z"/><polygon fill="#e6e6e6" points="3003,820 3183,941 3165,969 2985,848"/><polygon fill="#ccc" points="3093,880 3195,949 3176,976 3075,908"/><polygon fill="#ccc" points="3003,820 3028,837 3009,864 2985,848"/><polygon fill="#e6e6e6" points="1259,3416 1438,3537 1420,3565 1240,3444"/><polygon fill="#ccc" points="1349,3476 1450,3544 1431,3572 1330,3504"/><polygon fill="#ccc" points="1259,3416 1283,3433 1265,3460 1240,3444"/><polygon fill="#666" points="1571,3364 1376,3242 1368,3490 1450,3544"/><polygon fill="#666" points="3051,1162 2864,1027 3101,926 3176,976"/><path fill="#3c3" d="M2148 845c0,0 -175,306 43,397 218,91 365,245 365,245 0,0 38,81 -31,115 -69,34 -154,39 -126,58 28,19 2,57 -15,83 -17,26 13,40 7,85 -6,46 33,71 -32,84 -64,13 -105,23 -105,23l-83 118c0,0 69,65 -55,87 -124,22 -141,29 -239,0 -98,-29 -83,13 -128,-49 -45,-61 -26,-173 -26,-173 0,0 -14,-16 -44,-36 -30,-20 -48,-39 -138,-62 -90,-23 -158,24 -166,-75 -8,-98 -30,-76 -1,-118 29,-43 54,-25 42,-71 -13,-46 -6,-47 -74,-93 -68,-46 -85,-57 -85,-57l-36 -98 54 -114c0,0 394,-365 872,-349z"/><path fill="#28be28" d="M2109 858c0,0 -151,264 37,342 188,78 315,212 315,212 0,0 32,70 -27,99 -59,29 -133,34 -108,50 24,16 2,49 -13,71 -15,22 11,34 6,74 -5,39 28,62 -27,72 -55,11 -90,19 -90,19l-71 102c0,0 59,56 -47,75 -107,19 -121,25 -206,0 -85,-25 -71,11 -110,-42 -39,-53 -23,-149 -23,-149 0,0 -12,-14 -38,-31 -26,-17 -42,-33 -119,-53 -77,-20 -136,20 -144,-64 -7,-85 -26,-65 -1,-102 25,-37 47,-22 36,-61 -11,-39 -5,-41 -64,-80 -59,-40 -74,-49 -74,-49l-31 -85 47 -98c0,0 340,-315 752,-301z"/><path fill="#2bb32b" d="M2799 3360c0,0 110,-56 51,-310 -59,-254 -157,-283 -140,-364 17,-81 189,-115 81,-212 -108,-97 -145,-135 -185,-130 -40,4 -187,196 -203,229 -16,33 -156,75 -204,55 -48,-20 -85,-20 -157,-43 -71,-23 -88,-53 -123,17 -34,70 -85,110 -165,75 -79,-35 -103,-63 -172,-91 -68,-27 -218,-91 -201,32 17,123 80,203 13,220 -67,17 -301,118 -301,118 0,0 100,187 476,410 375,222 974,140 1228,-4z"/><path fill="#093" d="M2799 3360c0,0 109,-55 53,-304 -401,260 -935,273 -1357,-11 -75,-51 -143,-108 -204,-171 -90,35 -196,81 -196,81 0,0 100,187 476,410 375,222 974,140 1228,-4z"/><path fill="#999" d="M2230 4281l0 0 -1 0 2 0zm-10 0l-2 0 -1 0 2 0z"/><path fill="#666" d="M2339 4145l0 130c-39,3 -78,4 -118,5 -2,-5 -3,-10 -3,-15 0,-82 0,-557 0,-557l118 -7 3 444z"/></svg>