<svg xmlns="http://www.w3.org/2000/svg"  viewBox="0 0 64 64" width="128px" height="128px"><circle cx="32" cy="25" r="22" fill="#e8dac5"/><path fill="#f4b34a" d="M44.45,12.67c0.91,0.19,1.55,0.99,1.55,1.91c0,1.25-1.15,2.17-2.37,1.91l-1.13-0.24l-9.33-2	l-13.62-2.92C18.64,11.14,18,10.34,18,9.42c0-1.25,1.15-2.17,2.37-1.91L44.45,12.67z"/><path fill="#f4b34a" d="M44.45,21.67c0.91,0.19,1.55,0.99,1.55,1.91c0,1.25-1.15,2.17-2.37,1.91l-1.13-0.24l-9.33-2	l-13.62-2.92C18.64,20.14,18,19.34,18,18.42c0-1.25,1.15-2.17,2.37-1.91l1.13,0.24l9.33,2L44.45,21.67z"/><path fill="#f4b34a" d="M44.45,30.67c0.91,0.19,1.55,0.99,1.55,1.91c0,1.25-1.15,2.17-2.37,1.91l-3.39-0.73L35.3,32.7	l-8.39-1.79l-7.36-1.58c-0.11-0.02-0.22-0.06-0.32-0.1h-0.01C18.49,28.94,18,28.22,18,27.42c0-1.25,1.15-2.17,2.37-1.91l1.13,0.24	l9.33,2L44.45,30.67z"/><polygon fill="#e58842" points="42.5,16.25 30.83,18.75 21.5,16.75 33.17,14.25"/><polygon fill="#d6713a" points="28.4,15.272 37.731,17.272 42.5,16.25 33.17,14.25"/><polygon fill="#e58842" points="42.5,25.25 30.83,27.75 21.5,25.75 33.17,23.25"/><polygon fill="#d6713a" points="28.4,24.272 37.731,26.272 42.5,25.25 33.17,23.25"/><polygon fill="#e58842" points="40.24,33.76 38,36 38,43 34,43 34,34 35.3,32.7"/><path fill="#732de2" d="M25,46v11c0,1.1,0.9,2,2,2h1l3,3h2l3-3h1c1.1,0,2-0.9,2-2V46H25z"/><path fill="#e58842" d="M30,34v9h-4v-7l-6.77-6.77c0.1,0.04,0.21,0.08,0.32,0.1l7.36,1.58L30,34z"/><polygon fill="#d6713a" points="34,34 34,34.468 34.88,34.656 38.555,35.445 40.24,33.76 35.3,32.7"/><path fill="#d6713a" d="M26.91,30.91l-7.36-1.58c-0.11-0.02-0.22-0.06-0.32-0.1l2.645,2.645l4.618,0.991l3.017,0.644	L26.91,30.91z"/><path fill="#8f58f9" d="M43,42v3c0,1.1-0.9,2-2,2H23c-1.1,0-2-0.9-2-2v-3H43z"/><rect width="14" height="2" x="25" y="47" fill="#4c1ea5"/><rect width="2" height="16.036" x="31" y="43.482" fill="#4c1ea5" transform="rotate(-85.912 32 51.498)"/><rect width="2" height="16.036" x="31" y="47.482" fill="#4c1ea5" transform="rotate(-85.912 32 55.498)"/><path fill="#e58842" d="M16.267,41.777c-0.486-0.456-0.958-0.938-1.403-1.435l1.489-1.335	c0.407,0.454,0.838,0.895,1.282,1.312L16.267,41.777z M13.006,37.974c-0.375-0.548-0.732-1.122-1.06-1.704l1.742-0.982	c0.3,0.532,0.625,1.056,0.968,1.556L13.006,37.974z M10.645,33.557c-0.249-0.622-0.473-1.259-0.665-1.895l1.915-0.577	c0.174,0.58,0.378,1.161,0.606,1.727L10.645,33.557z M9.301,28.732c-0.107-0.654-0.187-1.325-0.237-1.994l1.994-0.149	c0.046,0.61,0.119,1.223,0.216,1.82L9.301,28.732z M11.031,23.839L9.034,23.73c0.037-0.667,0.103-1.34,0.197-1.999l1.979,0.282	C11.125,22.616,11.064,23.229,11.031,23.839z M11.776,19.325L9.85,18.786c0.18-0.645,0.391-1.287,0.626-1.909l1.87,0.708	C12.132,18.151,11.94,18.737,11.776,19.325z M13.484,15.083l-1.762-0.946c0.315-0.586,0.66-1.167,1.025-1.725l1.674,1.096	C14.087,14.018,13.771,14.548,13.484,15.083z"/><path fill="#e58842" d="M48.807,40.701l-1.461-1.366c0.444-0.475,0.872-0.977,1.271-1.492l1.582,1.224	C49.762,39.631,49.293,40.181,48.807,40.701z M51.985,36.391l-1.736-0.992c0.323-0.566,0.623-1.153,0.891-1.745l1.822,0.824	C52.668,35.127,52.34,35.771,51.985,36.391z M54.081,31.459l-1.92-0.561c0.182-0.623,0.337-1.263,0.46-1.905l1.964,0.378	C54.45,30.075,54.28,30.777,54.081,31.459z M54.97,26.176l-1.997-0.102C52.991,25.718,53,25.36,53,25	c0-0.297-0.006-0.593-0.018-0.887l1.998-0.082C54.993,24.353,55,24.675,55,25C55,25.395,54.99,25.787,54.97,26.176z M52.657,21.194	c-0.118-0.641-0.267-1.283-0.443-1.909l1.925-0.543c0.193,0.686,0.356,1.389,0.485,2.09L52.657,21.194z M51.218,16.522	c-0.262-0.594-0.556-1.184-0.875-1.753l1.746-0.976c0.349,0.624,0.671,1.27,0.958,1.921L51.218,16.522z M48.735,12.312	c-0.392-0.518-0.815-1.023-1.256-1.504l1.474-1.353c0.483,0.526,0.946,1.081,1.376,1.647L48.735,12.312z M45.347,8.787	c-0.501-0.414-1.029-0.809-1.568-1.175l1.122-1.655c0.591,0.401,1.169,0.834,1.719,1.287L45.347,8.787z M41.238,6.135	c-0.586-0.287-1.191-0.55-1.798-0.78l0.709-1.87c0.665,0.252,1.328,0.54,1.969,0.854L41.238,6.135z M25.033,5.183l-0.662-1.887	c0.672-0.236,1.364-0.443,2.056-0.616l0.483,1.94C26.279,4.778,25.647,4.967,25.033,5.183z M36.625,4.51	c-0.636-0.143-1.285-0.257-1.929-0.339l0.254-1.983c0.706,0.09,1.417,0.215,2.114,0.372L36.625,4.51z M29.804,4.113l-0.206-1.989	c0.708-0.073,1.428-0.114,2.142-0.123l0.022,2C31.109,4.009,30.45,4.046,29.804,4.113z"/></svg>