<svg width="151" height="52" viewBox="0 0 151 52" fill="none" xmlns="http://www.w3.org/2000/svg">
<path d="M1.04672 1.10865V17.088H2.56857V11.6049L5.63464 8.76263L12.2815 17.088H14.251L6.77602 7.71077L13.9153 1.10865H11.8563L2.56857 9.70259V1.10865H1.04672Z" fill="black"/>
<path d="M16.2302 9.09833C16.2302 8.21805 16.3421 7.36015 16.5659 6.52463C16.8046 5.6891 17.1627 4.9431 17.6401 4.28662C18.1325 3.61522 18.7591 3.0781 19.5201 2.67525C20.281 2.27241 21.1911 2.07099 22.2504 2.07099C23.3098 2.07099 24.2124 2.27241 24.9584 2.67525C25.7193 3.0781 26.3385 3.61522 26.816 4.28662C27.3083 4.9431 27.6664 5.6891 27.8902 6.52463C28.1289 7.36015 28.2483 8.21805 28.2483 9.09833C28.2483 9.9637 28.1289 10.8216 27.8902 11.672C27.6664 12.5076 27.3083 13.261 26.816 13.9324C26.3385 14.5889 25.7193 15.1186 24.9584 15.5214C24.2124 15.9243 23.3098 16.1257 22.2504 16.1257C21.1911 16.1257 20.281 15.9243 19.5201 15.5214C18.7591 15.1186 18.1325 14.5889 17.6401 13.9324C17.1627 13.261 16.8046 12.5076 16.5659 11.672C16.3421 10.8216 16.2302 9.9637 16.2302 9.09833ZM14.7084 9.09833C14.7084 10.2024 14.865 11.2543 15.1783 12.2539C15.4917 13.2536 15.9616 14.1338 16.5883 14.8948C17.2149 15.6557 17.9982 16.2674 18.9382 16.7299C19.8931 17.1775 20.9972 17.4013 22.2504 17.4013C23.5037 17.4013 24.6003 17.1775 25.5403 16.7299C26.4803 16.2674 27.2636 15.6557 27.8902 14.8948C28.5169 14.1338 28.9868 13.2536 29.3002 12.2539C29.6135 11.2543 29.7701 10.2024 29.7701 9.09833C29.7701 7.99425 29.6135 6.94239 29.3002 5.94274C28.9868 4.9431 28.5169 4.06282 27.8902 3.3019C27.2636 2.52605 26.4803 1.91433 25.5403 1.46673C24.6003 1.00421 23.5037 0.772949 22.2504 0.772949C20.9972 0.772949 19.8931 1.00421 18.9382 1.46673C17.9982 1.91433 17.2149 2.52605 16.5883 3.3019C15.9616 4.06282 15.4917 4.9431 15.1783 5.94274C14.865 6.94239 14.7084 7.99425 14.7084 9.09833Z" fill="black"/>
<path d="M33.669 8.69549V2.40669H39.3535C40.5173 2.40669 41.3826 2.69017 41.9496 3.25714C42.5166 3.8241 42.8001 4.59994 42.8001 5.58466C42.8001 6.07702 42.7031 6.51717 42.5091 6.90509C42.3301 7.27809 42.0839 7.59887 41.7706 7.86743C41.4573 8.13599 41.0917 8.34487 40.6739 8.49407C40.2562 8.62835 39.816 8.69549 39.3535 8.69549H33.669ZM32.1471 1.10865V17.088H33.669V9.99354H39.443C40.1592 9.9637 40.7187 10.0831 41.1215 10.3516C41.5393 10.6202 41.8526 10.9783 42.0615 11.4259C42.2853 11.8585 42.4271 12.3584 42.4867 12.9253C42.5613 13.4774 42.6136 14.0369 42.6434 14.6038C42.6583 14.7679 42.6732 14.9619 42.6882 15.1857C42.7031 15.4095 42.718 15.6408 42.7329 15.8795C42.7628 16.1033 42.8001 16.3271 42.8448 16.5509C42.9045 16.7598 42.9791 16.9388 43.0686 17.088H44.7471C44.583 16.8941 44.4487 16.6255 44.3443 16.2823C44.2548 15.9243 44.1876 15.5513 44.1429 15.1633C44.0981 14.7605 44.0683 14.3651 44.0533 13.9772C44.0384 13.5893 44.0235 13.261 44.0086 12.9925C43.9787 12.515 43.9116 12.0749 43.8072 11.672C43.7176 11.2543 43.561 10.8887 43.3372 10.5754C43.1283 10.2621 42.8523 10.0085 42.5091 9.81449C42.166 9.60561 41.7333 9.46387 41.2111 9.38927V9.34451C42.2406 9.13563 43.0164 8.65819 43.5386 7.91219C44.0608 7.16619 44.3219 6.28591 44.3219 5.27134C44.3219 4.55518 44.1876 3.936 43.9191 3.4138C43.6654 2.87668 43.3148 2.44399 42.8672 2.11575C42.4345 1.77259 41.9198 1.51895 41.323 1.35483C40.7411 1.19071 40.1219 1.10865 39.4654 1.10865H32.1471Z" fill="black"/>
<path d="M47.1864 1.10865V17.088H48.7082V1.10865H47.1864Z" fill="black"/>
<path d="M52.0357 1.10865V17.088H57.5636C59.9955 17.0283 61.8232 16.3495 63.0467 15.0514C64.285 13.7385 64.9042 11.7541 64.9042 9.09833C64.9042 6.44257 64.285 4.46566 63.0467 3.16762C61.8232 1.85465 59.9955 1.16833 57.5636 1.10865H52.0357ZM53.5575 15.79V2.40669H56.8026C57.9515 2.40669 58.9362 2.53351 59.7568 2.78715C60.5923 3.02588 61.2786 3.4138 61.8158 3.95092C62.3529 4.48804 62.7483 5.18182 63.0019 6.03226C63.2555 6.88271 63.3824 7.90473 63.3824 9.09833C63.3824 10.2919 63.2555 11.314 63.0019 12.1644C62.7483 13.0148 62.3529 13.7086 61.8158 14.2457C61.2786 14.7829 60.5923 15.1783 59.7568 15.4319C58.9362 15.6706 57.9515 15.79 56.8026 15.79H53.5575Z" fill="black"/>
<path d="M68.0278 9.09833C68.0278 8.21805 68.1397 7.36015 68.3635 6.52463C68.6022 5.6891 68.9603 4.9431 69.4377 4.28662C69.9301 3.61522 70.5568 3.0781 71.3177 2.67525C72.0786 2.27241 72.9887 2.07099 74.048 2.07099C75.1074 2.07099 76.01 2.27241 76.756 2.67525C77.5169 3.0781 78.1361 3.61522 78.6136 4.28662C79.1059 4.9431 79.464 5.6891 79.6878 6.52463C79.9265 7.36015 80.0459 8.21805 80.0459 9.09833C80.0459 9.9637 79.9265 10.8216 79.6878 11.672C79.464 12.5076 79.1059 13.261 78.6136 13.9324C78.1361 14.5889 77.5169 15.1186 76.756 15.5214C76.01 15.9243 75.1074 16.1257 74.048 16.1257C72.9887 16.1257 72.0786 15.9243 71.3177 15.5214C70.5568 15.1186 69.9301 14.5889 69.4377 13.9324C68.9603 13.261 68.6022 12.5076 68.3635 11.672C68.1397 10.8216 68.0278 9.9637 68.0278 9.09833ZM66.506 9.09833C66.506 10.2024 66.6626 11.2543 66.9759 12.2539C67.2893 13.2536 67.7592 14.1338 68.3859 14.8948C69.0125 15.6557 69.7958 16.2674 70.7358 16.7299C71.6907 17.1775 72.7948 17.4013 74.048 17.4013C75.3013 17.4013 76.398 17.1775 77.3379 16.7299C78.2779 16.2674 79.0612 15.6557 79.6878 14.8948C80.3145 14.1338 80.7844 13.2536 81.0978 12.2539C81.4111 11.2543 81.5677 10.2024 81.5677 9.09833C81.5677 7.99425 81.4111 6.94239 81.0978 5.94274C80.7844 4.9431 80.3145 4.06282 79.6878 3.3019C79.0612 2.52605 78.2779 1.91433 77.3379 1.46673C76.398 1.00421 75.3013 0.772949 74.048 0.772949C72.7948 0.772949 71.6907 1.00421 70.7358 1.46673C69.7958 1.91433 69.0125 2.52605 68.3859 3.3019C67.7592 4.06282 67.2893 4.9431 66.9759 5.94274C66.6626 6.94239 66.506 7.99425 66.506 9.09833Z" fill="black"/>
<path d="M85.4666 8.69549V2.40669H91.1511C92.3149 2.40669 93.1803 2.69017 93.7472 3.25714C94.3142 3.8241 94.5977 4.59994 94.5977 5.58466C94.5977 6.07702 94.5007 6.51717 94.3067 6.90509C94.1277 7.27809 93.8815 7.59887 93.5682 7.86743C93.2549 8.13599 92.8893 8.34487 92.4716 8.49407C92.0538 8.62835 91.6136 8.69549 91.1511 8.69549H85.4666ZM83.9448 1.10865V17.088H85.4666V9.99354H91.2407C91.9568 9.9637 92.5163 10.0831 92.9192 10.3516C93.3369 10.6202 93.6502 10.9783 93.8591 11.4259C94.0829 11.8585 94.2247 12.3584 94.2843 12.9253C94.3589 13.4774 94.4112 14.0369 94.441 14.6038C94.4559 14.7679 94.4708 14.9619 94.4858 15.1857C94.5007 15.4095 94.5156 15.6408 94.5305 15.8795C94.5604 16.1033 94.5977 16.3271 94.6424 16.5509C94.7021 16.7598 94.7767 16.9388 94.8662 17.088H96.5447C96.3806 16.8941 96.2463 16.6255 96.1419 16.2823C96.0524 15.9243 95.9852 15.5513 95.9405 15.1633C95.8957 14.7605 95.8659 14.3651 95.8509 13.9772C95.836 13.5893 95.8211 13.261 95.8062 12.9925C95.7763 12.515 95.7092 12.0749 95.6048 11.672C95.5152 11.2543 95.3586 10.8887 95.1348 10.5754C94.9259 10.2621 94.6499 10.0085 94.3067 9.81449C93.9636 9.60561 93.5309 9.46387 93.0087 9.38927V9.34451C94.0382 9.13563 94.814 8.65819 95.3362 7.91219C95.8584 7.16619 96.1195 6.28591 96.1195 5.27134C96.1195 4.55518 95.9852 3.936 95.7167 3.4138C95.463 2.87668 95.1124 2.44399 94.6648 2.11575C94.2321 1.77259 93.7174 1.51895 93.1206 1.35483C92.5387 1.19071 91.9195 1.10865 91.263 1.10865H83.9448Z" fill="black"/>
<path d="M1.02628 21.8388V30.9568C1.02628 31.6884 1.12603 32.3867 1.32555 33.0518C1.53837 33.7035 1.86425 34.2755 2.30319 34.7676C2.75544 35.2598 3.32739 35.6521 4.01905 35.9448C4.72402 36.2241 5.56865 36.3638 6.55294 36.3638C7.55053 36.3638 8.39516 36.2241 9.08683 35.9448C9.79179 35.6521 10.3637 35.2598 10.8027 34.7676C11.2549 34.2755 11.5808 33.7035 11.7803 33.0518C11.9931 32.3867 12.0996 31.6884 12.0996 30.9568V21.8388H10.7428V30.6575C10.7428 31.4822 10.6497 32.1872 10.4635 32.7724C10.2773 33.3444 10.0046 33.8166 9.64548 34.189C9.28635 34.5481 8.84741 34.8142 8.32866 34.9871C7.80991 35.1467 7.218 35.2265 6.55294 35.2265C5.90118 35.2265 5.31593 35.1467 4.79718 34.9871C4.27843 34.8142 3.83949 34.5481 3.48035 34.189C3.12122 33.8166 2.84855 33.3444 2.66233 32.7724C2.47611 32.1872 2.383 31.4822 2.383 30.6575V21.8388H1.02628Z" fill="black"/>
<path d="M19.6926 21.8388V22.996H24.6407V36.0844H25.9974V22.996H30.9654V21.8388H19.6926Z" fill="black"/>
<path d="M38.7799 21.8388V36.0844H40.1366V21.8388H38.7799Z" fill="black"/>
<path d="M49.4876 21.8388V36.0844H58.8251V34.9272H50.8444V21.8388H49.4876Z" fill="black"/>
<path d="M66.6883 21.8388V36.0844H68.045V21.8388H66.6883Z" fill="black"/>
<path d="M75.8797 21.8388V22.996H80.8278V36.0844H82.1845V22.996H87.1525V21.8388H75.8797Z" fill="black"/>
<path d="M94.967 21.8388V36.0844H96.3237V21.8388H94.967Z" fill="black"/>
<path d="M0.684082 42.2206V51.3672H3.84826C5.24033 51.3331 6.28652 50.9445 6.98682 50.2015C7.69566 49.4499 8.05009 48.3141 8.05009 46.7939C8.05009 45.2737 7.69566 44.1421 6.98682 43.3991C6.28652 42.6476 5.24033 42.2547 3.84826 42.2206H0.684082ZM1.55519 50.6242V42.9636H3.41271C4.07031 42.9636 4.63397 43.0362 5.10368 43.1814C5.58194 43.318 5.97479 43.5401 6.28224 43.8475C6.5897 44.155 6.81601 44.5521 6.9612 45.0389C7.10638 45.5257 7.17898 46.1107 7.17898 46.7939C7.17898 47.4771 7.10638 48.0621 6.9612 48.5489C6.81601 49.0357 6.5897 49.4329 6.28224 49.7403C5.97479 50.0478 5.58194 50.2741 5.10368 50.4193C4.63397 50.5559 4.07031 50.6242 3.41271 50.6242H1.55519Z" fill="black"/>
<path d="M10.7476 47.7803L12.5795 43.0917L14.3473 47.7803H10.7476ZM12.1311 42.2206L8.45451 51.3672H9.37687L10.4786 48.5233H14.642L15.7565 51.3672H16.6916L13.1047 42.2206H12.1311Z" fill="black"/>
<path d="M18.3939 46.5633V42.9636H21.6478C22.3139 42.9636 22.8092 43.1259 23.1338 43.4504C23.4583 43.7749 23.6206 44.219 23.6206 44.7827C23.6206 45.0645 23.5651 45.3164 23.454 45.5385C23.3516 45.752 23.2106 45.9356 23.0313 46.0893C22.8519 46.2431 22.6427 46.3626 22.4036 46.448C22.1645 46.5249 21.9125 46.5633 21.6478 46.5633H18.3939ZM17.5228 42.2206V51.3672H18.3939V47.3063H21.699C22.1089 47.2892 22.4292 47.3576 22.6598 47.5113C22.8989 47.665 23.0783 47.87 23.1978 48.1262C23.3259 48.3739 23.4071 48.66 23.4412 48.9845C23.4839 49.3005 23.5138 49.6207 23.5309 49.9453C23.5394 50.0392 23.548 50.1502 23.5565 50.2783C23.5651 50.4065 23.5736 50.5388 23.5821 50.6755C23.5992 50.8036 23.6206 50.9317 23.6462 51.0598C23.6804 51.1793 23.7231 51.2818 23.7743 51.3672H24.7351C24.6411 51.2562 24.5643 51.1025 24.5045 50.9061C24.4533 50.7011 24.4148 50.4876 24.3892 50.2655C24.3636 50.035 24.3465 49.8086 24.338 49.5866C24.3294 49.3645 24.3209 49.1767 24.3123 49.0229C24.2953 48.7496 24.2568 48.4977 24.197 48.2671C24.1458 48.028 24.0561 47.8187 23.928 47.6394C23.8085 47.4601 23.6505 47.3149 23.454 47.2038C23.2576 47.0843 23.0099 47.0031 22.711 46.9604V46.9348C23.3003 46.8153 23.7444 46.542 24.0433 46.115C24.3422 45.6879 24.4917 45.1841 24.4917 44.6033C24.4917 44.1934 24.4148 43.839 24.2611 43.5401C24.1159 43.2326 23.9152 42.9849 23.659 42.7971C23.4113 42.6006 23.1167 42.4554 22.7751 42.3615C22.442 42.2676 22.0876 42.2206 21.7118 42.2206H17.5228Z" fill="black"/>
<path d="M25.9776 42.2206V48.075C25.9776 48.5447 26.0416 48.993 26.1698 49.42C26.3064 49.8385 26.5156 50.2058 26.7975 50.5217C27.0878 50.8377 27.4551 51.0897 27.8992 51.2776C28.3518 51.4569 28.8941 51.5466 29.5261 51.5466C30.1666 51.5466 30.7089 51.4569 31.153 51.2776C31.6056 51.0897 31.9729 50.8377 32.2547 50.5217C32.5451 50.2058 32.7543 49.8385 32.8824 49.42C33.0191 48.993 33.0874 48.5447 33.0874 48.075V42.2206H32.2163V47.8828C32.2163 48.4123 32.1565 48.8649 32.0369 49.2407C31.9174 49.6079 31.7423 49.9111 31.5117 50.1502C31.2811 50.3808 30.9993 50.5516 30.6662 50.6627C30.3331 50.7651 29.9531 50.8164 29.5261 50.8164C29.1076 50.8164 28.7318 50.7651 28.3988 50.6627C28.0657 50.5516 27.7839 50.3808 27.5533 50.1502C27.3227 49.9111 27.1476 49.6079 27.0281 49.2407C26.9085 48.8649 26.8487 48.4123 26.8487 47.8828V42.2206H25.9776Z" fill="black"/>
<path d="M34.8369 42.2206V51.3672H40.8322V50.6242H35.708V42.2206H34.8369Z" fill="black"/>
<path d="M46.154 46.5633V42.9636H49.4079C50.074 42.9636 50.5694 43.1259 50.8939 43.4504C51.2184 43.7749 51.3807 44.219 51.3807 44.7827C51.3807 45.0645 51.3252 45.3164 51.2142 45.5385C51.1117 45.752 50.9708 45.9356 50.7914 46.0893C50.6121 46.2431 50.4028 46.3626 50.1637 46.448C49.9246 46.5249 49.6726 46.5633 49.4079 46.5633H46.154ZM45.2829 42.2206V51.3672H46.154V47.3063H49.4591C49.8691 47.2892 50.1893 47.3576 50.4199 47.5113C50.659 47.665 50.8384 47.87 50.958 48.1262C51.0861 48.3739 51.1672 48.66 51.2014 48.9845C51.2441 49.3005 51.2739 49.6207 51.291 49.9453C51.2996 50.0392 51.3081 50.1502 51.3166 50.2783C51.3252 50.4065 51.3337 50.5388 51.3423 50.6755C51.3593 50.8036 51.3807 50.9317 51.4063 51.0598C51.4405 51.1793 51.4832 51.2818 51.5344 51.3672H52.4952C52.4013 51.2562 52.3244 51.1025 52.2646 50.9061C52.2134 50.7011 52.1749 50.4876 52.1493 50.2655C52.1237 50.035 52.1066 49.8086 52.0981 49.5866C52.0895 49.3645 52.081 49.1767 52.0725 49.0229C52.0554 48.7496 52.017 48.4977 51.9572 48.2671C51.9059 48.028 51.8163 47.8187 51.6881 47.6394C51.5686 47.4601 51.4106 47.3149 51.2142 47.2038C51.0177 47.0843 50.7701 47.0031 50.4712 46.9604V46.9348C51.0604 46.8153 51.5045 46.542 51.8034 46.115C52.1024 45.6879 52.2518 45.1841 52.2518 44.6033C52.2518 44.1934 52.1749 43.839 52.0212 43.5401C51.876 43.2326 51.6753 42.9849 51.4191 42.7971C51.1715 42.6006 50.8768 42.4554 50.5352 42.3615C50.2021 42.2676 49.8477 42.2206 49.4719 42.2206H45.2829Z" fill="black"/>
<path d="M53.8914 42.2206V51.3672H54.7626V42.2206H53.8914Z" fill="black"/>
<path d="M56.6672 42.2206V51.3672H59.8314C61.2235 51.3331 62.2696 50.9445 62.9699 50.2015C63.6788 49.4499 64.0332 48.3141 64.0332 46.7939C64.0332 45.2737 63.6788 44.1421 62.9699 43.3991C62.2696 42.6476 61.2235 42.2547 59.8314 42.2206H56.6672ZM57.5383 50.6242V42.9636H59.3958C60.0534 42.9636 60.6171 43.0362 61.0868 43.1814C61.5651 43.318 61.9579 43.5401 62.2654 43.8475C62.5728 44.155 62.7991 44.5521 62.9443 45.0389C63.0895 45.5257 63.1621 46.1107 63.1621 46.7939C63.1621 47.4771 63.0895 48.0621 62.9443 48.5489C62.7991 49.0357 62.5728 49.4329 62.2654 49.7403C61.9579 50.0478 61.5651 50.2741 61.0868 50.4193C60.6171 50.5559 60.0534 50.6242 59.3958 50.6242H57.5383Z" fill="black"/>
<path d="M64.9885 42.2206V42.9636H70.5995L64.5786 50.5986V51.3672H71.7012V50.6242H65.5521L71.5731 42.9892V42.2206H64.9885Z" fill="black"/>
<path d="M72.7032 42.2206V48.075C72.7032 48.5447 72.7672 48.993 72.8953 49.42C73.032 49.8385 73.2412 50.2058 73.523 50.5217C73.8134 50.8377 74.1806 51.0897 74.6247 51.2776C75.0774 51.4569 75.6197 51.5466 76.2517 51.5466C76.8922 51.5466 77.4345 51.4569 77.8786 51.2776C78.3312 51.0897 78.6985 50.8377 78.9803 50.5217C79.2707 50.2058 79.4799 49.8385 79.608 49.42C79.7447 48.993 79.813 48.5447 79.813 48.075V42.2206H78.9419V47.8828C78.9419 48.4123 78.8821 48.8649 78.7625 49.2407C78.643 49.6079 78.4679 49.9111 78.2373 50.1502C78.0067 50.3808 77.7249 50.5516 77.3918 50.6627C77.0587 50.7651 76.6787 50.8164 76.2517 50.8164C75.8332 50.8164 75.4574 50.7651 75.1243 50.6627C74.7913 50.5516 74.5094 50.3808 74.2789 50.1502C74.0483 49.9111 73.8732 49.6079 73.7536 49.2407C73.6341 48.8649 73.5743 48.4123 73.5743 47.8828V42.2206H72.7032Z" fill="black"/>
<path d="M82.8563 47.7803L84.6882 43.0917L86.4561 47.7803H82.8563ZM84.2399 42.2206L80.5633 51.3672H81.4856L82.5873 48.5233H86.7507L87.8652 51.3672H88.8004L85.2135 42.2206H84.2399Z" fill="black"/>
<path d="M89.6188 42.2206V51.3672H90.4899V43.6297H90.5155L95.8446 51.3672H96.8182V42.2206H95.9471V49.9581H95.9215L90.5924 42.2206H89.6188Z" fill="black"/>
<path d="M148.908 41.3549L146.28 40.3408L128.484 47.1681C127.798 47.4252 126.927 47.5537 126.056 47.5537C125.184 47.5537 124.313 47.4252 123.627 47.1681L105.831 40.3408L103.203 41.3549C101.974 41.8263 101.974 42.5975 103.203 43.0546L123.827 50.9674C125.056 51.4387 127.055 51.4387 128.269 50.9674L148.894 43.0546C150.137 42.5833 150.137 41.8263 148.908 41.3549Z" fill="black"/>
<path d="M148.908 37.0129L146.28 35.9988L128.484 42.8261C127.798 43.0832 126.927 43.2117 126.056 43.2117C125.184 43.2117 124.313 43.0832 123.627 42.8261L105.831 35.9988L103.203 37.0129C101.974 37.4842 101.974 38.2555 103.203 38.7126L123.827 46.6253C125.056 47.0967 127.055 47.0967 128.269 46.6253L148.894 38.7126C150.137 38.2555 150.137 37.4842 148.908 37.0129Z" fill="#FFF200"/>
<path d="M128.627 35.5274C128.627 35.4274 128.698 35.356 128.812 35.3132C128.484 34.9132 127.37 34.5419 125.856 34.5419C124.342 34.5419 123.242 34.9132 122.899 35.3132C123.013 35.356 123.07 35.4274 123.07 35.5274C123.07 35.6274 122.985 35.7131 122.856 35.7559C123.113 36.1416 124.07 36.5129 125.484 36.5701C125.556 36.4986 125.684 36.4701 125.841 36.4701C125.998 36.4701 126.127 36.5129 126.198 36.5701C127.598 36.5129 128.569 36.1416 128.826 35.7559C128.712 35.7131 128.627 35.6417 128.627 35.5274ZM125.87 35.8131C125.613 35.8131 125.356 35.7274 125.356 35.5274C125.356 35.3274 125.613 35.2417 125.87 35.2417C126.127 35.2417 126.384 35.3274 126.384 35.5274C126.384 35.7274 126.127 35.8131 125.87 35.8131Z" fill="#D1D3D4"/>
<path d="M148.908 32.6851L132.64 26.4434C131.669 26.9576 130.669 27.4718 129.641 27.9574C123.856 30.714 118.071 32.5851 113.329 33.2136C112.215 33.3564 111.187 33.4278 110.244 33.4278C107.83 33.4278 106.016 32.9422 104.931 32.0138L103.203 32.6851C101.974 33.1564 101.974 33.9277 103.203 34.3848L123.827 42.2976C125.056 42.7689 127.055 42.7689 128.269 42.2976L148.894 34.3848C150.137 33.9134 150.137 33.1564 148.908 32.6851ZM129.455 35.7702C129.269 36.4701 127.955 37.0129 126.227 37.0843C126.141 37.1557 125.998 37.1985 125.87 37.1985C125.741 37.1985 125.599 37.17 125.513 37.0843C123.785 37.0129 122.485 36.4701 122.285 35.7702C122.085 35.7417 121.971 35.656 121.971 35.5274C121.971 35.3846 122.113 35.2846 122.342 35.2703C122.656 34.6419 123.927 34.1705 125.499 34.0991C125.57 34.0277 125.698 33.9849 125.87 33.9849C126.041 33.9849 126.17 34.0277 126.241 34.0991C127.827 34.1705 129.084 34.6419 129.398 35.2703C129.626 35.2846 129.769 35.3846 129.769 35.5274C129.769 35.656 129.641 35.7559 129.455 35.7702Z" fill="#D1D3D4"/>
<path d="M135.068 3.30491C134.625 3.07638 134.168 2.86213 133.711 2.66217C133.797 2.87642 133.868 3.10494 133.954 3.31919C134.325 3.30491 134.697 3.30491 135.068 3.30491Z" fill="black"/>
<path d="M132.997 3.31922C132.826 2.93357 132.654 2.56222 132.497 2.17657C130.64 1.51956 128.641 1.1482 126.57 1.09106L126.498 3.79056C128.712 3.53346 130.898 3.37635 132.997 3.31922Z" fill="black"/>
<path d="M125.927 25.9007C126.613 25.6007 127.312 25.2722 127.998 24.9437C133.368 22.3728 138.11 19.3305 141.353 16.3739C142.538 15.3027 143.467 14.26 144.124 13.3316C144.066 13.1745 143.995 13.0174 143.924 12.8603C143.895 12.8031 143.881 12.7603 143.852 12.7031C143.781 12.5318 143.695 12.3604 143.609 12.189C143.595 12.1461 143.567 12.1175 143.552 12.0747C143.467 11.9033 143.381 11.7319 143.295 11.5748C143.281 11.5605 143.281 11.5319 143.267 11.5177C143.167 11.332 143.067 11.1606 142.967 10.9749C142.952 10.9463 142.924 10.9035 142.91 10.8749C142.81 10.7035 142.71 10.5321 142.595 10.3607C142.581 10.3322 142.552 10.2893 142.538 10.2608C142.424 10.0894 142.324 9.91796 142.21 9.74656C142.195 9.718 142.181 9.70372 142.167 9.67515C142.053 9.48947 141.924 9.31807 141.795 9.14668C141.667 8.961 141.524 8.77532 141.381 8.60392L141.367 8.58964C141.224 8.41824 141.096 8.24685 140.953 8.07545C140.938 8.06117 140.938 8.04689 140.924 8.04689C140.781 7.87549 140.639 7.70409 140.481 7.54698C140.481 7.5327 140.467 7.5327 140.467 7.51841C140.31 7.34702 140.153 7.17562 139.996 7.01851C138.496 6.86139 136.882 6.7757 135.182 6.76141C135.425 7.47556 135.654 8.14687 135.854 8.77532C136.625 11.3605 137.368 14.3314 137.296 17.4165C136.982 13.6744 135.854 10.2036 134.454 6.76141C131.897 6.7757 129.184 6.96138 126.398 7.30417L126.241 13.3745L131.369 13.503L126.241 13.5887L126.084 19.4876L127.912 19.5304L126.07 19.559L125.927 25.9007Z" fill="black"/>
<path d="M106.616 21.2587C106.616 21.2873 106.616 21.3158 106.616 21.3301C106.631 21.5586 106.645 21.8015 106.659 22.03C106.659 22.0586 106.659 22.0728 106.659 22.1014C106.673 22.3442 106.702 22.587 106.731 22.8156V22.8298C106.873 24.0867 107.145 25.3008 107.516 26.4577H124.556C125.013 26.272 125.456 26.0721 125.913 25.8721L125.813 19.5019L114.701 19.6733C114.701 20.216 114.715 20.7731 114.758 21.3301C114.658 20.7731 114.572 20.2303 114.515 19.6733L106.602 19.8018C106.588 20.0304 106.588 20.2589 106.588 20.5017C106.588 20.5017 106.588 20.5017 106.588 20.516C106.602 20.7874 106.616 21.0302 106.616 21.2587Z" fill="black"/>
<path d="M107.745 27.1147C108.13 28.2002 108.616 29.2429 109.187 30.2284C110.259 30.2713 111.53 30.1856 112.944 29.9713C116.329 29.4571 120.328 28.2574 124.484 26.5291L107.745 27.1147Z" fill="black"/>
<path d="M143.981 18.5592C140.524 21.8586 135.44 25.2008 129.655 27.9574C124.884 30.2427 120.114 31.8995 115.929 32.7708C120.357 32.6851 125.87 32.3995 126.07 35.1989C141.096 29.7857 142.895 22.3585 144.038 18.5164C144.009 18.5306 143.995 18.5449 143.981 18.5592Z" fill="black"/>
<path d="M114.929 13.7316L107.788 13.8458C107.716 14.0315 107.659 14.2172 107.588 14.4172C107.573 14.46 107.559 14.4886 107.545 14.5314C107.488 14.7171 107.431 14.8885 107.373 15.0742V15.0885C107.002 16.3454 106.773 17.6594 106.659 19.0163L114.486 19.1877C114.386 17.5594 114.501 15.8312 114.929 13.7316Z" fill="black"/>
<path d="M125.584 3.9191L125.541 1.10535C123.47 1.16248 121.485 1.53384 119.614 2.19086C119.157 3.21923 118.7 4.24761 118.257 5.27599C120.585 4.70467 123.042 4.24761 125.584 3.9191Z" fill="black"/>
<path d="M116.729 9.16099C116.257 10.4607 115.857 11.7605 115.529 13.0888L125.741 13.3316L125.656 7.37561C122.471 7.8041 119.457 8.40399 116.729 9.16099Z" fill="black"/>
<path d="M117.357 5.50449C117.671 4.60466 118.028 3.66198 118.4 2.66217C115.915 3.7334 113.686 5.30453 111.858 7.24702C113.544 6.59 115.386 6.0044 117.357 5.50449Z" fill="black"/>
<path d="M110.916 11.2035C109.93 11.6462 109.059 12.1033 108.316 12.5604C108.259 12.6746 108.202 12.8032 108.159 12.9174L115.072 13.0745C115.315 11.9462 115.658 10.7178 116.072 9.34668C114.186 9.90372 112.444 10.5179 110.916 11.2035Z" fill="black"/>
<path d="M114.715 19.2019L125.827 19.4447L125.741 13.5601L115.372 13.7315C114.972 15.4883 114.729 17.3166 114.715 19.2019Z" fill="black"/>
<path d="M147.494 10.1893C146.923 9.00383 145.495 8.31825 143.438 8.104C144.509 8.38966 145.252 8.87529 145.609 9.60372C147.237 13.0031 139.453 20.0875 128.255 25.4579C117.043 30.814 106.645 32.4137 105.017 29.0143C104.802 28.5573 104.745 28.0431 104.86 27.4575C104.303 28.6858 104.203 29.7856 104.617 30.6855C106.459 34.5562 117.557 33.0993 129.398 27.4289C141.238 21.7871 149.337 14.06 147.494 10.1893Z" fill="#FFF200"/>
<path d="M150.665 9.17525C150.822 10.475 149.994 11.8319 148.38 13.1174C149.123 12.3032 149.494 11.4748 149.394 10.6893C148.923 6.96139 138.553 5.19029 126.227 6.73286C113.901 8.27542 104.288 12.5603 104.745 16.2882C104.802 16.7881 105.045 17.2594 105.445 17.6737C104.303 16.9452 103.631 16.074 103.503 15.0884C102.974 10.8321 113.101 6.06156 126.113 4.43329C139.153 2.79075 150.137 4.91891 150.665 9.17525Z" fill="#FFF200"/>
</svg>
