<svg width="150" height="58" viewBox="0 0 150 58" fill="none" xmlns="http://www.w3.org/2000/svg">
<g clip-path="url(#clip0_109_6)">
<path d="M1 4.28997V15H3.355V11.55L4.705 10.185L7.93 15H10.885L6.295 8.51997L10.48 4.28997H7.54L3.355 8.72997V4.28997H1Z" fill="black"/>
<path d="M16.7152 9.68997C16.7152 9.21997 16.7652 8.76497 16.8652 8.32497C16.9752 7.88497 17.1452 7.49497 17.3752 7.15497C17.6052 6.80497 17.9052 6.52997 18.2752 6.32997C18.6452 6.11997 19.0952 6.01497 19.6252 6.01497C20.1552 6.01497 20.6052 6.11997 20.9752 6.32997C21.3452 6.52997 21.6452 6.80497 21.8752 7.15497C22.1052 7.49497 22.2702 7.88497 22.3702 8.32497C22.4802 8.76497 22.5352 9.21997 22.5352 9.68997C22.5352 10.14 22.4802 10.58 22.3702 11.01C22.2702 11.43 22.1052 11.81 21.8752 12.15C21.6452 12.49 21.3452 12.765 20.9752 12.975C20.6052 13.175 20.1552 13.275 19.6252 13.275C19.0952 13.275 18.6452 13.175 18.2752 12.975C17.9052 12.765 17.6052 12.49 17.3752 12.15C17.1452 11.81 16.9752 11.43 16.8652 11.01C16.7652 10.58 16.7152 10.14 16.7152 9.68997ZM14.3602 9.68997C14.3602 10.47 14.4802 11.2 14.7202 11.88C14.9602 12.55 15.3052 13.135 15.7552 13.635C16.2052 14.135 16.7552 14.53 17.4052 14.82C18.0652 15.1 18.8052 15.24 19.6252 15.24C20.4552 15.24 21.1952 15.1 21.8452 14.82C22.4952 14.53 23.0452 14.135 23.4952 13.635C23.9452 13.135 24.2902 12.55 24.5302 11.88C24.7702 11.2 24.8902 10.47 24.8902 9.68997C24.8902 8.88997 24.7702 8.14997 24.5302 7.46997C24.2902 6.77997 23.9452 6.17997 23.4952 5.66997C23.0452 5.15997 22.4952 4.75997 21.8452 4.46997C21.1952 4.17997 20.4552 4.03497 19.6252 4.03497C18.8052 4.03497 18.0652 4.17997 17.4052 4.46997C16.7552 4.75997 16.2052 5.15997 15.7552 5.66997C15.3052 6.17997 14.9602 6.77997 14.7202 7.46997C14.4802 8.14997 14.3602 8.88997 14.3602 9.68997Z" fill="black"/>
<path d="M31.855 9.13497V6.11997H34.435C34.975 6.11997 35.38 6.23997 35.65 6.47997C35.92 6.70997 36.055 7.08497 36.055 7.60497C36.055 8.14497 35.92 8.53497 35.65 8.77497C35.38 9.01497 34.975 9.13497 34.435 9.13497H31.855ZM29.5 4.28997V15H31.855V10.815H34.21C34.8 10.815 35.225 10.945 35.485 11.205C35.745 11.465 35.915 11.875 35.995 12.435C36.055 12.865 36.1 13.315 36.13 13.785C36.16 14.255 36.24 14.66 36.37 15H38.725C38.615 14.85 38.53 14.67 38.47 14.46C38.42 14.24 38.38 14.01 38.35 13.77C38.33 13.53 38.315 13.295 38.305 13.065C38.295 12.835 38.285 12.635 38.275 12.465C38.255 12.195 38.215 11.925 38.155 11.655C38.105 11.385 38.02 11.14 37.9 10.92C37.78 10.69 37.625 10.495 37.435 10.335C37.245 10.165 37.005 10.04 36.715 9.95997V9.92997C37.315 9.68997 37.745 9.33997 38.005 8.87997C38.275 8.41997 38.41 7.87497 38.41 7.24497C38.41 6.83497 38.335 6.45497 38.185 6.10497C38.045 5.74497 37.835 5.42997 37.555 5.15997C37.285 4.88997 36.955 4.67997 36.565 4.52997C36.185 4.36997 35.755 4.28997 35.275 4.28997H29.5Z" fill="black"/>
<path d="M43.3252 4.28997V15H45.6802V4.28997H43.3252Z" fill="black"/>
<path d="M53.104 13.02V6.26997H54.784C55.364 6.26997 55.849 6.35497 56.239 6.52497C56.639 6.68497 56.959 6.91997 57.199 7.22997C57.439 7.53997 57.609 7.91497 57.709 8.35497C57.819 8.78497 57.874 9.26997 57.874 9.80997C57.874 10.4 57.799 10.9 57.649 11.31C57.499 11.72 57.299 12.055 57.049 12.315C56.799 12.565 56.514 12.745 56.194 12.855C55.874 12.965 55.544 13.02 55.204 13.02H53.104ZM50.749 4.28997V15H55.369C56.189 15 56.899 14.865 57.499 14.595C58.109 14.315 58.614 13.935 59.014 13.455C59.424 12.975 59.729 12.405 59.929 11.745C60.129 11.085 60.229 10.365 60.229 9.58497C60.229 8.69497 60.104 7.91997 59.854 7.25997C59.614 6.59997 59.274 6.04997 58.834 5.60997C58.404 5.16997 57.889 4.83997 57.289 4.61997C56.699 4.39997 56.059 4.28997 55.369 4.28997H50.749Z" fill="black"/>
<path d="M66.7572 9.68997C66.7572 9.21997 66.8072 8.76497 66.9072 8.32497C67.0172 7.88497 67.1872 7.49497 67.4172 7.15497C67.6472 6.80497 67.9472 6.52997 68.3172 6.32997C68.6872 6.11997 69.1372 6.01497 69.6672 6.01497C70.1972 6.01497 70.6472 6.11997 71.0172 6.32997C71.3872 6.52997 71.6872 6.80497 71.9172 7.15497C72.1472 7.49497 72.3122 7.88497 72.4122 8.32497C72.5222 8.76497 72.5772 9.21997 72.5772 9.68997C72.5772 10.14 72.5222 10.58 72.4122 11.01C72.3122 11.43 72.1472 11.81 71.9172 12.15C71.6872 12.49 71.3872 12.765 71.0172 12.975C70.6472 13.175 70.1972 13.275 69.6672 13.275C69.1372 13.275 68.6872 13.175 68.3172 12.975C67.9472 12.765 67.6472 12.49 67.4172 12.15C67.1872 11.81 67.0172 11.43 66.9072 11.01C66.8072 10.58 66.7572 10.14 66.7572 9.68997ZM64.4022 9.68997C64.4022 10.47 64.5222 11.2 64.7622 11.88C65.0022 12.55 65.3472 13.135 65.7972 13.635C66.2472 14.135 66.7972 14.53 67.4472 14.82C68.1072 15.1 68.8472 15.24 69.6672 15.24C70.4972 15.24 71.2372 15.1 71.8872 14.82C72.5372 14.53 73.0872 14.135 73.5372 13.635C73.9872 13.135 74.3322 12.55 74.5722 11.88C74.8122 11.2 74.9322 10.47 74.9322 9.68997C74.9322 8.88997 74.8122 8.14997 74.5722 7.46997C74.3322 6.77997 73.9872 6.17997 73.5372 5.66997C73.0872 5.15997 72.5372 4.75997 71.8872 4.46997C71.2372 4.17997 70.4972 4.03497 69.6672 4.03497C68.8472 4.03497 68.1072 4.17997 67.4472 4.46997C66.7972 4.75997 66.2472 5.15997 65.7972 5.66997C65.3472 6.17997 65.0022 6.77997 64.7622 7.46997C64.5222 8.14997 64.4022 8.88997 64.4022 9.68997Z" fill="black"/>
<path d="M81.897 9.13497V6.11997H84.477C85.017 6.11997 85.422 6.23997 85.692 6.47997C85.962 6.70997 86.097 7.08497 86.097 7.60497C86.097 8.14497 85.962 8.53497 85.692 8.77497C85.422 9.01497 85.017 9.13497 84.477 9.13497H81.897ZM79.542 4.28997V15H81.897V10.815H84.252C84.842 10.815 85.267 10.945 85.527 11.205C85.787 11.465 85.957 11.875 86.037 12.435C86.097 12.865 86.142 13.315 86.172 13.785C86.202 14.255 86.282 14.66 86.412 15H88.767C88.657 14.85 88.572 14.67 88.512 14.46C88.462 14.24 88.422 14.01 88.392 13.77C88.372 13.53 88.357 13.295 88.347 13.065C88.337 12.835 88.327 12.635 88.317 12.465C88.297 12.195 88.257 11.925 88.197 11.655C88.147 11.385 88.062 11.14 87.942 10.92C87.822 10.69 87.667 10.495 87.477 10.335C87.287 10.165 87.047 10.04 86.757 9.95997V9.92997C87.357 9.68997 87.787 9.33997 88.047 8.87997C88.317 8.41997 88.452 7.87497 88.452 7.24497C88.452 6.83497 88.377 6.45497 88.227 6.10497C88.087 5.74497 87.877 5.42997 87.597 5.15997C87.327 4.88997 86.997 4.67997 86.607 4.52997C86.227 4.36997 85.797 4.28997 85.317 4.28997H79.542Z" fill="black"/>
<path d="M10.135 29.95V23.29H7.78V29.95C7.78 30.75 7.62 31.34 7.3 31.72C6.98 32.09 6.4 32.275 5.56 32.275C5.08 32.275 4.695 32.21 4.405 32.08C4.125 31.94 3.905 31.765 3.745 31.555C3.585 31.335 3.48 31.085 3.43 30.805C3.38 30.525 3.355 30.24 3.355 29.95V23.29H1V29.95C1 31.41 1.395 32.49 2.185 33.19C2.985 33.89 4.11 34.24 5.56 34.24C6.99 34.24 8.11 33.89 8.92 33.19C9.73 32.48 10.135 31.4 10.135 29.95Z" fill="black"/>
<path d="M21.0332 25.27V34H23.3882V25.27H26.5982V23.29H17.8232V25.27H21.0332Z" fill="black"/>
<path d="M34.3331 23.29V34H36.6881V23.29H34.3331Z" fill="black"/>
<path d="M45.2569 23.29V34H52.8319V32.02H47.6119V23.29H45.2569Z" fill="black"/>
<path d="M60.6485 23.29V34H63.0035V23.29H60.6485Z" fill="black"/>
<path d="M73.9423 25.27V34H76.2973V25.27H79.5073V23.29H70.7323V25.27H73.9423Z" fill="black"/>
<path d="M87.2423 23.29V34H89.5973V23.29H87.2423Z" fill="black"/>
<path d="M2.425 48.42V44.49H5.215C6.025 44.49 6.615 44.66 6.985 45C7.365 45.33 7.555 45.815 7.555 46.455C7.555 47.095 7.365 47.585 6.985 47.925C6.615 48.265 6.025 48.43 5.215 48.42H2.425ZM1 43.29V54H2.425V49.62H5.695C6.775 49.63 7.59 49.355 8.14 48.795C8.7 48.235 8.98 47.455 8.98 46.455C8.98 45.455 8.7 44.68 8.14 44.13C7.59 43.57 6.775 43.29 5.695 43.29H1Z" fill="black"/>
<path d="M17.4583 49.575L19.2733 44.58H19.3033L21.0883 49.575H17.4583ZM18.5233 43.29L14.3533 54H15.8083L17.0083 50.775H21.5383L22.7083 54H24.2833L20.0983 43.29H18.5233Z" fill="black"/>
<path d="M31.3398 43.29V54H32.7648V49.095H38.4048V54H39.8298V43.29H38.4048V47.895H32.7648V43.29H31.3398Z" fill="black"/>
<path d="M50.01 49.575L51.825 44.58H51.855L53.64 49.575H50.01ZM51.075 43.29L46.905 54H48.36L49.56 50.775H54.09L55.26 54H56.835L52.65 43.29H51.075Z" fill="black"/>
<path d="M63.8766 43.29V54H65.2266V45.405H65.2566L70.8516 54H72.4116V43.29H71.0616V51.975H71.0316L65.3916 43.29H63.8766Z" fill="black"/>
<path d="M88.7268 52.665L89.1018 54H90.0018V48.36H85.3068V49.56H88.7268C88.7468 50.05 88.6818 50.51 88.5318 50.94C88.3818 51.36 88.1568 51.73 87.8568 52.05C87.5668 52.36 87.2068 52.605 86.7768 52.785C86.3468 52.965 85.8518 53.055 85.2918 53.055C84.6918 53.055 84.1618 52.94 83.7018 52.71C83.2518 52.47 82.8718 52.155 82.5618 51.765C82.2518 51.365 82.0168 50.91 81.8568 50.4C81.6968 49.88 81.6168 49.34 81.6168 48.78C81.6168 48.21 81.6868 47.655 81.8268 47.115C81.9668 46.565 82.1818 46.08 82.4718 45.66C82.7718 45.23 83.1518 44.885 83.6118 44.625C84.0818 44.365 84.6418 44.235 85.2918 44.235C85.6918 44.235 86.0668 44.285 86.4168 44.385C86.7768 44.475 87.0968 44.615 87.3768 44.805C87.6568 44.995 87.8918 45.24 88.0818 45.54C88.2718 45.83 88.4018 46.18 88.4718 46.59H89.8968C89.7968 45.96 89.6068 45.425 89.3268 44.985C89.0568 44.535 88.7168 44.165 88.3068 43.875C87.9068 43.585 87.4468 43.375 86.9268 43.245C86.4168 43.105 85.8718 43.035 85.2918 43.035C84.4418 43.035 83.6968 43.195 83.0568 43.515C82.4268 43.825 81.8968 44.245 81.4668 44.775C81.0468 45.305 80.7268 45.925 80.5068 46.635C80.2968 47.335 80.1918 48.075 80.1918 48.855C80.1918 49.555 80.3068 50.23 80.5368 50.88C80.7668 51.53 81.1018 52.105 81.5418 52.605C81.9818 53.105 82.5168 53.505 83.1468 53.805C83.7768 54.095 84.4918 54.24 85.2918 54.24C85.9218 54.24 86.5468 54.12 87.1668 53.88C87.7868 53.63 88.3068 53.225 88.7268 52.665Z" fill="black"/>
<path fill-rule="evenodd" clip-rule="evenodd" d="M111.585 15.4208C113.448 9.86816 116.413 5.99268 119.748 5.32837V15.4208H111.585ZM121.668 15.4208V5.32837C125.003 5.99268 127.968 9.86816 129.831 15.4208H121.668ZM114.466 5.80896C109.134 7.33563 104.565 10.7956 101.502 15.4208H109.36C110.582 11.3374 112.346 8.01391 114.466 5.80896ZM132.056 15.4208C130.834 11.3374 129.07 8.01286 126.95 5.80896C132.282 7.33563 136.851 10.7967 139.914 15.4208H132.056ZM100.017 17.8237C98.3478 20.8468 97.3393 24.275 97.1805 27.9161H107.41C107.482 24.2872 107.936 20.8772 108.704 17.8237H100.017ZM109.664 27.9161C109.742 24.2983 110.237 20.864 111.049 17.8237H119.748V27.9161H109.664ZM121.668 17.8237V27.9161H131.752C131.673 24.2983 131.179 20.864 130.367 17.8237H121.668ZM134.004 27.9161C133.933 24.2872 133.48 20.8762 132.712 17.8237H141.399C143.069 20.8468 144.077 24.275 144.235 27.9161H134.004ZM97.1805 29.8385C97.3393 33.4796 98.3467 36.9078 100.017 39.9309H108.704C107.936 36.8774 107.483 33.4674 107.412 29.8385H97.1805ZM111.049 39.9309C110.237 36.8906 109.743 33.4563 109.664 29.8385H119.748V39.9309H111.049ZM121.668 29.8385V39.9309H130.367C131.179 36.8906 131.674 33.4573 131.752 29.8385H121.668ZM132.712 39.9309C133.48 36.8774 133.933 33.4674 134.006 29.8385H144.235C144.077 33.4796 143.068 36.9078 141.399 39.9309H132.712ZM101.502 42.3339C104.565 46.958 109.134 50.419 114.466 51.9457C112.346 49.7418 110.582 46.4172 109.36 42.3339H101.502ZM119.748 52.4263C116.413 51.762 113.448 47.8865 111.585 42.3339H119.748V52.4263ZM121.668 42.3339V52.4263C125.003 51.762 127.968 47.8865 129.831 42.3339H121.668ZM126.95 51.9457C129.07 49.7407 130.834 46.4172 132.056 42.3339H139.914C136.851 46.959 132.282 50.419 126.95 51.9457Z" fill="#293270"/>
<path d="M119.748 5.32837H120.47V4.44784L119.607 4.61987L119.748 5.32837ZM111.585 15.4208L110.9 15.191L110.581 16.1432H111.585V15.4208ZM119.748 15.4208V16.1432H120.47V15.4208H119.748ZM121.668 5.32837L121.809 4.61987L120.946 4.44784V5.32837H121.668ZM121.668 15.4208H120.946V16.1432H121.668V15.4208ZM129.831 15.4208V16.1432H130.835L130.516 15.191L129.831 15.4208ZM101.502 15.4208L100.9 15.0219L100.157 16.1432H101.502V15.4208ZM114.466 5.80896L114.987 6.30967L116.846 4.37619L114.267 5.11444L114.466 5.80896ZM109.36 15.4208V16.1432H109.898L110.052 15.628L109.36 15.4208ZM126.95 5.80896L127.149 5.11444L124.569 4.37584L126.429 6.30979L126.95 5.80896ZM132.056 15.4208L131.364 15.628L131.518 16.1432H132.056V15.4208ZM139.914 15.4208V16.1432H141.259L140.516 15.0218L139.914 15.4208ZM97.1805 27.9161L96.4588 27.8847L96.4259 28.6386H97.1805V27.9161ZM100.017 17.8237V17.1013H99.5911L99.385 17.4745L100.017 17.8237ZM107.41 27.9161V28.6386H108.118L108.132 27.9306L107.41 27.9161ZM108.704 17.8237L109.405 18L109.631 17.1013H108.704V17.8237ZM111.049 17.8237V17.1013H110.494L110.351 17.6374L111.049 17.8237ZM109.664 27.9161L108.942 27.9006L108.926 28.6386H109.664V27.9161ZM119.748 17.8237H120.47V17.1013H119.748V17.8237ZM119.748 27.9161V28.6386H120.47V27.9161H119.748ZM121.668 27.9161H120.946V28.6386H121.668V27.9161ZM121.668 17.8237V17.1013H120.946V17.8237H121.668ZM131.752 27.9161V28.6386H132.49L132.474 27.9004L131.752 27.9161ZM130.367 17.8237L131.065 17.6374L130.922 17.1013H130.367V17.8237ZM132.712 17.8237V17.1013H131.785L132.011 18L132.712 17.8237ZM134.004 27.9161L133.282 27.9304L133.296 28.6386H134.004V27.9161ZM141.399 17.8237L142.031 17.4743L141.825 17.1013H141.399V17.8237ZM144.235 27.9161V28.6386H144.99L144.957 27.8847L144.235 27.9161ZM100.017 39.9309L99.3851 40.2803L99.5913 40.6533H100.017V39.9309ZM97.1805 29.8385V29.1161H96.4259L96.4588 29.87L97.1805 29.8385ZM108.704 39.9309V40.6533H109.631L109.405 39.7546L108.704 39.9309ZM107.412 29.8385L108.134 29.8242L108.12 29.1161H107.412V29.8385ZM109.664 29.8385V29.1161H108.926L108.942 29.8542L109.664 29.8385ZM111.049 39.9309L110.351 40.1173L110.494 40.6533H111.049V39.9309ZM119.748 29.8385H120.47V29.1161H119.748V29.8385ZM119.748 39.9309V40.6533H120.47V39.9309H119.748ZM121.668 39.9309H120.946V40.6533H121.668V39.9309ZM121.668 29.8385V29.1161H120.946V29.8385H121.668ZM130.367 39.9309V40.6533H130.922L131.065 40.1173L130.367 39.9309ZM131.752 29.8385L132.474 29.854L132.49 29.1161H131.752V29.8385ZM134.006 29.8385V29.1161H133.298L133.284 29.824L134.006 29.8385ZM132.712 39.9309L132.011 39.7546L131.785 40.6533H132.712V39.9309ZM144.235 29.8385L144.957 29.87L144.99 29.1161H144.235V29.8385ZM141.399 39.9309V40.6533H141.825L142.031 40.2802L141.399 39.9309ZM114.466 51.9457L114.267 52.6402L116.847 53.3788L114.987 51.4448L114.466 51.9457ZM101.502 42.3339V41.6114H100.157L100.9 42.7328L101.502 42.3339ZM109.36 42.3339L110.052 42.1267L109.898 41.6114H109.36V42.3339ZM111.585 42.3339V41.6114H110.581L110.9 42.5636L111.585 42.3339ZM119.748 52.4263L119.607 53.1348L120.47 53.3068V52.4263H119.748ZM119.748 42.3339H120.47V41.6114H119.748V42.3339ZM121.668 52.4263H120.946V53.3068L121.809 53.1348L121.668 52.4263ZM121.668 42.3339V41.6114H120.946V42.3339H121.668ZM129.831 42.3339L130.516 42.5636L130.835 41.6114H129.831V42.3339ZM132.056 42.3339V41.6114H131.518L131.364 42.1267L132.056 42.3339ZM126.95 51.9457L126.429 51.445L124.57 53.3784L127.149 52.6402L126.95 51.9457ZM139.914 42.3339L140.516 42.7327L141.259 41.6114H139.914V42.3339ZM119.607 4.61987C117.713 4.997 116.003 6.26727 114.549 8.09131C113.092 9.92055 111.85 12.359 110.9 15.191L112.27 15.6505C113.183 12.93 114.355 10.6543 115.679 8.9916C117.008 7.32368 118.447 6.32405 119.889 6.03687L119.607 4.61987ZM120.47 15.4208V5.32837H119.025V15.4208H120.47ZM111.585 16.1432H119.748V14.6984H111.585V16.1432ZM120.946 5.32837V15.4208H122.391V5.32837H120.946ZM130.516 15.191C129.566 12.359 128.324 9.92055 126.867 8.09131C125.413 6.26727 123.703 4.997 121.809 4.61987L121.527 6.03687C122.969 6.32405 124.408 7.32368 125.737 8.9916C127.061 10.6543 128.233 12.93 129.146 15.6505L130.516 15.191ZM121.668 16.1432H129.831V14.6984H121.668V16.1432ZM102.104 15.8197C105.077 11.3307 109.506 7.98047 114.665 6.50348L114.267 5.11444C108.761 6.69079 104.053 10.2605 100.9 15.0219L102.104 15.8197ZM109.36 14.6984H101.502V16.1432H109.36V14.6984ZM113.945 5.30825C111.72 7.62232 109.911 11.0614 108.668 15.2136L110.052 15.628C111.254 11.6134 112.972 8.40551 114.987 6.30967L113.945 5.30825ZM126.429 6.30979C128.444 8.40448 130.162 11.6133 131.364 15.628L132.748 15.2136C131.505 11.0615 129.696 7.62125 127.471 5.30813L126.429 6.30979ZM140.516 15.0218C137.363 10.2616 132.655 6.69081 127.149 5.11444L126.751 6.50348C131.91 7.98045 136.339 11.3318 139.312 15.8197L140.516 15.0218ZM132.056 16.1432H139.914V14.6984H132.056V16.1432ZM97.9022 27.9476C98.056 24.4209 99.0326 21.1011 100.65 18.173L99.385 17.4745C97.6629 20.5926 96.6225 24.1292 96.4588 27.8847L97.9022 27.9476ZM107.41 27.1937H97.1805V28.6386H107.41V27.1937ZM108.004 17.6475C107.221 20.758 106.761 24.2226 106.687 27.9017L108.132 27.9306C108.204 24.3518 108.651 20.9963 109.405 18L108.004 17.6475ZM100.017 18.5461H108.704V17.1013H100.017V18.5461ZM110.351 17.6374C109.523 20.7364 109.021 24.2282 108.942 27.9006L110.387 27.9317C110.463 24.3684 110.951 20.9917 111.747 18.0101L110.351 17.6374ZM119.748 17.1013H111.049V18.5461H119.748V17.1013ZM120.47 27.9161V17.8237H119.025V27.9161H120.47ZM109.664 28.6386H119.748V27.1937H109.664V28.6386ZM122.391 27.9161V17.8237H120.946V27.9161H122.391ZM131.752 27.1937H121.668V28.6386H131.752V27.1937ZM129.669 18.0101C130.465 20.9916 130.952 24.3684 131.029 27.9319L132.474 27.9004C132.394 24.2283 131.893 20.7365 131.065 17.6374L129.669 18.0101ZM121.668 18.5461H130.367V17.1013H121.668V18.5461ZM132.011 18C132.765 20.9952 133.211 24.3515 133.282 27.9304L134.727 27.9019C134.654 24.2228 134.195 20.7572 133.412 17.6474L132.011 18ZM141.399 17.1013H132.712V18.5461H141.399V17.1013ZM144.957 27.8847C144.793 24.1293 143.754 20.5926 142.031 17.4743L140.766 18.1732C142.384 21.1011 143.36 24.4207 143.514 27.9476L144.957 27.8847ZM134.004 28.6386H144.235V27.1937H134.004V28.6386ZM100.65 39.5815C99.0316 36.6536 98.056 33.3339 97.9022 29.807L96.4588 29.87C96.6225 33.6253 97.6618 37.162 99.3851 40.2803L100.65 39.5815ZM108.704 39.2085H100.017V40.6533H108.704V39.2085ZM106.689 29.8528C106.762 33.5318 107.221 36.9965 108.004 40.1072L109.405 39.7546C108.651 36.7584 108.205 33.4031 108.134 29.8242L106.689 29.8528ZM97.1805 30.5609H107.412V29.1161H97.1805V30.5609ZM108.942 29.8542C109.022 33.5264 109.523 37.0181 110.351 40.1173L111.747 39.7445C110.951 36.7631 110.464 33.3863 110.387 29.8228L108.942 29.8542ZM119.748 29.1161H109.664V30.5609H119.748V29.1161ZM120.47 39.9309V29.8385H119.025V39.9309H120.47ZM111.049 40.6533H119.748V39.2085H111.049V40.6533ZM122.391 39.9309V29.8385H120.946V39.9309H122.391ZM130.367 39.2085H121.668V40.6533H130.367V39.2085ZM131.029 29.823C130.953 33.3872 130.465 36.7629 129.669 39.7445L131.065 40.1173C131.893 37.0183 132.395 33.5275 132.474 29.854L131.029 29.823ZM121.668 30.5609H131.752V29.1161H121.668V30.5609ZM133.284 29.824C133.212 33.4029 132.765 36.7583 132.011 39.7546L133.412 40.1072C134.195 36.9966 134.655 33.532 134.729 29.853L133.284 29.824ZM144.235 29.1161H134.006V30.5609H144.235V29.1161ZM142.031 40.2802C143.753 37.162 144.793 33.6254 144.957 29.87L143.514 29.807C143.36 33.3338 142.383 36.6535 140.766 39.5816L142.031 40.2802ZM132.712 40.6533H141.399V39.2085H132.712V40.6533ZM114.665 51.2512C109.506 49.7742 105.077 46.4229 102.104 41.9349L100.9 42.7328C104.053 47.493 108.761 51.0638 114.267 52.6402L114.665 51.2512ZM108.668 42.541C109.911 46.6931 111.72 50.1334 113.945 52.4465L114.987 51.4448C112.972 49.3502 111.254 46.1413 110.052 42.1267L108.668 42.541ZM101.502 43.0563H109.36V41.6114H101.502V43.0563ZM110.9 42.5636C111.85 45.3957 113.092 47.8341 114.549 49.6633C116.003 51.4874 117.713 52.7576 119.607 53.1348L119.889 51.7178C118.447 51.4306 117.008 50.431 115.679 48.763C114.355 47.1003 113.183 44.8247 112.27 42.1041L110.9 42.5636ZM119.748 41.6114H111.585V43.0563H119.748V41.6114ZM120.47 52.4263V42.3339H119.025V52.4263H120.47ZM122.391 52.4263V42.3339H120.946V52.4263H122.391ZM129.146 42.1041C128.233 44.8247 127.061 47.1003 125.737 48.763C124.408 50.431 122.969 51.4306 121.527 51.7178L121.809 53.1348C123.703 52.7576 125.413 51.4874 126.867 49.6633C128.324 47.8341 129.566 45.3957 130.516 42.5636L129.146 42.1041ZM121.668 43.0563H129.831V41.6114H121.668V43.0563ZM131.364 42.1267C130.162 46.1412 128.444 49.3491 126.429 51.445L127.471 52.4464C129.696 50.1323 131.505 46.6932 132.748 42.541L131.364 42.1267ZM139.914 41.6114H132.056V43.0563H139.914V41.6114ZM127.149 52.6402C132.655 51.0638 137.363 47.4941 140.516 42.7327L139.312 41.935C136.339 46.4239 131.91 49.7742 126.751 51.2512L127.149 52.6402Z" fill="#293270"/>
<ellipse cx="121.188" cy="28.8773" rx="24.9679" ry="24.9907" fill="url(#paint0_linear_109_6)"/>
<path fill-rule="evenodd" clip-rule="evenodd" d="M115.125 7.41005C108.105 4.93739 101.874 5.27158 98.5573 8.95541C92.7876 15.3633 98.0192 29.48 110.242 40.4858C122.466 51.4916 137.052 55.2189 142.821 48.811C146.099 45.1707 145.826 39.0424 142.738 32.41H142.731C145.092 37.9614 145.198 42.9632 142.489 45.9727C137.34 51.6905 123.977 48.0513 112.641 37.8443C101.305 27.6373 96.2887 14.7277 101.437 9.00981C104.181 5.96191 109.26 5.57274 115.121 7.41986L115.125 7.41005Z" fill="#FB9900"/>
<path fill-rule="evenodd" clip-rule="evenodd" d="M98.7051 25.4256C93.738 30.7707 91.5963 36.502 93.5851 40.9689C97.0923 48.8461 112.116 49.8086 127.142 43.1186C142.168 36.4287 151.506 24.6196 147.999 16.7423C146.017 12.2912 140.358 10.0479 133.099 10.1456V10.1564C139.072 10.2808 143.634 12.2171 145.271 15.892C148.4 22.9209 139.64 33.6487 125.705 39.8531C111.769 46.0575 97.9356 45.3891 94.8061 38.3602C93.1653 34.6747 94.793 29.9724 98.7215 25.4384L98.7051 25.4256Z" fill="#FB9900"/>
<path fill-rule="evenodd" clip-rule="evenodd" d="M91.5896 22.8357C93.3823 14.4014 107.878 10.3363 123.966 13.756C140.055 17.1757 151.644 26.7853 149.851 35.2196C148.82 40.0731 143.581 43.4798 136.254 44.846L136.252 44.8363C142.264 43.5074 146.476 40.629 147.33 36.6124C148.93 29.0864 138.131 20.4144 123.21 17.2429C108.289 14.0713 94.8968 17.6013 93.2971 25.1273C92.4592 29.0693 95.0228 33.3258 99.7987 36.9415L99.7931 36.9494C93.8461 32.7584 90.575 27.6088 91.5896 22.8357Z" fill="#FB9900"/>
</g>
<defs>
<linearGradient id="paint0_linear_109_6" x1="82.4175" y1="10.8307" x2="107.376" y2="44.2879" gradientUnits="userSpaceOnUse">
<stop stop-color="#EEEEEE" stop-opacity="0.01"/>
<stop stop-color="#41497F" stop-opacity="0.878232"/>
<stop stop-color="#8186A8" stop-opacity="0.552969"/>
<stop offset="0.999572" stop-color="#293270"/>
</linearGradient>
<clipPath id="clip0_109_6">
<rect width="150" height="58" fill="white"/>
</clipPath>
</defs>
</svg>
