<svg xmlns="http://www.w3.org/2000/svg"  viewBox="0 0 4335 4335" width="67px" height="67px" fill-rule="evenodd" clip-rule="evenodd" image-rendering="optimizeQuality" shape-rendering="geometricPrecision" text-rendering="geometricPrecision"><path fill="#093" d="M2397 4281c45,-7 100,-37 164,-108l0 0 1063 -1892 -528 -259c-151,155 -362,251 -595,251 -95,0 -186,-16 -271,-45l0 1948c0,0 56,122 168,105z"/><path fill="#093" d="M2500 76c767,0 1388,622 1388,1388 0,767 -622,1388 -1388,1388 -767,0 -1388,-622 -1388,-1388 0,-767 622,-1388 1388,-1388zm0 536c459,0 831,372 831,831 0,459 -372,831 -831,831 -459,0 -831,-372 -831,-831 0,-459 372,-831 831,-831z"/><path fill="#366" d="M2500 172c714,0 1293,579 1293,1293 0,714 -579,1293 -1293,1293 -714,0 -1293,-579 -1293,-1293 0,-714 579,-1293 1293,-1293zm0 440c459,0 831,372 831,831 0,459 -372,831 -831,831 -459,0 -831,-372 -831,-831 0,-459 372,-831 831,-831z"/><path fill="#396" d="M2500 284c652,0 1181,529 1181,1181 0,652 -529,1181 -1181,1181 -652,0 -1181,-529 -1181,-1181 0,-652 529,-1181 1181,-1181zm0 328c459,0 831,372 831,831 0,459 -372,831 -831,831 -459,0 -831,-372 -831,-831 0,-459 372,-831 831,-831z"/><path fill="#396" d="M2500 750c382,0 692,310 692,692 0,382 -310,692 -692,692 -382,0 -692,-310 -692,-692 0,-382 310,-692 692,-692z"/><path fill="#093" d="M2500 855c324,0 587,263 587,587 0,324 -263,587 -587,587 -324,0 -587,-263 -587,-587 0,-324 263,-587 587,-587z"/><path fill="#2bb32b" d="M2500 953l0 0 0 979 0 0c-270,0 -490,-219 -490,-490 0,-270 219,-490 490,-490z"/></svg>