<svg xmlns="http://www.w3.org/2000/svg"  viewBox="0 0 135 135" width="65px" height="65px"><g id="_x31_22"><circle cx="67.5" cy="67.5" r="64" fill="#ffc536"/><g id="Ai-robotics-brain-technology-artificial_intelligence"><path fill="#393e46" d="M82.4,46.1h-3.1V40c0-0.5,0.3-1,0.7-1.3l3.9-2.6v-5.3H87V37c0,0.5-0.3,1-0.7,1.3l-3.9,2.6V46.1z"/><path fill="#393e46" d="M87,104.1H84v-5.3l-3.9-2.6c-0.4-0.3-0.7-0.8-0.7-1.3v-6.1h3.1v5.3l3.9,2.6C86.8,97,87,97.5,87,98V104.1z"/><path fill="#393e46" d="M97.7,66h9.2V69h-9.2V66z"/><path fill="#393e46" d="M106.8,90.4h-6.1c-0.5,0-1-0.3-1.3-0.7l-2.6-3.9h-8.3v-3.1h9.2c0.5,0,1,0.3,1.3,0.7l2.6,3.9h5.3V90.4z"/><path fill="#393e46" d="M97.7,52.2h-9.2v-3.1h8.3l2.6-3.9c0.3-0.4,0.8-0.7,1.3-0.7h6.1v3.1h-5.3L99,51.6 C98.7,52,98.2,52.3,97.7,52.2z"/><circle cx="85.5" cy="107.2" r="4.6" fill="#fff"/><circle cx="109.9" cy="88.9" r="4.6" fill="#fff"/><circle cx="109.9" cy="67.5" r="4.6" fill="#fff"/><circle cx="109.9" cy="46.1" r="4.6" fill="#fff"/><circle cx="85.5" cy="27.8" r="4.6" fill="#fff"/></g><g id="Ai-robotics-brain-technology-artificial_intelligence_1_"><path fill="#393e46" d="M52.6,46.1h3.1V40c0-0.5-0.3-1-0.7-1.3L51,36.2v-5.3H48V37c0,0.5,0.3,1,0.7,1.3l3.9,2.6V46.1z"/><path fill="#393e46" d="M48,104.1H51v-5.3l3.9-2.6c0.4-0.3,0.7-0.8,0.7-1.3v-6.1h-3.1v5.3l-3.9,2.6C48.2,97,48,97.5,48,98V104.1z"/><path fill="#393e46" d="M37.3,66h-9.2V69h9.2L37.3,66z"/><path fill="#393e46" d="M28.2,90.4h6.1c0.5,0,1-0.3,1.3-0.7l2.6-3.9h8.3v-3.1h-9.2c-0.5,0-1,0.3-1.3,0.7l-2.6,3.9h-5.3V90.4z"/><path fill="#393e46" d="M37.3,52.2h9.2v-3.1h-8.3l-2.6-3.9c-0.3-0.4-0.8-0.7-1.3-0.7h-6.1v3.1h5.3l2.6,3.9 C36.3,52,36.8,52.3,37.3,52.2z"/><circle cx="49.5" cy="107.2" r="4.6" fill="#fff"/><circle cx="25.1" cy="88.9" r="4.6" fill="#fff"/><circle cx="25.1" cy="67.5" r="4.6" fill="#fff"/><circle cx="25.1" cy="46.1" r="4.6" fill="#fff"/><circle cx="49.5" cy="27.8" r="4.6" fill="#fff"/></g><path fill="#fe4c40" d="M92.8,71.6h-3.6c2.3,0,4.1,1.8,4.1,4.1c0,2.2-1.8,4.1-4.1,4.1h-3.6c2.2,0,4.1,1.8,4.1,4.1 c0,2.2-1.8,4.1-4.1,4.1h-3.7c0,0.1,0,0.1,0,0.2c0,4.6-3.8,8.4-8.4,8.4c-2.6,0-4.9-1.2-6.5-3c-1.5,1.8-3.9,3-6.5,3 c-4.6,0-8.4-3.8-8.4-8.4c0-0.1,0-0.2,0-0.3h-3.7c-1.1,0-2.1-0.4-2.9-1.2c-0.7-0.7-1.2-1.7-1.2-2.9c0-2.3,1.8-4.1,4.1-4.1h-3.6 c-2.3,0-4.1-1.8-4.1-4.1c0-2.2,1.8-4.1,4.1-4.1h-3.6c-2.2,0-4.1-1.8-4.1-4.1c0-2.2,1.8-4.1,4.1-4.1h3.6 c-2.3,0-4.1-1.8-4.1-4.1s1.8-4.1,4.1-4.1h3.6c-2.2,0-4.1-1.8-4.1-4.1c0-2.3,1.8-4.1,4.1-4.1h3.7c0-0.1,0-0.1,0-0.2 c0-4.6,3.7-8.4,8.4-8.4c2.6,0,4.9,1.2,6.5,3c1.5-1.8,3.9-3,6.5-3c4.6,0,8.4,3.8,8.4,8.4c0,0.1,0,0.2,0,0.3h3.7 c1.1,0,2.1,0.5,2.9,1.2c0.7,0.7,1.2,1.7,1.2,2.9c0,2.3-1.8,4.1-4.1,4.1h3.6c2.3,0,4.1,1.8,4.1,4.1c0,2.2-1.8,4.1-4.1,4.1h3.6 c2.2,0,4.1,1.8,4.1,4.1C96.8,69.8,95,71.6,92.8,71.6z"/><path fill="#fe4c40" d="M73.5,97.4c-2.4,0-4.7-0.9-6.5-2.6c-1.7,1.7-4,2.6-6.5,2.6c-4.9,0-9-3.9-9.2-8.7h-2.8 c-1.3,0-2.6-0.5-3.5-1.5c-0.9-0.9-1.5-2.2-1.5-3.5c0-1.2,0.4-2.4,1.2-3.2c-2.7-0.1-4.8-2.3-4.8-4.9c0-1.2,0.4-2.4,1.2-3.2 c-2.7-0.1-4.8-2.3-4.8-4.9c0-2.7,2.1-4.9,4.8-4.9c-0.7-0.9-1.2-2-1.2-3.2c0-2.7,2.1-4.9,4.8-4.9c-0.7-0.9-1.2-2-1.2-3.2 c0-2.7,2.2-5,5-5h2.9c0.3-4.8,4.3-8.6,9.2-8.6c2.4,0,4.7,0.9,6.5,2.6c1.7-1.7,4-2.6,6.5-2.6c4.9,0,9,3.9,9.2,8.7h2.8 c1.3,0,2.6,0.5,3.5,1.5c0.9,0.9,1.5,2.2,1.5,3.5c0,1.2-0.4,2.4-1.2,3.2c2.7,0.1,4.8,2.3,4.8,4.9c0,1.2-0.4,2.3-1.2,3.2 c2.7,0.1,4.8,2.3,4.8,4.9c0,2.7-2.1,4.9-4.8,4.9c0.7,0.9,1.2,2,1.2,3.2c0,2.7-2.1,4.8-4.8,4.9c0.7,0.9,1.2,2,1.2,3.2 c0,2.7-2.2,5-5,5h-2.9C82.4,93.6,78.4,97.4,73.5,97.4z M67,92.7c0.3,0,0.5,0.1,0.7,0.3c1.4,1.7,3.5,2.7,5.8,2.7 c4.1,0,7.5-3.4,7.5-7.5c0-0.3,0-0.6,0.2-0.8c0.2-0.2,0.4-0.4,0.7-0.4h3.7c1.8,0,3.2-1.4,3.2-3.2c0-1.8-1.4-3.2-3.2-3.2 c-0.5,0-0.9-0.4-0.9-0.9s0.4-0.9,0.9-0.9h3.6c1.8,0,3.2-1.4,3.2-3.2c0-1.8-1.4-3.2-3.2-3.2c-0.5,0-0.9-0.4-0.9-0.9 s0.4-0.9,0.9-0.9h3.6c1.8,0,3.2-1.4,3.2-3.2c0-1.8-1.4-3.2-3.2-3.2h-3.6c-0.5,0-0.9-0.4-0.9-0.9s0.4-0.9,0.9-0.9 c1.8,0,3.2-1.4,3.2-3.2c0-1.8-1.4-3.2-3.2-3.2h-3.6c-0.5,0-0.9-0.4-0.9-0.9s0.4-0.9,0.9-0.9c1.8,0,3.2-1.4,3.2-3.2 c0-0.9-0.3-1.7-0.9-2.3c-0.6-0.6-1.4-1-2.3-1h-3.7c-0.2,0-0.5-0.1-0.7-0.3C81,47.5,80.9,47.3,81,47c0-0.1,0-0.1,0-0.2 c0-4.1-3.4-7.5-7.5-7.5c-2.2,0-4.3,1-5.8,2.7c-0.2,0.2-0.4,0.3-0.7,0.3l0,0c-0.3,0-0.5-0.1-0.7-0.3c-1.4-1.7-3.5-2.7-5.8-2.7 c-4.1,0-7.5,3.4-7.5,7.5c0,0.3,0,0.6-0.2,0.8c-0.2,0.2-0.4,0.4-0.7,0.4h-3.7c-1.8,0-3.2,1.4-3.2,3.2c0,1.8,1.4,3.2,3.2,3.2 c0.5,0,0.9,0.4,0.9,0.9s-0.4,0.9-0.9,0.9h-3.6c-1.8,0-3.2,1.4-3.2,3.2c0,1.8,1.4,3.2,3.2,3.2c0.5,0,0.9,0.4,0.9,0.9 s-0.4,0.9-0.9,0.9h-3.6c-1.8,0-3.2,1.4-3.2,3.2c0,1.8,1.4,3.2,3.2,3.2h3.6c0.5,0,0.9,0.4,0.9,0.9s-0.4,0.9-0.9,0.9 c-1.8,0-3.2,1.4-3.2,3.2s1.4,3.2,3.2,3.2h3.6c0.5,0,0.9,0.4,0.9,0.9s-0.4,0.9-0.9,0.9c-1.8,0-3.2,1.4-3.2,3.2 c0,0.8,0.3,1.7,0.9,2.3c0.6,0.6,1.4,0.9,2.3,0.9h3.7c0.2,0,0.5,0.1,0.6,0.3c0.2,0.2,0.2,0.4,0.2,0.7c0,0.1,0,0.2,0,0.2 c0,4.1,3.4,7.5,7.5,7.5c2.2,0,4.3-1,5.8-2.7C66.5,92.8,66.8,92.7,67,92.7z"/><path fill="#ea241f" d="M55.2,56.1h-6.7c-0.5,0-0.9-0.4-0.9-0.9s0.4-0.9,0.9-0.9h6.7c1.8,0,3.2-1.4,3.2-3.2 c0-0.9-0.3-1.7-0.9-2.3c-0.3-0.3-0.3-0.9,0-1.2s0.9-0.3,1.2,0c0.9,0.9,1.4,2.2,1.4,3.5C60.1,53.9,57.9,56.1,55.2,56.1z"/><path fill="#ea241f" d="M52.9,64.2h-6.8c-0.5,0-0.9-0.4-0.9-0.9s0.4-0.9,0.9-0.9h6.8c1.8,0,3.2-1.4,3.2-3.2 c0-0.5,0.4-0.9,0.9-0.9s0.9,0.4,0.9,0.9C57.8,62,55.6,64.2,52.9,64.2z"/><path fill="#ea241f" d="M50.7,80.6h-6.8c-0.5,0-0.9-0.4-0.9-0.9s0.4-0.9,0.9-0.9h6.8c1.8,0,3.2-1.4,3.2-3.2 c0-1.3-0.8-2.4-1.9-2.9c-0.4-0.2-0.6-0.7-0.4-1.1c0.2-0.4,0.7-0.6,1.1-0.4c1.8,0.8,3,2.6,3,4.5 C55.7,78.3,53.5,80.6,50.7,80.6z"/><path fill="#ea241f" d="M62.6,86.1c-0.1,0-0.2,0-0.3-0.1c-0.4-0.2-0.7-0.7-0.5-1.1c0.1-0.4,0.2-0.7,0.2-1.1 c0-1.8-1.4-3.2-3.2-3.2h-7.7c-0.5,0-0.9-0.4-0.9-0.9s0.4-0.9,0.9-0.9h7.7c2.7,0,4.9,2.2,4.9,4.9c0,0.6-0.1,1.2-0.3,1.8 C63.3,85.9,62.9,86.1,62.6,86.1z"/><path fill="#ea241f" d="M52.2,89c-0.5,0-0.9-0.4-0.9-0.9c0-1.9,0.6-3.7,1.7-5.3c0.3-0.4,0.8-0.5,1.2-0.2c0.4,0.3,0.5,0.8,0.2,1.2 c-0.9,1.3-1.3,2.7-1.3,4.3C53,88.6,52.7,89,52.2,89z"/><path fill="#ea241f" d="M53.8,52.6c-0.3,0-0.5-0.1-0.7-0.4c-1.2-1.6-1.8-3.5-1.8-5.4c0-0.5,0.4-0.9,0.9-0.9s0.9,0.4,0.9,0.9 c0,1.6,0.5,3.1,1.4,4.4c0.3,0.4,0.2,0.9-0.2,1.2C54.1,52.6,54,52.6,53.8,52.6z"/><g><path fill="#ea241f" d="M60.8,60.4c-0.2,0-0.4-0.1-0.5-0.2c-0.4-0.3-0.4-0.8-0.1-1.2c0.2-0.2,0.3-0.5,0.5-0.8 c0.4-0.9,0.5-2,0.1-2.9c-0.3-1-1-1.7-2-2.2c-0.4-0.2-0.6-0.7-0.4-1.2c0.2-0.4,0.7-0.6,1.2-0.4c1.3,0.6,2.4,1.7,2.9,3.1 c0.5,1.4,0.4,2.9-0.2,4.2c-0.2,0.4-0.4,0.8-0.7,1.1C61.4,60.3,61.1,60.4,60.8,60.4z"/></g><g><path fill="#ea241f" d="M55,76c-0.4,0-0.8-0.3-0.9-0.7c-0.1-0.5,0.2-0.9,0.7-1c0.8-0.1,1.5-0.6,2-1.2c0.5-0.7,0.6-1.5,0.5-2.3 c-0.1-0.5,0.2-0.9,0.7-1c0.5-0.1,0.9,0.2,1,0.7c0.2,1.3-0.1,2.5-0.8,3.6c-0.7,1-1.8,1.7-3.1,1.9C55.1,76,55.1,76,55,76z"/></g><g><path fill="#ea241f" d="M49.5,70.2c-0.1,0-0.3,0-0.4-0.1c-0.4-0.2-0.6-0.7-0.4-1.2c0.2-0.5,0.4-1,0.4-1.5c0-1.8-1.4-3.2-3.2-3.2 H41c-0.5,0-0.9-0.4-0.9-0.9s0.4-0.9,0.9-0.9h4.9c2.7,0,4.9,2.2,4.9,4.9c0,0.8-0.2,1.6-0.6,2.3C50.1,70,49.8,70.2,49.5,70.2z"/></g><g><path fill="#ea241f" d="M76,87.6c-0.2,0-0.4-0.1-0.6-0.3c-0.9-0.9-1.4-2.2-1.4-3.5c0-2.7,2.2-4.9,4.9-4.9h6.7 c0.5,0,0.9,0.4,0.9,0.9s-0.4,0.9-0.9,0.9h-6.7c-1.8,0-3.2,1.4-3.2,3.2c0,0.9,0.3,1.7,0.9,2.3c0.3,0.3,0.3,0.9,0,1.2 C76.4,87.5,76.2,87.6,76,87.6z"/><path fill="#ea241f" d="M77.1,76.6c-0.5,0-0.9-0.4-0.9-0.9c0-2.7,2.2-4.9,4.9-4.9h6.8c0.5,0,0.9,0.4,0.9,0.9s-0.4,0.9-0.9,0.9 h-6.8c-1.8,0-3.2,1.4-3.2,3.2C77.9,76.2,77.5,76.6,77.1,76.6z"/><path fill="#ea241f" d="M81.6,64c-0.1,0-0.2,0-0.3-0.1c-1.8-0.8-3-2.6-3-4.5c0-2.7,2.2-4.9,4.9-4.9h6.8c0.5,0,0.9,0.4,0.9,0.9 c0,0.5-0.4,0.9-0.9,0.9h-6.8c-1.8,0-3.2,1.4-3.2,3.2c0,1.3,0.8,2.4,1.9,2.9c0.4,0.2,0.6,0.7,0.4,1.1 C82.3,63.8,82,64,81.6,64z"/><path fill="#ea241f" d="M82.9,56.2h-7.7c-2.7,0-5-2.2-5-4.9c0-0.6,0.1-1.2,0.3-1.8c0.2-0.4,0.7-0.7,1.1-0.5s0.7,0.7,0.5,1.1 c-0.1,0.4-0.2,0.7-0.2,1.1c0,1.8,1.4,3.2,3.2,3.2h7.7c0.5,0,0.9,0.4,0.9,0.9C83.8,55.8,83.4,56.2,82.9,56.2z"/><path fill="#ea241f" d="M80.3,52.5c-0.2,0-0.3-0.1-0.5-0.2c-0.4-0.3-0.5-0.8-0.2-1.2c0.9-1.3,1.3-2.7,1.3-4.3 c0-0.5,0.4-0.9,0.9-0.9s0.9,0.4,0.9,0.9c0,1.9-0.6,3.7-1.7,5.3C80.9,52.4,80.6,52.5,80.3,52.5z"/><path fill="#ea241f" d="M81.8,89c-0.5,0-0.9-0.4-0.9-0.9c0-1.6-0.5-3.1-1.4-4.4c-0.3-0.4-0.2-0.9,0.2-1.2c0.4-0.3,0.9-0.2,1.2,0.2 c1.2,1.6,1.8,3.5,1.8,5.4C82.7,88.7,82.3,89,81.8,89z"/><g><path fill="#ea241f" d="M74.9,83.5c-0.1,0-0.2,0-0.4-0.1c-2.8-1.3-4-4.6-2.7-7.4c0.2-0.4,0.4-0.8,0.7-1.1c0.3-0.4,0.8-0.4,1.2-0.1 c0.4,0.3,0.4,0.8,0.1,1.2c-0.2,0.2-0.3,0.5-0.5,0.8c-0.9,1.9-0.1,4.2,1.8,5.1c0.4,0.2,0.6,0.7,0.4,1.2 C75.5,83.3,75.2,83.5,74.9,83.5z"/></g><g><path fill="#ea241f" d="M75.8,65.2c-0.4,0-0.8-0.3-0.9-0.7c-0.4-2.6,1.3-5.1,3.9-5.5c0.5-0.1,0.9,0.2,1,0.7c0.1,0.5-0.2,0.9-0.7,1 c-1.6,0.3-2.7,1.9-2.5,3.5c0.1,0.5-0.2,0.9-0.7,1C75.9,65.2,75.9,65.2,75.8,65.2z"/></g><g><path fill="#ea241f" d="M93,72.5h-4.9c-2.7,0-4.9-2.2-4.9-4.9c0-0.8,0.2-1.6,0.6-2.3c0.2-0.4,0.7-0.6,1.2-0.4 c0.4,0.2,0.6,0.7,0.4,1.2c-0.2,0.5-0.4,1-0.4,1.5c0,1.8,1.4,3.2,3.2,3.2H93c0.5,0,0.9,0.4,0.9,0.9S93.5,72.5,93,72.5z"/></g></g><g><path fill="#ea241f" d="M67,94.4c-0.5,0-0.9-0.4-0.9-0.9V41.5c0-0.5,0.4-0.9,0.9-0.9s0.9,0.4,0.9,0.9v52.1 C67.9,94,67.5,94.4,67,94.4z"/></g><path fill="#fff" d="M90.7,84.9c-2.9,0.1-5.1,2.6-5,5.4c-0.1-1.4-0.7-2.7-1.7-3.6c-1-0.9-2.3-1.5-3.8-1.4c2.9-0.1,5.1-2.6,5-5.4 l0,0C85.4,82.8,87.8,85,90.7,84.9z"/><path fill="#fff" d="M63.1,49.1c-2.9,0.1-5.1,2.6-5,5.4c-0.1-1.4-0.7-2.7-1.7-3.6c-1-0.9-2.3-1.5-3.8-1.4c2.9-0.1,5.1-2.6,5-5.4 l0,0C57.7,46.9,60.2,49.2,63.1,49.1z"/></g></svg>