<svg xmlns="http://www.w3.org/2000/svg"  viewBox="0 0 256 256" width="128px" height="128px"><circle cx="128" cy="128" r="120" fill="#382b73"/><circle cx="128" cy="128" r="102.5" fill="#473080"/><path fill="#382b73" d="M173.502,141.047h-7.275c0.045-0.303,0.068-0.614,0.068-0.929v-21.781c0-3.5-2.837-6.336-6.336-6.336h-1.188 v-6.138h1.188c3.5,0,6.336-2.837,6.336-6.336V77.744c0-3.499-2.837-6.336-6.336-6.336H75.21c-3.5,0-6.336,2.837-6.336,6.336 v21.781c0,3.5,2.837,6.336,6.336,6.336h1.188V112H75.21c-3.5,0-6.336,2.837-6.336,6.336v21.781c0,3.5,2.837,6.336,6.336,6.336 h1.188v6.138H75.21c-3.5,0-6.336,2.837-6.336,6.336v21.781c0,3.5,2.837,6.336,6.336,6.336h37.053v9.546c0,1.105,0.895,2,2,2 h59.239c1.105,0,2-0.895,2-2v-53.545C175.502,141.942,174.607,141.047,173.502,141.047z"/><path fill="#382b73" d="M201,124.815h-5.339V113.87c0-2.3-1.865-4.165-4.165-4.165h-7.513c-2.301,0-4.165,1.865-4.165,4.165v10.945 h-5.339c-2.59,0-3.965,3.059-2.246,4.996l13.261,14.939c1.195,1.346,3.297,1.346,4.491,0l13.261-14.939 C204.965,127.875,203.59,124.815,201,124.815z"/><g><rect width="82.373" height="115.639" x="76.398" y="64.408" fill="#a72973"/><path fill="#ef5a9d" d="M159.959,98.862H75.21c-3.5,0-6.336-2.837-6.336-6.336V70.744c0-3.499,2.837-6.336,6.336-6.336 h84.749c3.499,0,6.336,2.837,6.336,6.336v21.781C166.296,96.025,163.459,98.862,159.959,98.862z"/><path fill="#e43d91" d="M159.959,94.109H75.21c-3.5,0-6.336-2.837-6.336-6.336v4.752c0,3.5,2.837,6.336,6.336,6.336h84.749 c3.5,0,6.336-2.837,6.336-6.336v-4.752C166.296,91.273,163.459,94.109,159.959,94.109z"/><circle cx="88.081" cy="81.635" r="6.138" fill="#fede3a"/><path fill="#f7cb15" d="M88.081,84.605c-2.839,0-5.204-1.937-5.906-4.554c-0.136,0.508-0.232,1.033-0.232,1.584 c0,3.39,2.748,6.138,6.138,6.138c3.39,0,6.138-2.748,6.138-6.138c0-0.551-0.096-1.076-0.233-1.584 C93.285,82.668,90.919,84.605,88.081,84.605z"/><path fill="#fede3a" d="M137.44,87.773L137.44,87.773c-1.035,0-1.874-0.839-1.874-1.874v-8.495 c0-1.035,0.839-1.874,1.874-1.874l0,0c1.035,0,1.874,0.839,1.874,1.874v8.495 C139.314,86.934,138.475,87.773,137.44,87.773z"/><path fill="#fede3a" d="M137.44,87.773L137.44,87.773c-1.035,0-1.874-0.839-1.874-1.874v-8.495 c0-1.035,0.839-1.874,1.874-1.874l0,0c1.035,0,1.874,0.839,1.874,1.874v8.495 C139.314,86.934,138.475,87.773,137.44,87.773z"/><path fill="#f7cb15" d="M137.44,84.605c-1.035,0-1.874-0.839-1.874-1.874v3.168c0,1.035,0.839,1.874,1.874,1.874 s1.874-0.839,1.874-1.874v-3.168C139.314,83.766,138.475,84.605,137.44,84.605z"/><path fill="#fede3a" d="M145.757,87.773L145.757,87.773c-1.035,0-1.874-0.839-1.874-1.874v-8.495 c0-1.035,0.839-1.874,1.874-1.874l0,0c1.035,0,1.874,0.839,1.874,1.874v8.495 C147.631,86.934,146.792,87.773,145.757,87.773z"/><path fill="#fede3a" d="M154.073,87.773L154.073,87.773c-1.035,0-1.874-0.839-1.874-1.874v-8.495 c0-1.035,0.839-1.874,1.874-1.874l0,0c1.035,0,1.874,0.839,1.874,1.874v8.495 C155.947,86.934,155.108,87.773,154.073,87.773z"/><path fill="#f7cb15" d="M145.757,84.605c-1.035,0-1.874-0.839-1.874-1.874v3.168c0,1.035,0.839,1.874,1.874,1.874 c1.035,0,1.874-0.839,1.874-1.874v-3.168C147.631,83.766,146.792,84.605,145.757,84.605z"/><path fill="#f7cb15" d="M154.073,84.605c-1.035,0-1.874-0.839-1.874-1.874v3.168c0,1.035,0.839,1.874,1.874,1.874 c1.035,0,1.874-0.839,1.874-1.874v-3.168C155.947,83.766,155.108,84.605,154.073,84.605z"/><g><path fill="#ef5a9d" d="M159.959,139.454H75.21c-3.5,0-6.336-2.837-6.336-6.336v-21.781c0-3.5,2.837-6.336,6.336-6.336 h84.749c3.499,0,6.336,2.837,6.336,6.336v21.781C166.296,136.617,163.459,139.454,159.959,139.454z"/><path fill="#e43d91" d="M159.959,134.702H75.21c-3.5,0-6.336-2.837-6.336-6.336v4.752c0,3.5,2.837,6.336,6.336,6.336h84.749 c3.5,0,6.336-2.837,6.336-6.336v-4.752C166.296,131.865,163.459,134.702,159.959,134.702z"/><path fill="#fede3a" d="M94.219,122.227c0,3.39-2.748,6.138-6.138,6.138s-6.138-2.748-6.138-6.138 c0-3.39,2.748-6.138,6.138-6.138S94.219,118.837,94.219,122.227z"/><path fill="#fede3a" d="M137.44,128.348L137.44,128.348c-1.035,0-1.874-0.839-1.874-1.874v-8.495 c0-1.035,0.839-1.874,1.874-1.874l0,0c1.035,0,1.874,0.839,1.874,1.874v8.495 C139.314,127.509,138.475,128.348,137.44,128.348z"/><path fill="#fede3a" d="M145.757,128.348L145.757,128.348c-1.035,0-1.874-0.839-1.874-1.874v-8.495 c0-1.035,0.839-1.874,1.874-1.874l0,0c1.035,0,1.874,0.839,1.874,1.874v8.495 C147.631,127.509,146.792,128.348,145.757,128.348z"/><path fill="#fede3a" d="M154.073,128.348L154.073,128.348c-1.035,0-1.874-0.839-1.874-1.874v-8.495 c0-1.035,0.839-1.874,1.874-1.874l0,0c1.035,0,1.874,0.839,1.874,1.874v8.495 C155.947,127.509,155.108,128.348,154.073,128.348z"/></g><g><path fill="#ef5a9d" d="M159.959,180.047H75.21c-3.5,0-6.336-2.837-6.336-6.336v-21.781c0-3.499,2.837-6.336,6.336-6.336 h84.749c3.499,0,6.336,2.837,6.336,6.336v21.781C166.296,177.21,163.459,180.047,159.959,180.047z"/><path fill="#e43d91" d="M159.959,175.294H75.21c-3.5,0-6.336-2.837-6.336-6.336v4.752c0,3.5,2.837,6.336,6.336,6.336h84.749 c3.5,0,6.336-2.837,6.336-6.336v-4.752C166.296,172.458,163.459,175.294,159.959,175.294z"/><path fill="#fede3a" d="M94.219,162.82c0,3.39-2.748,6.138-6.138,6.138s-6.138-2.748-6.138-6.138 c0-3.39,2.748-6.138,6.138-6.138S94.219,159.43,94.219,162.82z"/><path fill="#fede3a" d="M137.44,168.924L137.44,168.924c-1.035,0-1.874-0.839-1.874-1.874v-8.495 c0-1.035,0.839-1.874,1.874-1.874l0,0c1.035,0,1.874,0.839,1.874,1.874v8.495 C139.314,168.085,138.475,168.924,137.44,168.924z"/><path fill="#fede3a" d="M145.757,168.924L145.757,168.924c-1.035,0-1.874-0.839-1.874-1.874v-8.495 c0-1.035,0.839-1.874,1.874-1.874l0,0c1.035,0,1.874,0.839,1.874,1.874v8.495 C147.631,168.085,146.792,168.924,145.757,168.924z"/><path fill="#fede3a" d="M154.073,168.924L154.073,168.924c-1.035,0-1.874-0.839-1.874-1.874v-8.495 c0-1.035,0.839-1.874,1.874-1.874l0,0c1.035,0,1.874,0.839,1.874,1.874v8.495 C155.947,168.085,155.108,168.924,154.073,168.924z"/></g><g><path fill="#f7cb15" d="M88.081,125.286c-2.839,0-5.204-1.937-5.906-4.554c-0.136,0.508-0.232,1.033-0.232,1.584 c0,3.39,2.748,6.138,6.138,6.138c3.39,0,6.138-2.748,6.138-6.138c0-0.551-0.096-1.076-0.233-1.584 C93.285,123.349,90.919,125.286,88.081,125.286z"/></g><g><path fill="#f7cb15" d="M137.44,125.286c-1.035,0-1.874-0.839-1.874-1.874v3.168c0,1.035,0.839,1.874,1.874,1.874 s1.874-0.839,1.874-1.874v-3.168C139.314,124.447,138.475,125.286,137.44,125.286z"/></g><g><path fill="#f7cb15" d="M145.757,125.286c-1.035,0-1.874-0.839-1.874-1.874v3.168c0,1.035,0.839,1.874,1.874,1.874 c1.035,0,1.874-0.839,1.874-1.874v-3.168C147.631,124.447,146.792,125.286,145.757,125.286z"/></g><g><path fill="#f7cb15" d="M154.073,125.286c-1.035,0-1.874-0.839-1.874-1.874v3.168c0,1.035,0.839,1.874,1.874,1.874 c1.035,0,1.874-0.839,1.874-1.874v-3.168C155.947,124.447,155.108,125.286,154.073,125.286z"/></g><g><path fill="#f7cb15" d="M88.081,165.756c-2.839,0-5.204-1.937-5.906-4.554c-0.136,0.508-0.232,1.033-0.232,1.584 c0,3.39,2.748,6.138,6.138,6.138c3.39,0,6.138-2.748,6.138-6.138c0-0.551-0.096-1.076-0.233-1.584 C93.285,163.818,90.919,165.756,88.081,165.756z"/></g><g><path fill="#f7cb15" d="M137.44,165.756c-1.035,0-1.874-0.839-1.874-1.874v3.168c0,1.035,0.839,1.874,1.874,1.874 s1.874-0.839,1.874-1.874v-3.168C139.314,164.917,138.475,165.756,137.44,165.756z"/></g><g><path fill="#f7cb15" d="M145.757,165.756c-1.035,0-1.874-0.839-1.874-1.874v3.168c0,1.035,0.839,1.874,1.874,1.874 c1.035,0,1.874-0.839,1.874-1.874v-3.168C147.631,164.917,146.792,165.756,145.757,165.756z"/></g><g><path fill="#f7cb15" d="M154.073,165.756c-1.035,0-1.874-0.839-1.874-1.874v3.168c0,1.035,0.839,1.874,1.874,1.874 c1.035,0,1.874-0.839,1.874-1.874v-3.168C155.947,164.917,155.108,165.756,154.073,165.756z"/></g><g><path fill="#009add" d="M173.502,191.592h-59.239c-1.105,0-2-0.895-2-2v-48.119c0-1.739,1.41-3.149,3.149-3.149h56.941 c1.739,0,3.149,1.41,3.149,3.149v48.119C175.502,190.697,174.607,191.592,173.502,191.592z"/><path fill="#1caee4" d="M173.502,187.315h-59.239c-1.105,0-2-0.895-2-2v-49.268c0-1.105,0.895-2,2-2h59.239c1.105,0,2,0.895,2,2 v49.268C175.502,186.419,174.607,187.315,173.502,187.315z"/><path fill="#009add" d="M132.991,177.488c-0.541,0-1.082-0.206-1.495-0.619l-9.017-9.017c-0.397-0.397-0.62-0.934-0.62-1.495 c0-0.561,0.223-1.098,0.619-1.495l9.017-9.017c0.826-0.826,2.164-0.826,2.991,0c0.825,0.826,0.825,2.164,0,2.99 l-7.522,7.522l7.522,7.522c0.826,0.826,0.826,2.164,0.001,2.99C134.073,177.282,133.532,177.488,132.991,177.488z"/><path fill="#009add" d="M154.774,177.488c-0.541,0-1.082-0.206-1.495-0.619c-0.825-0.826-0.825-2.164,0.001-2.99l7.522-7.522 l-7.522-7.522c-0.825-0.826-0.825-2.164,0-2.99c0.827-0.826,2.164-0.826,2.991,0l9.017,9.017 c0.396,0.397,0.619,0.934,0.619,1.495c0,0.561-0.223,1.098-0.62,1.495l-9.017,9.017 C155.856,177.282,155.315,177.488,154.774,177.488z"/><path fill="#009add" d="M139.3,177.489c-0.322,0-0.649-0.074-0.956-0.23c-1.041-0.529-1.456-1.802-0.927-2.843l9.162-18.033 c0.529-1.041,1.802-1.456,2.843-0.928c1.041,0.529,1.456,1.802,0.927,2.843l-9.162,18.033 C140.814,177.065,140.071,177.489,139.3,177.489z"/><g><path fill="#fff" d="M132.991,175.299c-0.541,0-1.082-0.206-1.495-0.619l-9.017-9.017c-0.397-0.396-0.62-0.934-0.62-1.495 c0-0.561,0.223-1.098,0.619-1.495l9.017-9.017c0.826-0.826,2.164-0.826,2.991,0c0.825,0.826,0.825,2.164,0,2.99 l-7.522,7.522l7.522,7.522c0.826,0.826,0.826,2.164,0.001,2.99C134.073,175.093,133.532,175.299,132.991,175.299z"/><path fill="#e6e7e8" d="M126.965,164.169l7.522-7.522c0.825-0.826,0.825-2.164,0-2.99c-0.774-0.774-1.998-0.823-2.829-0.146 c0.056,0.045,0.11,0.094,0.161,0.146c0.825,0.826,0.825,2.164,0,2.99l-7.522,7.522l7.522,7.522 c0.826,0.826,0.826,2.164,0.001,2.99c-0.052,0.052-0.106,0.1-0.161,0.146c0.387,0.316,0.86,0.474,1.333,0.474 c0.541,0,1.082-0.206,1.495-0.619c0.825-0.826,0.825-2.164-0.001-2.99L126.965,164.169z"/><path fill="#fff" d="M154.774,175.299c-0.541,0-1.082-0.206-1.495-0.619c-0.825-0.826-0.825-2.164,0.001-2.99l7.522-7.522 l-7.522-7.522c-0.825-0.826-0.825-2.164,0-2.99c0.827-0.826,2.164-0.826,2.991,0l9.017,9.017 c0.396,0.397,0.619,0.934,0.619,1.495c0,0.561-0.223,1.098-0.62,1.495l-9.017,9.017 C155.856,175.093,155.315,175.299,154.774,175.299z"/><path fill="#e6e7e8" d="M155.946,174.68c-0.825-0.826-0.825-2.164,0.001-2.99l7.522-7.522l-7.522-7.522 c-0.825-0.826-0.825-2.164,0-2.99c0.052-0.052,0.106-0.101,0.162-0.146c-0.831-0.677-2.055-0.628-2.829,0.146 c-0.825,0.826-0.825,2.164,0,2.99l7.522,7.522l-7.522,7.522c-0.826,0.826-0.826,2.164-0.001,2.99 c0.413,0.413,0.954,0.619,1.495,0.619c0.473,0,0.946-0.158,1.333-0.474C156.052,174.781,155.998,174.732,155.946,174.68z"/><g><path fill="#fff" d="M139.3,175.3c-0.322,0-0.649-0.074-0.956-0.23c-1.041-0.529-1.456-1.802-0.927-2.843l9.162-18.033 c0.529-1.041,1.802-1.456,2.843-0.928c1.041,0.529,1.456,1.801,0.927,2.843l-9.162,18.033 C140.814,174.877,140.071,175.3,139.3,175.3z"/></g><g><path fill="#e6e7e8" d="M149.422,153.267c-0.148-0.075-0.301-0.131-0.455-0.169c0.116,0.474,0.07,0.991-0.168,1.461 l-9.162,18.033c-0.373,0.734-1.116,1.157-1.887,1.157c-0.167,0-0.335-0.02-0.501-0.061c0.142,0.577,0.524,1.092,1.096,1.382 c0.307,0.156,0.634,0.23,0.956,0.23c0.771,0,1.514-0.423,1.887-1.157l9.162-18.033 C150.878,155.068,150.462,153.796,149.422,153.267z"/></g></g><g><path fill="#009add" d="M173.502,134.047h-59.239c-1.105,0-2,0.895-2,2v7.315h63.239v-7.315 C175.502,134.942,174.607,134.047,173.502,134.047z"/></g><circle cx="120.866" cy="138.705" r="2.131" fill="#fff"/></g><g><path fill="#fede3a" d="M203.246,122.812l-13.261,14.939c-1.195,1.346-3.296,1.346-4.491,0l-13.261-14.939 c-1.719-1.937-0.344-4.996,2.245-4.996h5.34V106.87c0-2.3,1.865-4.165,4.165-4.165h7.513c2.3,0,4.165,1.865,4.165,4.165v10.945 H201C203.59,117.816,204.965,120.875,203.246,122.812z"/></g><path fill="#e7ad27" d="M201.932,117.958l-11.948,13.459c-1.195,1.346-3.296,1.346-4.491,0l-11.948-13.459 c-1.959,0.624-2.812,3.165-1.313,4.854l13.261,14.939c1.195,1.346,3.296,1.346,4.491,0l13.261-14.939 C204.744,121.123,203.891,118.582,201.932,117.958z"/></g></svg>