<svg width="150" height="37" viewBox="0 0 150 37" fill="none" xmlns="http://www.w3.org/2000/svg">
<path d="M3.83292 22.4323C3.74788 24.1967 4.18369 25.4403 5.14032 26.1631C6.09696 26.8859 7.40436 27.2473 9.06253 27.2473C9.59399 27.2473 10.1573 27.1836 10.7526 27.056C11.3691 26.9285 11.9218 26.7265 12.4107 26.4501C12.8997 26.1525 13.3036 25.7805 13.6225 25.3341C13.9626 24.8664 14.1327 24.2924 14.1327 23.6121C14.1327 22.9744 13.9733 22.4429 13.6544 22.0177C13.3568 21.5925 12.9528 21.2418 12.4426 20.9654C11.9537 20.6678 11.3797 20.4233 10.7207 20.232C10.0617 20.0194 9.3814 19.8175 8.67987 19.6261C8.16967 19.4986 7.5638 19.3285 6.86227 19.1159C6.16073 18.8821 5.48046 18.5526 4.82144 18.1274C4.16243 17.681 3.59907 17.107 3.13139 16.4055C2.68496 15.7039 2.46174 14.8111 2.46174 13.7269C2.46174 12.7065 2.65307 11.7605 3.03572 10.8889C3.41838 10.0173 3.9711 9.27321 4.69389 8.65671C5.41668 8.01896 6.29891 7.53001 7.34058 7.18987C8.40351 6.82848 9.60462 6.64778 10.9439 6.64778C12.1344 6.64778 13.2505 6.77533 14.2921 7.03043C15.3338 7.28553 16.2373 7.70008 17.0026 8.27406C17.7679 8.84804 18.3631 9.60272 18.7883 10.5381C19.2135 11.4522 19.4048 12.5789 19.3623 13.9182H15.5358C15.5145 12.4939 15.1212 11.4735 14.3559 10.857C13.5906 10.2192 12.432 9.90034 10.8801 9.90034C10.6038 9.90034 10.2211 9.93223 9.73217 9.996C9.24322 10.0598 8.75428 10.2086 8.26533 10.4424C7.77638 10.6763 7.35121 11.0164 6.98982 11.4628C6.62842 11.888 6.44772 12.4833 6.44772 13.2486C6.44772 13.8013 6.57527 14.2583 6.83038 14.6197C7.08548 14.9811 7.42562 15.2894 7.85079 15.5445C8.29722 15.7996 8.80742 16.0122 9.3814 16.1822C9.95539 16.3523 10.5613 16.5118 11.199 16.6606C12.0068 16.8731 12.8147 17.107 13.6225 17.3621C14.4516 17.6172 15.1956 17.9786 15.8546 18.4463C16.5349 18.8927 17.077 19.488 17.4809 20.232C17.9061 20.9761 18.1187 21.9433 18.1187 23.1338C18.1187 24.0267 17.9486 24.9089 17.6085 25.7805C17.2683 26.6521 16.7156 27.4387 15.9503 28.1402C15.2062 28.8417 14.2284 29.4157 13.0166 29.8621C11.8261 30.2873 10.3699 30.4999 8.64798 30.4999C7.3087 30.4999 6.09696 30.3404 5.01277 30.0216C3.92858 29.7239 3.00384 29.2563 2.23853 28.6185C1.49448 27.9595 0.920496 27.1198 0.516583 26.0994C0.133929 25.079 -0.0361395 23.8566 0.00637757 22.4323H3.83292Z" fill="black"/>
<path d="M28.0212 23.2932C28.0212 23.8885 28.085 24.4412 28.2125 24.9514C28.3613 25.4616 28.5739 25.908 28.8503 26.2907C29.1479 26.6733 29.5306 26.9816 29.9983 27.2154C30.4659 27.428 31.0187 27.5343 31.6564 27.5343C32.6343 27.5343 33.474 27.3217 34.1756 26.8966C34.8984 26.4501 35.483 25.8761 35.9294 25.1746C36.3971 24.4731 36.7372 23.6865 36.9498 22.8149C37.1837 21.9433 37.3006 21.0717 37.3006 20.2001C37.3006 19.6049 37.2262 19.0522 37.0774 18.5419C36.9498 18.0105 36.7372 17.5534 36.4396 17.1708C36.142 16.7669 35.7593 16.4586 35.2916 16.246C34.8452 16.0122 34.3031 15.8953 33.6654 15.8953C32.6875 15.8953 31.8371 16.1185 31.1143 16.5649C30.4128 17.0113 29.8282 17.5959 29.3605 18.3187C28.9141 19.0203 28.5739 19.8175 28.3401 20.7103C28.1275 21.5819 28.0212 22.4429 28.0212 23.2932ZM26.2993 13.4718H29.9026L29.4243 15.5764L29.4881 15.6402C30.062 14.8111 30.8167 14.1733 31.7521 13.7269C32.6875 13.2592 33.6654 13.0253 34.6858 13.0253C35.7062 13.0253 36.6097 13.1954 37.3962 13.5356C38.1828 13.8757 38.8312 14.354 39.3414 14.9705C39.8729 15.5657 40.2661 16.2885 40.5213 17.1389C40.7976 17.968 40.9358 18.8715 40.9358 19.8493C40.9358 21.1036 40.7657 22.3685 40.4256 23.644C40.0854 24.8983 39.5646 26.025 38.8631 27.0241C38.1615 28.0233 37.2793 28.8417 36.2164 29.4795C35.1535 30.096 33.9098 30.4042 32.4855 30.4042C31.2738 30.4042 30.2002 30.2023 29.2648 29.7984C28.3295 29.3732 27.6067 28.576 27.0965 27.4068H27.0327L25.247 36.0484H21.6118L26.2993 13.4718Z" fill="black"/>
<path d="M48.9853 25.4297C48.9853 25.8336 49.0704 26.1738 49.2404 26.4501C49.4318 26.7052 49.6656 26.9178 49.942 27.0879C50.2183 27.2367 50.5266 27.3536 50.8667 27.4387C51.2069 27.5024 51.547 27.5343 51.8871 27.5343C52.78 27.5343 53.5241 27.3855 54.1193 27.0879C54.7358 26.7903 55.2354 26.3864 55.618 25.8762C56.0219 25.3659 56.3302 24.7707 56.5428 24.0904C56.7766 23.3889 56.9573 22.6448 57.0849 21.8583L57.0211 21.7945C56.766 22.0496 56.4258 22.2303 56.0007 22.3366C55.5755 22.4429 55.161 22.5173 54.7571 22.5598C54.2468 22.6023 53.6516 22.6448 52.9713 22.6874C52.3123 22.7299 51.6852 22.8468 51.0899 23.0381C50.516 23.2082 50.0164 23.4846 49.5912 23.8672C49.1873 24.2286 48.9853 24.7494 48.9853 25.4297ZM59.9229 25.1746C59.8591 25.4722 59.7847 25.7592 59.6997 26.0356C59.6359 26.312 59.604 26.5671 59.604 26.8009C59.604 27.0347 59.6571 27.2154 59.7634 27.343C59.8697 27.4705 60.0717 27.5343 60.3693 27.5343C60.5819 27.5343 60.7945 27.5131 61.0071 27.4705C61.2197 27.4068 61.4322 27.3642 61.6448 27.343L61.0708 29.9578C60.6032 30.0641 60.1355 30.1597 59.6678 30.2448C59.2001 30.3511 58.7218 30.4042 58.2328 30.4042C57.6163 30.4042 57.1061 30.2129 56.7022 29.8302C56.2983 29.4476 56.0751 28.9374 56.0326 28.2996C55.3098 29.0224 54.4594 29.5539 53.4815 29.894C52.5036 30.2342 51.5045 30.4042 50.4841 30.4042C49.8038 30.4042 49.1554 30.3086 48.5389 30.1172C47.9224 29.9259 47.3697 29.6495 46.8807 29.2881C46.4131 28.9268 46.041 28.4697 45.7647 27.917C45.4883 27.3643 45.3501 26.7265 45.3501 26.0037C45.3501 24.9833 45.5415 24.1329 45.9241 23.4527C46.3068 22.7511 46.817 22.1772 47.4547 21.7307C48.0925 21.2843 48.8259 20.9548 49.655 20.7422C50.4841 20.5296 51.3557 20.3914 52.2698 20.3277C53.5028 20.2426 54.7145 20.147 55.905 20.0407C56.564 19.9982 57.0423 19.7856 57.34 19.4029C57.6588 18.999 57.8183 18.4888 57.8183 17.8723C57.8183 17.0857 57.5419 16.5649 56.9892 16.3098C56.4365 16.0334 55.7881 15.8953 55.044 15.8953C54.0236 15.8953 53.1414 16.076 52.3973 16.4373C51.6746 16.7775 51.1856 17.4578 50.9305 18.4782H47.4866C47.6779 17.4578 48.0075 16.6074 48.4751 15.9271C48.9428 15.2256 49.5168 14.6623 50.1971 14.2371C50.8774 13.7907 51.6427 13.4824 52.493 13.3123C53.3646 13.121 54.2894 13.0253 55.2673 13.0253C56.7554 13.0253 57.914 13.1742 58.743 13.4718C59.5934 13.7481 60.2099 14.0883 60.5925 14.4922C60.9964 14.8961 61.2409 15.3213 61.3259 15.7677C61.411 16.1929 61.4535 16.5543 61.4535 16.8519C61.4535 17.5747 61.3472 18.4038 61.1346 19.3391L59.9229 25.1746Z" fill="black"/>
<path d="M71.3633 8.52916H74.9028L73.8824 13.4718H77.1669L76.5929 16.1822H73.3084L71.6184 24.2499C71.5333 24.6113 71.4589 24.9514 71.3952 25.2703C71.3314 25.5892 71.2995 25.8443 71.2995 26.0356C71.2995 26.397 71.3739 26.6946 71.5227 26.9284C71.6928 27.141 72.0542 27.2473 72.6069 27.2473C72.8833 27.2473 73.1809 27.2473 73.4997 27.2473C73.8399 27.2261 74.1907 27.1729 74.552 27.0879L73.9462 29.7665C73.4785 29.8728 72.9789 29.9578 72.4474 30.0216C71.916 30.0853 71.4164 30.1172 70.9487 30.1172C70.2897 30.1172 69.7476 30.0322 69.3224 29.8621C68.8973 29.6921 68.5571 29.4688 68.302 29.1925C68.0682 28.8949 67.8981 28.5654 67.7918 28.204C67.7068 27.8213 67.6643 27.4387 67.6643 27.056C67.6643 26.7371 67.6855 26.3864 67.728 26.0037C67.7918 25.621 67.845 25.3553 67.8875 25.2065L69.7689 16.1822H66.899L67.4729 13.4718H70.3428L71.3633 8.52916Z" fill="black"/>
<path d="M84.1858 7.18987H87.7891L87.0876 10.6338H83.4842L84.1858 7.18987ZM82.8784 13.4718H86.5136L83.1016 29.9578H79.4664L82.8784 13.4718Z" fill="black"/>
<path d="M93.826 25.4297C93.826 25.8336 93.911 26.1738 94.0811 26.4501C94.2724 26.7052 94.5063 26.9178 94.7826 27.0879C95.059 27.2367 95.3672 27.3536 95.7074 27.4387C96.0475 27.5024 96.3876 27.5343 96.7278 27.5343C97.6206 27.5343 98.3647 27.3855 98.9599 27.0879C99.5764 26.7903 100.076 26.3864 100.459 25.8762C100.863 25.3659 101.171 24.7707 101.383 24.0904C101.617 23.3889 101.798 22.6448 101.926 21.8583L101.862 21.7945C101.607 22.0496 101.266 22.2303 100.841 22.3366C100.416 22.4429 100.002 22.5173 99.5977 22.5598C99.0875 22.6023 98.4922 22.6448 97.812 22.6874C97.153 22.7299 96.5258 22.8468 95.9306 23.0381C95.3566 23.2082 94.857 23.4846 94.4319 23.8672C94.0279 24.2286 93.826 24.7494 93.826 25.4297ZM104.764 25.1746C104.7 25.4722 104.625 25.7592 104.54 26.0356C104.477 26.312 104.445 26.5671 104.445 26.8009C104.445 27.0347 104.498 27.2154 104.604 27.343C104.71 27.4705 104.912 27.5343 105.21 27.5343C105.423 27.5343 105.635 27.5131 105.848 27.4705C106.06 27.4068 106.273 27.3642 106.485 27.343L105.911 29.9578C105.444 30.0641 104.976 30.1597 104.508 30.2448C104.041 30.3511 103.562 30.4042 103.073 30.4042C102.457 30.4042 101.947 30.2129 101.543 29.8302C101.139 29.4476 100.916 28.9374 100.873 28.2996C100.15 29.0224 99.3001 29.5539 98.3222 29.894C97.3443 30.2342 96.3451 30.4042 95.3247 30.4042C94.6444 30.4042 93.9961 30.3086 93.3796 30.1172C92.7631 29.9259 92.2103 29.6495 91.7214 29.2881C91.2537 28.9268 90.8817 28.4697 90.6053 27.917C90.329 27.3643 90.1908 26.7265 90.1908 26.0037C90.1908 24.9833 90.3821 24.1329 90.7648 23.4527C91.1474 22.7511 91.6576 22.1772 92.2954 21.7307C92.9331 21.2843 93.6666 20.9548 94.4956 20.7422C95.3247 20.5296 96.1963 20.3914 97.1104 20.3277C98.3434 20.2426 99.5552 20.147 100.746 20.0407C101.405 19.9982 101.883 19.7856 102.181 19.4029C102.499 18.999 102.659 18.4888 102.659 17.8723C102.659 17.0857 102.383 16.5649 101.83 16.3098C101.277 16.0334 100.629 15.8953 99.8847 15.8953C98.8643 15.8953 97.982 16.076 97.238 16.4373C96.5152 16.7775 96.0263 17.4578 95.7712 18.4782H92.3273C92.5186 17.4578 92.8481 16.6074 93.3158 15.9271C93.7835 15.2256 94.3575 14.6623 95.0377 14.2371C95.718 13.7907 96.4833 13.4824 97.3337 13.3123C98.2053 13.121 99.13 13.0253 100.108 13.0253C101.596 13.0253 102.755 13.1742 103.584 13.4718C104.434 13.7481 105.051 14.0883 105.433 14.4922C105.837 14.8961 106.082 15.3213 106.167 15.7677C106.252 16.1929 106.294 16.5543 106.294 16.8519C106.294 17.5747 106.188 18.4038 105.975 19.3391L104.764 25.1746Z" fill="black"/>
<path d="M115.47 7.18987H119.106L114.386 29.9578H110.751L115.47 7.18987Z" fill="black"/>
<path d="M132 14.2656L121.553 29.9578H128.937L135.609 19.5942L142.154 29.9578H150L139.553 14.3076L149.161 0H141.944L135.86 9.56635L129.986 0H122.35L132 14.2656Z" fill="black"/>
</svg>
